<ttFont>
    <TTGlyph name=".ttfautohint" xMin="0" yMin="0" xMax="0" yMax="0">
      <contour>
        <pt x="0" y="0" on="1"/>
      </contour>
    </TTGlyph>
    <TTGlyph name="A" xMin="27" yMin="0" xMax="1523" yMax="1595">
      <contour>
        <pt x="782" y="1283" on="1"/>
        <pt x="763" y="1283" on="1"/>
        <pt x="686" y="576" on="1"/>
        <pt x="864" y="576" on="1"/>
      </contour>
      <contour>
        <pt x="668" y="366" on="1"/>
        <pt x="613" y="0" on="1"/>
        <pt x="27" y="0" on="1"/>
        <pt x="319" y="1595" on="1"/>
        <pt x="1226" y="1595" on="1"/>
        <pt x="1523" y="0" on="1"/>
        <pt x="936" y="0" on="1"/>
        <pt x="882" y="366" on="1"/>
      </contour>
    </TTGlyph>
    <TTGlyph name="AE" xMin="38" yMin="0" xMax="1946" yMax="1595">
      <contour>
        <pt x="847" y="578" on="1"/>
        <pt x="987" y="578" on="1"/>
        <pt x="987" y="1001" on="1"/>
      </contour>
      <contour>
        <pt x="1946" y="1595" on="1"/>
        <pt x="1946" y="1354" on="1"/>
        <pt x="1605" y="1354" on="1"/>
        <pt x="1605" y="961" on="1"/>
        <pt x="1923" y="961" on="1"/>
        <pt x="1923" y="711" on="1"/>
        <pt x="1605" y="711" on="1"/>
        <pt x="1605" y="244" on="1"/>
        <pt x="1946" y="244" on="1"/>
        <pt x="1946" y="0" on="1"/>
        <pt x="987" y="0" on="1"/>
        <pt x="987" y="348" on="1"/>
        <pt x="774" y="348" on="1"/>
        <pt x="663" y="0" on="1"/>
        <pt x="38" y="0" on="1"/>
        <pt x="673" y="1595" on="1"/>
      </contour>
    </TTGlyph>
    <TTGlyph name="Aacute" xMin="27" yMin="0" xMax="1523" yMax="2296">
      <component glyphName=".ttfautohint" x="27" y="0" flags="0x0"/>
      <component glyphName="acute" x="671" y="366" flags="0x1004"/>
      <component glyphName="A" x="0" y="0" flags="0x1204"/>
    </TTGlyph>
    <TTGlyph name="Abreve" xMin="27" yMin="0" xMax="1523" yMax="2218">
      <component glyphName=".ttfautohint" x="27" y="0" flags="0x0"/>
      <component glyphName="breve" x="238" y="339" flags="0x1004"/>
      <component glyphName="A" x="0" y="0" flags="0x1204"/>
    </TTGlyph>
    <TTGlyph name="Acircumflex" xMin="27" yMin="0" xMax="1523" yMax="2334">
      <component glyphName=".ttfautohint" x="27" y="0" flags="0x0"/>
      <component glyphName="circumflex" x="298" y="326" flags="0x1004"/>
      <component glyphName="A" x="0" y="0" flags="0x1204"/>
    </TTGlyph>
    <TTGlyph name="Adieresis" xMin="27" yMin="0" xMax="1523" yMax="2073">
      <component glyphName=".ttfautohint" x="27" y="0" flags="0x0"/>
      <component glyphName="dieresis" x="125" y="1655" flags="0x1004"/>
      <component glyphName="A" x="0" y="0" flags="0x1204"/>
    </TTGlyph>
    <TTGlyph name="Agrave" xMin="27" yMin="0" xMax="1523" yMax="2296">
      <component glyphName=".ttfautohint" x="27" y="0" flags="0x0"/>
      <component glyphName="grave" x="6" y="366" flags="0x1004"/>
      <component glyphName="A" x="0" y="0" flags="0x1204"/>
    </TTGlyph>
    <TTGlyph name="Amacron" xMin="27" yMin="0" xMax="1523" yMax="1968">
      <component glyphName=".ttfautohint" x="27" y="0" flags="0x0"/>
      <component glyphName="macron" x="272" y="1071" flags="0x1004"/>
      <component glyphName="A" x="0" y="0" flags="0x1204"/>
    </TTGlyph>
    <TTGlyph name="Aogonek" xMin="27" yMin="-631" xMax="1523" yMax="1595">
      <component glyphName=".ttfautohint" x="27" y="0" flags="0x0"/>
      <component glyphName="ogonek" x="503" y="71" flags="0x1004"/>
      <component glyphName="A" x="0" y="0" flags="0x1004"/>
    </TTGlyph>
    <TTGlyph name="Aring" xMin="27" yMin="0" xMax="1523" yMax="2256">
      <component glyphName=".ttfautohint" x="27" y="0" flags="0x0"/>
      <component glyphName="ring" x="370" y="1504" flags="0x1004"/>
      <component glyphName="A" x="0" y="0" flags="0x1204"/>
    </TTGlyph>
    <TTGlyph name="Atilde" xMin="27" yMin="0" xMax="1523" yMax="2313">
      <component glyphName=".ttfautohint" x="27" y="0" flags="0x0"/>
      <component glyphName="tilde" x="56" y="1667" flags="0x1004"/>
      <component glyphName="A" x="0" y="0" flags="0x1204"/>
    </TTGlyph>
    <TTGlyph name="B" xMin="92" yMin="0" xMax="1478" yMax="1595">
      <contour>
        <pt x="696" y="951" on="1"/>
        <pt x="869" y="951" on="1"/>
        <pt x="869" y="1358" on="1"/>
        <pt x="696" y="1358" on="1"/>
      </contour>
      <contour>
        <pt x="696" y="235" on="1"/>
        <pt x="869" y="235" on="1"/>
        <pt x="869" y="770" on="1"/>
        <pt x="696" y="770" on="1"/>
      </contour>
      <contour>
        <pt x="1098" y="873" on="1"/>
        <pt x="1098" y="860" on="1"/>
        <pt x="1210" y="847" on="0"/>
        <pt x="1365" y="772" on="0"/>
        <pt x="1445" y="659" on="0"/>
        <pt x="1478" y="536" on="0"/>
        <pt x="1478" y="460" on="1"/>
        <pt x="1478" y="321" on="0"/>
        <pt x="1420" y="144" on="0"/>
        <pt x="1283" y="40" on="0"/>
        <pt x="1087" y="0" on="0"/>
        <pt x="935" y="0" on="1"/>
        <pt x="92" y="0" on="1"/>
        <pt x="92" y="1595" on="1"/>
        <pt x="939" y="1595" on="1"/>
        <pt x="1000" y="1595" on="0"/>
        <pt x="1098" y="1588" on="0"/>
        <pt x="1204" y="1568" on="0"/>
        <pt x="1285" y="1535" on="0"/>
        <pt x="1360" y="1478" on="0"/>
        <pt x="1408" y="1400" on="0"/>
        <pt x="1437" y="1289" on="0"/>
        <pt x="1437" y="1219" on="1"/>
        <pt x="1437" y="1060" on="0"/>
        <pt x="1288" y="893" on="0"/>
      </contour>
    </TTGlyph>
    <TTGlyph name="C" xMin="80" yMin="-40" xMax="1462" yMax="1636">
      <contour>
        <pt x="858" y="1356" on="1"/>
        <pt x="685" y="1356" on="1"/>
        <pt x="685" y="233" on="1"/>
        <pt x="858" y="233" on="1"/>
        <pt x="858" y="614" on="1"/>
        <pt x="1462" y="614" on="1"/>
        <pt x="1462" y="369" on="1"/>
        <pt x="1462" y="291" on="0"/>
        <pt x="1416" y="166" on="0"/>
        <pt x="1343" y="82" on="0"/>
        <pt x="1231" y="20" on="0"/>
        <pt x="1118" y="-14" on="0"/>
        <pt x="970" y="-34" on="0"/>
        <pt x="851" y="-40" on="0"/>
        <pt x="776" y="-40" on="1"/>
        <pt x="707" y="-40" on="0"/>
        <pt x="593" y="-35" on="0"/>
        <pt x="444" y="-15" on="0"/>
        <pt x="328" y="19" on="0"/>
        <pt x="208" y="81" on="0"/>
        <pt x="130" y="165" on="0"/>
        <pt x="80" y="291" on="0"/>
        <pt x="80" y="370" on="1"/>
        <pt x="80" y="1226" on="1"/>
        <pt x="80" y="1303" on="0"/>
        <pt x="127" y="1428" on="0"/>
        <pt x="202" y="1512" on="0"/>
        <pt x="316" y="1575" on="0"/>
        <pt x="431" y="1609" on="0"/>
        <pt x="579" y="1630" on="0"/>
        <pt x="700" y="1636" on="0"/>
        <pt x="773" y="1636" on="1"/>
        <pt x="851" y="1636" on="0"/>
        <pt x="971" y="1631" on="0"/>
        <pt x="1122" y="1611" on="0"/>
        <pt x="1233" y="1578" on="0"/>
        <pt x="1346" y="1516" on="0"/>
        <pt x="1417" y="1432" on="0"/>
        <pt x="1462" y="1306" on="0"/>
        <pt x="1462" y="1227" on="1"/>
        <pt x="1462" y="979" on="1"/>
        <pt x="858" y="979" on="1"/>
      </contour>
    </TTGlyph>
    <TTGlyph name="Cacute" xMin="80" yMin="-40" xMax="1499" yMax="2297">
      <component glyphName=".ttfautohint" x="80" y="0" flags="0x0"/>
      <component glyphName="acute" x="667" y="367" flags="0x1004"/>
      <component glyphName="C" x="0" y="0" flags="0x1204"/>
    </TTGlyph>
    <TTGlyph name="Ccaron" xMin="80" yMin="-40" xMax="1462" yMax="2335">
      <component glyphName=".ttfautohint" x="80" y="0" flags="0x0"/>
      <component glyphName="caron" x="294" y="327" flags="0x1004"/>
      <component glyphName="C" x="0" y="0" flags="0x1204"/>
    </TTGlyph>
    <TTGlyph name="Ccedilla" xMin="80" yMin="-505" xMax="1462" yMax="1636">
      <component glyphName=".ttfautohint" x="80" y="0" flags="0x0"/>
      <component glyphName="cedilla" x="298" y="-24" flags="0x1004"/>
      <component glyphName="C" x="0" y="0" flags="0x1204"/>
    </TTGlyph>
    <TTGlyph name="Ccircumflex" xMin="80" yMin="-40" xMax="1462" yMax="2335">
      <component glyphName=".ttfautohint" x="80" y="0" flags="0x0"/>
      <component glyphName="circumflex" x="294" y="327" flags="0x1004"/>
      <component glyphName="C" x="0" y="0" flags="0x1204"/>
    </TTGlyph>
    <TTGlyph name="Cdotaccent" xMin="80" yMin="-40" xMax="1462" yMax="2158">
      <component glyphName=".ttfautohint" x="80" y="0" flags="0x0"/>
      <component glyphName="uni0307" x="431" y="522" flags="0x1004"/>
      <component glyphName="C" x="0" y="0" flags="0x1204"/>
    </TTGlyph>
    <TTGlyph name="D" xMin="92" yMin="0" xMax="1474" yMax="1595">
      <contour>
        <pt x="1474" y="1204" on="1"/>
        <pt x="1474" y="393" on="1"/>
        <pt x="1474" y="326" on="0"/>
        <pt x="1447" y="216" on="0"/>
        <pt x="1392" y="137" on="0"/>
        <pt x="1325" y="78" on="0"/>
        <pt x="1229" y="40" on="0"/>
        <pt x="1138" y="15" on="0"/>
        <pt x="1015" y="4" on="0"/>
        <pt x="915" y="0" on="0"/>
        <pt x="848" y="0" on="1"/>
        <pt x="92" y="0" on="1"/>
        <pt x="92" y="1595" on="1"/>
        <pt x="848" y="1595" on="1"/>
        <pt x="924" y="1595" on="0"/>
        <pt x="1042" y="1589" on="0"/>
        <pt x="1178" y="1570" on="0"/>
        <pt x="1278" y="1536" on="0"/>
        <pt x="1375" y="1477" on="0"/>
        <pt x="1436" y="1396" on="0"/>
        <pt x="1474" y="1278" on="0"/>
      </contour>
      <contour>
        <pt x="697" y="235" on="1"/>
        <pt x="870" y="235" on="1"/>
        <pt x="870" y="1358" on="1"/>
        <pt x="697" y="1358" on="1"/>
      </contour>
    </TTGlyph>
    <TTGlyph name="Dcaron" xMin="92" yMin="0" xMax="1474" yMax="2334">
      <component glyphName=".ttfautohint" x="92" y="0" flags="0x0"/>
      <component glyphName="caron" x="306" y="326" flags="0x1004"/>
      <component glyphName="D" x="0" y="0" flags="0x1204"/>
    </TTGlyph>
    <TTGlyph name="Dcroat" xMin="52" yMin="0" xMax="1378" yMax="1595">
      <contour>
        <pt x="645" y="237" on="1"/>
        <pt x="881" y="237" on="1"/>
        <pt x="881" y="1358" on="1"/>
        <pt x="645" y="1358" on="1"/>
        <pt x="645" y="868" on="1"/>
        <pt x="773" y="868" on="1"/>
        <pt x="773" y="726" on="1"/>
        <pt x="645" y="726" on="1"/>
      </contour>
      <contour>
        <pt x="1378" y="393" on="1"/>
        <pt x="1376" y="392" on="1"/>
        <pt x="1376" y="261" on="0"/>
        <pt x="1300" y="110" on="0"/>
        <pt x="1210" y="66" on="1"/>
        <pt x="1075" y="0" on="0"/>
        <pt x="817" y="0" on="1"/>
        <pt x="146" y="0" on="1"/>
        <pt x="146" y="726" on="1"/>
        <pt x="52" y="726" on="1"/>
        <pt x="52" y="868" on="1"/>
        <pt x="146" y="868" on="1"/>
        <pt x="146" y="1595" on="1"/>
        <pt x="817" y="1595" on="1"/>
        <pt x="909" y="1595" on="0"/>
        <pt x="1057" y="1581" on="0"/>
        <pt x="1204" y="1541" on="0"/>
        <pt x="1305" y="1475" on="0"/>
        <pt x="1371" y="1364" on="0"/>
        <pt x="1375" y="1289" on="1"/>
        <pt x="1378" y="1244" on="0"/>
        <pt x="1378" y="1204" on="1"/>
      </contour>
    </TTGlyph>
    <TTGlyph name="E" xMin="92" yMin="0" xMax="1037" yMax="1595">
      <contour>
        <pt x="1037" y="1595" on="1"/>
        <pt x="1037" y="1346" on="1"/>
        <pt x="696" y="1346" on="1"/>
        <pt x="696" y="961" on="1"/>
        <pt x="1014" y="961" on="1"/>
        <pt x="1014" y="711" on="1"/>
        <pt x="696" y="711" on="1"/>
        <pt x="696" y="251" on="1"/>
        <pt x="1037" y="251" on="1"/>
        <pt x="1037" y="0" on="1"/>
        <pt x="92" y="0" on="1"/>
        <pt x="92" y="1595" on="1"/>
      </contour>
    </TTGlyph>
    <TTGlyph name="Eacute" xMin="92" yMin="0" xMax="1292" yMax="2296">
      <component glyphName=".ttfautohint" x="92" y="0" flags="0x0"/>
      <component glyphName="acute" x="460" y="366" flags="0x1004"/>
      <component glyphName="E" x="0" y="0" flags="0x1204"/>
    </TTGlyph>
    <TTGlyph name="Ecaron" xMin="92" yMin="0" xMax="1037" yMax="2334">
      <component glyphName=".ttfautohint" x="92" y="0" flags="0x0"/>
      <component glyphName="caron" x="88" y="326" flags="0x1004"/>
      <component glyphName="E" x="0" y="0" flags="0x1204"/>
    </TTGlyph>
    <TTGlyph name="Ecircumflex" xMin="92" yMin="0" xMax="1037" yMax="2334">
      <component glyphName=".ttfautohint" x="92" y="0" flags="0x0"/>
      <component glyphName="circumflex" x="88" y="326" flags="0x1004"/>
      <component glyphName="E" x="0" y="0" flags="0x1204"/>
    </TTGlyph>
    <TTGlyph name="Edieresis" xMin="-3" yMin="0" xMax="1131" yMax="2073">
      <component glyphName=".ttfautohint" x="0" y="0" flags="0x0"/>
      <component glyphName="dieresis" x="-86" y="1655" flags="0x1004"/>
      <component glyphName="E" x="0" y="0" flags="0x1204"/>
    </TTGlyph>
    <TTGlyph name="Edotaccent" xMin="92" yMin="0" xMax="1037" yMax="2157">
      <component glyphName=".ttfautohint" x="92" y="0" flags="0x0"/>
      <component glyphName="uni0307" x="224" y="521" flags="0x1004"/>
      <component glyphName="E" x="0" y="0" flags="0x1204"/>
    </TTGlyph>
    <TTGlyph name="Egrave" xMin="-163" yMin="0" xMax="1037" yMax="2296">
      <component glyphName=".ttfautohint" x="0" y="0" flags="0x0"/>
      <component glyphName="grave" x="-204" y="366" flags="0x1004"/>
      <component glyphName="E" x="0" y="0" flags="0x1204"/>
    </TTGlyph>
    <TTGlyph name="Emacron" xMin="92" yMin="0" xMax="1037" yMax="1968">
      <component glyphName=".ttfautohint" x="92" y="0" flags="0x0"/>
      <component glyphName="macron" x="61" y="1071" flags="0x1004"/>
      <component glyphName="E" x="0" y="0" flags="0x1204"/>
    </TTGlyph>
    <TTGlyph name="Eogonek" xMin="92" yMin="-631" xMax="1037" yMax="1595">
      <component glyphName=".ttfautohint" x="92" y="0" flags="0x0"/>
      <component glyphName="ogonek" x="162" y="71" flags="0x1004"/>
      <component glyphName="E" x="0" y="0" flags="0x1004"/>
    </TTGlyph>
    <TTGlyph name="Eth" xMin="52" yMin="0" xMax="1378" yMax="1595">
      <contour>
        <pt x="645" y="237" on="1"/>
        <pt x="881" y="237" on="1"/>
        <pt x="881" y="1358" on="1"/>
        <pt x="645" y="1358" on="1"/>
        <pt x="645" y="868" on="1"/>
        <pt x="773" y="868" on="1"/>
        <pt x="773" y="726" on="1"/>
        <pt x="645" y="726" on="1"/>
      </contour>
      <contour>
        <pt x="1378" y="393" on="1"/>
        <pt x="1376" y="392" on="1"/>
        <pt x="1376" y="261" on="0"/>
        <pt x="1300" y="110" on="0"/>
        <pt x="1210" y="66" on="1"/>
        <pt x="1075" y="0" on="0"/>
        <pt x="817" y="0" on="1"/>
        <pt x="146" y="0" on="1"/>
        <pt x="146" y="726" on="1"/>
        <pt x="52" y="726" on="1"/>
        <pt x="52" y="868" on="1"/>
        <pt x="146" y="868" on="1"/>
        <pt x="146" y="1595" on="1"/>
        <pt x="817" y="1595" on="1"/>
        <pt x="909" y="1595" on="0"/>
        <pt x="1057" y="1581" on="0"/>
        <pt x="1204" y="1541" on="0"/>
        <pt x="1305" y="1475" on="0"/>
        <pt x="1371" y="1364" on="0"/>
        <pt x="1375" y="1289" on="1"/>
        <pt x="1378" y="1244" on="0"/>
        <pt x="1378" y="1204" on="1"/>
      </contour>
    </TTGlyph>
    <TTGlyph name="Euro" xMin="0" yMin="-40" xMax="1472" yMax="1632">
      <contour>
        <pt x="0" y="705" on="1"/>
        <pt x="90" y="705" on="1"/>
        <pt x="90" y="843" on="1"/>
        <pt x="0" y="843" on="1"/>
        <pt x="0" y="987" on="1"/>
        <pt x="90" y="987" on="1"/>
        <pt x="90" y="1226" on="1"/>
        <pt x="90" y="1303" on="0"/>
        <pt x="137" y="1428" on="0"/>
        <pt x="212" y="1511" on="0"/>
        <pt x="326" y="1573" on="0"/>
        <pt x="441" y="1606" on="0"/>
        <pt x="590" y="1626" on="0"/>
        <pt x="709" y="1632" on="0"/>
        <pt x="783" y="1632" on="1"/>
        <pt x="862" y="1632" on="0"/>
        <pt x="980" y="1627" on="0"/>
        <pt x="1132" y="1608" on="0"/>
        <pt x="1242" y="1576" on="0"/>
        <pt x="1356" y="1515" on="0"/>
        <pt x="1427" y="1431" on="0"/>
        <pt x="1472" y="1306" on="0"/>
        <pt x="1472" y="1227" on="1"/>
        <pt x="1472" y="1139" on="1"/>
        <pt x="868" y="1139" on="1"/>
        <pt x="868" y="1356" on="1"/>
        <pt x="695" y="1356" on="1"/>
        <pt x="695" y="988" on="1"/>
        <pt x="1037" y="988" on="1"/>
        <pt x="1037" y="843" on="1"/>
        <pt x="695" y="843" on="1"/>
        <pt x="695" y="706" on="1"/>
        <pt x="1037" y="706" on="1"/>
        <pt x="1037" y="561" on="1"/>
        <pt x="695" y="561" on="1"/>
        <pt x="695" y="233" on="1"/>
        <pt x="868" y="233" on="1"/>
        <pt x="868" y="451" on="1"/>
        <pt x="1472" y="451" on="1"/>
        <pt x="1472" y="369" on="1"/>
        <pt x="1472" y="291" on="0"/>
        <pt x="1426" y="166" on="0"/>
        <pt x="1353" y="82" on="0"/>
        <pt x="1241" y="20" on="0"/>
        <pt x="1128" y="-14" on="0"/>
        <pt x="980" y="-34" on="0"/>
        <pt x="861" y="-40" on="0"/>
        <pt x="786" y="-40" on="1"/>
        <pt x="717" y="-40" on="0"/>
        <pt x="603" y="-35" on="0"/>
        <pt x="454" y="-15" on="0"/>
        <pt x="338" y="19" on="0"/>
        <pt x="218" y="81" on="0"/>
        <pt x="140" y="165" on="0"/>
        <pt x="90" y="291" on="0"/>
        <pt x="90" y="370" on="1"/>
        <pt x="90" y="561" on="1"/>
        <pt x="0" y="561" on="1"/>
      </contour>
    </TTGlyph>
    <TTGlyph name="F" xMin="92" yMin="0" xMax="1037" yMax="1595">
      <contour>
        <pt x="1037" y="1595" on="1"/>
        <pt x="1037" y="1346" on="1"/>
        <pt x="696" y="1346" on="1"/>
        <pt x="696" y="954" on="1"/>
        <pt x="1014" y="954" on="1"/>
        <pt x="1014" y="705" on="1"/>
        <pt x="696" y="705" on="1"/>
        <pt x="696" y="0" on="1"/>
        <pt x="92" y="0" on="1"/>
        <pt x="92" y="1595" on="1"/>
      </contour>
    </TTGlyph>
    <TTGlyph name="G" xMin="80" yMin="-39" xMax="1462" yMax="1636">
      <contour>
        <pt x="901" y="124" on="1"/>
        <pt x="801" y="-39" on="0"/>
        <pt x="550" y="-39" on="1"/>
        <pt x="452" y="-39" on="0"/>
        <pt x="285" y="9" on="0"/>
        <pt x="154" y="103" on="0"/>
        <pt x="80" y="259" on="0"/>
        <pt x="80" y="359" on="1"/>
        <pt x="80" y="1228" on="1"/>
        <pt x="80" y="1306" on="0"/>
        <pt x="126" y="1431" on="0"/>
        <pt x="201" y="1515" on="0"/>
        <pt x="315" y="1576" on="0"/>
        <pt x="429" y="1610" on="0"/>
        <pt x="578" y="1630" on="0"/>
        <pt x="697" y="1636" on="0"/>
        <pt x="772" y="1636" on="1"/>
        <pt x="836" y="1636" on="0"/>
        <pt x="952" y="1629" on="0"/>
        <pt x="1096" y="1608" on="0"/>
        <pt x="1214" y="1573" on="0"/>
        <pt x="1332" y="1510" on="0"/>
        <pt x="1412" y="1427" on="0"/>
        <pt x="1462" y="1303" on="0"/>
        <pt x="1462" y="1227" on="1"/>
        <pt x="1462" y="979" on="1"/>
        <pt x="857" y="979" on="1"/>
        <pt x="857" y="1358" on="1"/>
        <pt x="684" y="1358" on="1"/>
        <pt x="684" y="235" on="1"/>
        <pt x="857" y="235" on="1"/>
        <pt x="857" y="538" on="1"/>
        <pt x="772" y="538" on="1"/>
        <pt x="772" y="769" on="1"/>
        <pt x="1462" y="769" on="1"/>
        <pt x="1462" y="0" on="1"/>
        <pt x="975" y="0" on="1"/>
      </contour>
    </TTGlyph>
    <TTGlyph name="Gbreve" xMin="80" yMin="-39" xMax="1462" yMax="2219">
      <component glyphName=".ttfautohint" x="80" y="0" flags="0x0"/>
      <component glyphName="breve" x="234" y="340" flags="0x1004"/>
      <component glyphName="G" x="0" y="0" flags="0x1204"/>
    </TTGlyph>
    <TTGlyph name="Gcircumflex" xMin="80" yMin="-39" xMax="1462" yMax="2335">
      <component glyphName=".ttfautohint" x="80" y="0" flags="0x0"/>
      <component glyphName="circumflex" x="294" y="327" flags="0x1004"/>
      <component glyphName="G" x="0" y="0" flags="0x1204"/>
    </TTGlyph>
    <TTGlyph name="Gcommaaccent" xMin="80" yMin="-784" xMax="1462" yMax="1636">
      <component glyphName=".ttfautohint" x="80" y="0" flags="0x0"/>
      <component glyphName="uni0326" x="423" y="-550" flags="0x1004"/>
      <component glyphName="G" x="0" y="0" flags="0x1204"/>
    </TTGlyph>
    <TTGlyph name="Gdotaccent" xMin="80" yMin="-39" xMax="1462" yMax="2158">
      <component glyphName=".ttfautohint" x="80" y="0" flags="0x0"/>
      <component glyphName="uni0307" x="431" y="522" flags="0x1004"/>
      <component glyphName="G" x="0" y="0" flags="0x1204"/>
    </TTGlyph>
    <TTGlyph name="H" xMin="92" yMin="0" xMax="1493" yMax="1595">
      <contour>
        <pt x="1493" y="1595" on="1"/>
        <pt x="1493" y="0" on="1"/>
        <pt x="889" y="0" on="1"/>
        <pt x="889" y="688" on="1"/>
        <pt x="696" y="688" on="1"/>
        <pt x="696" y="0" on="1"/>
        <pt x="92" y="0" on="1"/>
        <pt x="92" y="1595" on="1"/>
        <pt x="696" y="1595" on="1"/>
        <pt x="696" y="908" on="1"/>
        <pt x="889" y="908" on="1"/>
        <pt x="889" y="1595" on="1"/>
      </contour>
    </TTGlyph>
    <TTGlyph name="Hbar" xMin="54" yMin="0" xMax="1659" yMax="1595">
      <contour>
        <pt x="755" y="1158" on="1"/>
        <pt x="755" y="938" on="1"/>
        <pt x="948" y="938" on="1"/>
        <pt x="948" y="1158" on="1"/>
      </contour>
      <contour>
        <pt x="1659" y="1349" on="1"/>
        <pt x="1659" y="1158" on="1"/>
        <pt x="1553" y="1158" on="1"/>
        <pt x="1553" y="0" on="1"/>
        <pt x="948" y="0" on="1"/>
        <pt x="948" y="688" on="1"/>
        <pt x="755" y="688" on="1"/>
        <pt x="755" y="0" on="1"/>
        <pt x="151" y="0" on="1"/>
        <pt x="151" y="1158" on="1"/>
        <pt x="54" y="1158" on="1"/>
        <pt x="54" y="1349" on="1"/>
        <pt x="151" y="1349" on="1"/>
        <pt x="151" y="1595" on="1"/>
        <pt x="755" y="1595" on="1"/>
        <pt x="755" y="1349" on="1"/>
        <pt x="948" y="1349" on="1"/>
        <pt x="948" y="1595" on="1"/>
        <pt x="1553" y="1595" on="1"/>
        <pt x="1553" y="1349" on="1"/>
      </contour>
    </TTGlyph>
    <TTGlyph name="Hcircumflex" xMin="92" yMin="0" xMax="1493" yMax="2334">
      <component glyphName=".ttfautohint" x="92" y="0" flags="0x0"/>
      <component glyphName="circumflex" x="316" y="326" flags="0x1004"/>
      <component glyphName="H" x="0" y="0" flags="0x1204"/>
    </TTGlyph>
    <TTGlyph name="I" xMin="92" yMin="0" xMax="696" yMax="1595">
      <contour>
        <pt x="696" y="1595" on="1"/>
        <pt x="696" y="0" on="1"/>
        <pt x="92" y="0" on="1"/>
        <pt x="92" y="1595" on="1"/>
      </contour>
    </TTGlyph>
    <TTGlyph name="IJ" xMin="116" yMin="-76" xMax="1596" yMax="1595">
      <contour>
        <pt x="1596" y="334" on="1"/>
        <pt x="1596" y="262" on="0"/>
        <pt x="1557" y="144" on="0"/>
        <pt x="1489" y="60" on="0"/>
        <pt x="1388" y="-3" on="0"/>
        <pt x="1275" y="-42" on="0"/>
        <pt x="1133" y="-66" on="0"/>
        <pt x="996" y="-75" on="0"/>
        <pt x="916" y="-75" on="1"/>
        <pt x="916" y="-76" on="1"/>
        <pt x="883" y="-76" on="0"/>
        <pt x="819" y="-74" on="1"/>
        <pt x="819" y="198" on="1"/>
        <pt x="992" y="198" on="1"/>
        <pt x="992" y="1594" on="1"/>
        <pt x="1596" y="1594" on="1"/>
      </contour>
      <contour>
        <pt x="720" y="1595" on="1"/>
        <pt x="720" y="0" on="1"/>
        <pt x="116" y="0" on="1"/>
        <pt x="116" y="1595" on="1"/>
      </contour>
    </TTGlyph>
    <TTGlyph name="Iacute" xMin="92" yMin="0" xMax="1122" yMax="2296">
      <component glyphName=".ttfautohint" x="92" y="0" flags="0x0"/>
      <component glyphName="acute" x="290" y="366" flags="0x1004"/>
      <component glyphName="I" x="0" y="0" flags="0x1204"/>
    </TTGlyph>
    <TTGlyph name="Ibreve" xMin="-68" yMin="0" xMax="856" yMax="2218">
      <component glyphName=".ttfautohint" x="0" y="0" flags="0x0"/>
      <component glyphName="breve" x="-143" y="339" flags="0x1004"/>
      <component glyphName="I" x="0" y="0" flags="0x1204"/>
    </TTGlyph>
    <TTGlyph name="Icircumflex" xMin="-29" yMin="0" xMax="817" yMax="2334">
      <component glyphName=".ttfautohint" x="0" y="0" flags="0x0"/>
      <component glyphName="circumflex" x="-83" y="326" flags="0x1004"/>
      <component glyphName="I" x="0" y="0" flags="0x1204"/>
    </TTGlyph>
    <TTGlyph name="Idieresis" xMin="-173" yMin="0" xMax="961" yMax="2073">
      <component glyphName=".ttfautohint" x="0" y="0" flags="0x0"/>
      <component glyphName="dieresis" x="-256" y="1655" flags="0x1004"/>
      <component glyphName="I" x="0" y="0" flags="0x1204"/>
    </TTGlyph>
    <TTGlyph name="Idotaccent" xMin="92" yMin="0" xMax="696" yMax="2157">
      <component glyphName=".ttfautohint" x="92" y="0" flags="0x0"/>
      <component glyphName="uni0307" x="54" y="521" flags="0x1004"/>
      <component glyphName="I" x="0" y="0" flags="0x1204"/>
    </TTGlyph>
    <TTGlyph name="Igrave" xMin="-334" yMin="0" xMax="696" yMax="2296">
      <component glyphName=".ttfautohint" x="0" y="0" flags="0x0"/>
      <component glyphName="grave" x="-375" y="366" flags="0x1004"/>
      <component glyphName="I" x="0" y="0" flags="0x1204"/>
    </TTGlyph>
    <TTGlyph name="Imacron" xMin="-23" yMin="0" xMax="810" yMax="1968">
      <component glyphName=".ttfautohint" x="0" y="0" flags="0x0"/>
      <component glyphName="macron" x="-110" y="1071" flags="0x1004"/>
      <component glyphName="I" x="0" y="0" flags="0x1204"/>
    </TTGlyph>
    <TTGlyph name="Iogonek" xMin="92" yMin="-751" xMax="746" yMax="1595">
      <component glyphName=".ttfautohint" x="92" y="0" flags="0x0"/>
      <component glyphName="ogonek" x="-41" y="-49" flags="0x1004"/>
      <component glyphName="I" x="0" y="0" flags="0x1204"/>
    </TTGlyph>
    <TTGlyph name="Itilde" xMin="-246" yMin="0" xMax="1034" yMax="2313">
      <component glyphName=".ttfautohint" x="0" y="0" flags="0x0"/>
      <component glyphName="tilde" x="-325" y="1667" flags="0x1004"/>
      <component glyphName="I" x="0" y="0" flags="0x1204"/>
    </TTGlyph>
    <TTGlyph name="J" xMin="54" yMin="-159" xMax="831" yMax="1594">
      <contour>
        <pt x="831" y="1594" on="1"/>
        <pt x="831" y="274" on="1"/>
        <pt x="831" y="158" on="0"/>
        <pt x="752" y="-13" on="0"/>
        <pt x="608" y="-112" on="0"/>
        <pt x="424" y="-159" on="0"/>
        <pt x="310" y="-159" on="1"/>
        <pt x="192" y="-159" on="0"/>
        <pt x="54" y="-134" on="1"/>
        <pt x="54" y="138" on="1"/>
        <pt x="227" y="138" on="1"/>
        <pt x="227" y="1594" on="1"/>
      </contour>
    </TTGlyph>
    <TTGlyph name="Jcircumflex" xMin="20" yMin="-159" xMax="866" yMax="2334">
      <component glyphName=".ttfautohint" x="20" y="0" flags="0x0"/>
      <component glyphName="circumflex" x="-34" y="326" flags="0x1004"/>
      <component glyphName="J" x="0" y="0" flags="0x1204"/>
    </TTGlyph>
    <TTGlyph name="K" xMin="92" yMin="0" xMax="1657" yMax="1595">
      <contour>
        <pt x="1657" y="0" on="1"/>
        <pt x="1284" y="840" on="1"/>
        <pt x="1609" y="1595" on="1"/>
        <pt x="990" y="1595" on="1"/>
        <pt x="695" y="829" on="1"/>
        <pt x="697" y="1013" on="1"/>
        <pt x="697" y="1595" on="1"/>
        <pt x="92" y="1595" on="1"/>
        <pt x="92" y="0" on="1"/>
        <pt x="697" y="0" on="1"/>
        <pt x="697" y="564" on="1"/>
        <pt x="756" y="695" on="1"/>
        <pt x="1008" y="0" on="1"/>
      </contour>
    </TTGlyph>
    <TTGlyph name="Kcommaaccent" xMin="92" yMin="-745" xMax="1657" yMax="1595">
      <component glyphName=".ttfautohint" x="92" y="0" flags="0x0"/>
      <component glyphName="uni0326" x="526" y="-511" flags="0x1004"/>
      <component glyphName="K" x="0" y="0" flags="0x1204"/>
    </TTGlyph>
    <TTGlyph name="L" xMin="92" yMin="0" xMax="1037" yMax="1595">
      <contour>
        <pt x="92" y="0" on="1"/>
        <pt x="92" y="1595" on="1"/>
        <pt x="696" y="1595" on="1"/>
        <pt x="696" y="241" on="1"/>
        <pt x="1037" y="241" on="1"/>
        <pt x="1037" y="0" on="1"/>
      </contour>
    </TTGlyph>
    <TTGlyph name="Lacute" xMin="92" yMin="0" xMax="1292" yMax="2296">
      <component glyphName=".ttfautohint" x="92" y="0" flags="0x0"/>
      <component glyphName="acute" x="460" y="366" flags="0x1004"/>
      <component glyphName="L" x="0" y="0" flags="0x1204"/>
    </TTGlyph>
    <TTGlyph name="Lcaron" xMin="92" yMin="0" xMax="1604" yMax="1635">
      <component glyphName=".ttfautohint" x="92" y="0" flags="0x0"/>
      <component glyphName="comma" x="1049" y="1226" flags="0x1004"/>
      <component glyphName="L" x="0" y="0" flags="0x1004"/>
    </TTGlyph>
    <TTGlyph name="Lcommaaccent" xMin="92" yMin="-745" xMax="1037" yMax="1595">
      <component glyphName=".ttfautohint" x="92" y="0" flags="0x0"/>
      <component glyphName="uni0326" x="216" y="-511" flags="0x1004"/>
      <component glyphName="L" x="0" y="0" flags="0x1204"/>
    </TTGlyph>
    <TTGlyph name="Ldot" xMin="92" yMin="0" xMax="1037" yMax="1595">
      <component glyphName=".ttfautohint" x="92" y="0" flags="0x0"/>
      <component glyphName="periodcentered" x="224" y="-298" flags="0x1004"/>
      <component glyphName="L" x="0" y="0" flags="0x1204"/>
    </TTGlyph>
    <TTGlyph name="Lslash" xMin="72" yMin="0" xMax="1322" yMax="1595">
      <contour>
        <pt x="377" y="911" on="1"/>
        <pt x="377" y="1595" on="1"/>
        <pt x="981" y="1595" on="1"/>
        <pt x="981" y="1231" on="1"/>
        <pt x="1320" y="1410" on="1"/>
        <pt x="1320" y="1072" on="1"/>
        <pt x="981" y="892" on="1"/>
        <pt x="981" y="241" on="1"/>
        <pt x="1322" y="241" on="1"/>
        <pt x="1322" y="0" on="1"/>
        <pt x="377" y="0" on="1"/>
        <pt x="377" y="572" on="1"/>
        <pt x="72" y="410" on="1"/>
        <pt x="72" y="750" on="1"/>
      </contour>
    </TTGlyph>
    <TTGlyph name="M" xMin="64" yMin="-1" xMax="1840" yMax="1595">
      <contour>
        <pt x="1324" y="958" on="1"/>
        <pt x="1167" y="-1" on="1"/>
        <pt x="740" y="-1" on="1"/>
        <pt x="595" y="958" on="1"/>
        <pt x="581" y="958" on="1"/>
        <pt x="525" y="0" on="1"/>
        <pt x="64" y="0" on="1"/>
        <pt x="148" y="1595" on="1"/>
        <pt x="818" y="1595" on="1"/>
        <pt x="945" y="671" on="1"/>
        <pt x="958" y="671" on="1"/>
        <pt x="1085" y="1595" on="1"/>
        <pt x="1756" y="1595" on="1"/>
        <pt x="1840" y="0" on="1"/>
        <pt x="1394" y="0" on="1"/>
        <pt x="1338" y="958" on="1"/>
      </contour>
    </TTGlyph>
    <TTGlyph name="N" xMin="92" yMin="0" xMax="1484" yMax="1595">
      <contour>
        <pt x="945" y="0" on="1"/>
        <pt x="540" y="711" on="1"/>
        <pt x="540" y="0" on="1"/>
        <pt x="92" y="0" on="1"/>
        <pt x="92" y="1595" on="1"/>
        <pt x="609" y="1595" on="1"/>
        <pt x="1040" y="834" on="1"/>
        <pt x="1040" y="1595" on="1"/>
        <pt x="1484" y="1595" on="1"/>
        <pt x="1484" y="0" on="1"/>
      </contour>
    </TTGlyph>
    <TTGlyph name="Nacute" xMin="92" yMin="0" xMax="1516" yMax="2296">
      <component glyphName=".ttfautohint" x="92" y="0" flags="0x0"/>
      <component glyphName="acute" x="684" y="366" flags="0x1004"/>
      <component glyphName="N" x="0" y="0" flags="0x1204"/>
    </TTGlyph>
    <TTGlyph name="Ncaron" xMin="92" yMin="0" xMax="1484" yMax="2334">
      <component glyphName=".ttfautohint" x="92" y="0" flags="0x0"/>
      <component glyphName="caron" x="311" y="326" flags="0x1004"/>
      <component glyphName="N" x="0" y="0" flags="0x1204"/>
    </TTGlyph>
    <TTGlyph name="Ncommaaccent" xMin="92" yMin="-745" xMax="1484" yMax="1595">
      <component glyphName=".ttfautohint" x="92" y="0" flags="0x0"/>
      <component glyphName="uni0326" x="440" y="-511" flags="0x1004"/>
      <component glyphName="N" x="0" y="0" flags="0x1204"/>
    </TTGlyph>
    <TTGlyph name="Ntilde" xMin="92" yMin="0" xMax="1484" yMax="2313">
      <component glyphName=".ttfautohint" x="92" y="0" flags="0x0"/>
      <component glyphName="tilde" x="69" y="1667" flags="0x1004"/>
      <component glyphName="N" x="0" y="0" flags="0x1204"/>
    </TTGlyph>
    <TTGlyph name="O" xMin="80" yMin="-39" xMax="1462" yMax="1635">
      <contour>
        <pt x="768" y="-39" on="1"/>
        <pt x="688" y="-39" on="0"/>
        <pt x="568" y="-34" on="0"/>
        <pt x="417" y="-15" on="0"/>
        <pt x="307" y="19" on="0"/>
        <pt x="195" y="80" on="0"/>
        <pt x="124" y="164" on="0"/>
        <pt x="80" y="291" on="0"/>
        <pt x="80" y="370" on="1"/>
        <pt x="80" y="1226" on="1"/>
        <pt x="80" y="1303" on="0"/>
        <pt x="126" y="1428" on="0"/>
        <pt x="200" y="1512" on="0"/>
        <pt x="313" y="1574" on="0"/>
        <pt x="427" y="1609" on="0"/>
        <pt x="574" y="1629" on="0"/>
        <pt x="695" y="1635" on="0"/>
        <pt x="768" y="1635" on="1"/>
        <pt x="836" y="1635" on="0"/>
        <pt x="950" y="1630" on="0"/>
        <pt x="1098" y="1610" on="0"/>
        <pt x="1214" y="1576" on="0"/>
        <pt x="1333" y="1514" on="0"/>
        <pt x="1412" y="1430" on="0"/>
        <pt x="1462" y="1304" on="0"/>
        <pt x="1462" y="1226" on="1"/>
        <pt x="1462" y="370" on="1"/>
        <pt x="1462" y="291" on="0"/>
        <pt x="1415" y="165" on="0"/>
        <pt x="1341" y="81" on="0"/>
        <pt x="1225" y="20" on="0"/>
        <pt x="1113" y="-14" on="0"/>
        <pt x="961" y="-33" on="0"/>
        <pt x="844" y="-39" on="0"/>
      </contour>
      <contour>
        <pt x="685" y="235" on="1"/>
        <pt x="858" y="235" on="1"/>
        <pt x="858" y="1362" on="1"/>
        <pt x="685" y="1362" on="1"/>
      </contour>
    </TTGlyph>
    <TTGlyph name="OE" xMin="92" yMin="-1" xMax="1768" yMax="1595">
      <contour>
        <pt x="678" y="232" on="1"/>
        <pt x="792" y="232" on="1"/>
        <pt x="792" y="1363" on="1"/>
        <pt x="678" y="1363" on="1"/>
      </contour>
      <contour>
        <pt x="722" y="0" on="1"/>
        <pt x="722" y="-1" on="1"/>
        <pt x="431" y="-1" on="0"/>
        <pt x="279" y="60" on="1"/>
        <pt x="177" y="101" on="0"/>
        <pt x="92" y="238" on="0"/>
        <pt x="92" y="371" on="1"/>
        <pt x="92" y="1227" on="1"/>
        <pt x="92" y="1355" on="0"/>
        <pt x="180" y="1495" on="0"/>
        <pt x="279" y="1534" on="1"/>
        <pt x="434" y="1595" on="0"/>
        <pt x="722" y="1595" on="1"/>
        <pt x="1768" y="1595" on="1"/>
        <pt x="1768" y="1354" on="1"/>
        <pt x="1424" y="1354" on="1"/>
        <pt x="1424" y="961" on="1"/>
        <pt x="1744" y="961" on="1"/>
        <pt x="1744" y="711" on="1"/>
        <pt x="1424" y="711" on="1"/>
        <pt x="1424" y="244" on="1"/>
        <pt x="1768" y="244" on="1"/>
        <pt x="1768" y="0" on="1"/>
      </contour>
    </TTGlyph>
    <TTGlyph name="Oacute" xMin="80" yMin="-39" xMax="1499" yMax="2296">
      <component glyphName=".ttfautohint" x="80" y="0" flags="0x0"/>
      <component glyphName="acute" x="667" y="366" flags="0x1004"/>
      <component glyphName="O" x="0" y="0" flags="0x1204"/>
    </TTGlyph>
    <TTGlyph name="Obreve" xMin="80" yMin="-39" xMax="1462" yMax="2218">
      <component glyphName=".ttfautohint" x="80" y="0" flags="0x0"/>
      <component glyphName="breve" x="234" y="339" flags="0x1004"/>
      <component glyphName="O" x="0" y="0" flags="0x1204"/>
    </TTGlyph>
    <TTGlyph name="Ocircumflex" xMin="80" yMin="-39" xMax="1462" yMax="2334">
      <component glyphName=".ttfautohint" x="80" y="0" flags="0x0"/>
      <component glyphName="circumflex" x="294" y="326" flags="0x1004"/>
      <component glyphName="O" x="0" y="0" flags="0x1204"/>
    </TTGlyph>
    <TTGlyph name="Odieresis" xMin="80" yMin="-39" xMax="1462" yMax="2073">
      <component glyphName=".ttfautohint" x="80" y="0" flags="0x0"/>
      <component glyphName="dieresis" x="121" y="1655" flags="0x1004"/>
      <component glyphName="O" x="0" y="0" flags="0x1204"/>
    </TTGlyph>
    <TTGlyph name="Ograve" xMin="43" yMin="-39" xMax="1462" yMax="2296">
      <component glyphName=".ttfautohint" x="43" y="0" flags="0x0"/>
      <component glyphName="grave" x="2" y="366" flags="0x1004"/>
      <component glyphName="O" x="0" y="0" flags="0x1204"/>
    </TTGlyph>
    <TTGlyph name="Ohungarumlaut" xMin="80" yMin="-39" xMax="1845" yMax="2296">
      <component glyphName=".ttfautohint" x="80" y="0" flags="0x0"/>
      <component glyphName="hungarumlaut" x="292" y="366" flags="0x1004"/>
      <component glyphName="O" x="0" y="0" flags="0x1204"/>
    </TTGlyph>
    <TTGlyph name="Omacron" xMin="80" yMin="-39" xMax="1462" yMax="1968">
      <component glyphName=".ttfautohint" x="80" y="0" flags="0x0"/>
      <component glyphName="macron" x="268" y="1071" flags="0x1004"/>
      <component glyphName="O" x="0" y="0" flags="0x1204"/>
    </TTGlyph>
    <TTGlyph name="Oslash" xMin="90" yMin="-166" xMax="1472" yMax="1817">
      <contour>
        <pt x="1292" y="1546" on="1"/>
        <pt x="1472" y="1450" on="0"/>
        <pt x="1472" y="1226" on="1"/>
        <pt x="1472" y="370" on="1"/>
        <pt x="1472" y="296" on="0"/>
        <pt x="1432" y="176" on="0"/>
        <pt x="1365" y="92" on="0"/>
        <pt x="1261" y="29" on="0"/>
        <pt x="1147" y="-8" on="0"/>
        <pt x="1000" y="-31" on="0"/>
        <pt x="862" y="-39" on="0"/>
        <pt x="778" y="-39" on="1"/>
        <pt x="779" y="-41" on="1"/>
        <pt x="499" y="-41" on="0"/>
        <pt x="350" y="10" on="1"/>
        <pt x="242" y="-166" on="1"/>
        <pt x="114" y="-70" on="1"/>
        <pt x="210" y="85" on="1"/>
        <pt x="90" y="184" on="0"/>
        <pt x="90" y="370" on="1"/>
        <pt x="90" y="1226" on="1"/>
        <pt x="90" y="1300" on="0"/>
        <pt x="129" y="1418" on="0"/>
        <pt x="196" y="1502" on="0"/>
        <pt x="299" y="1564" on="0"/>
        <pt x="411" y="1600" on="0"/>
        <pt x="557" y="1622" on="0"/>
        <pt x="694" y="1630" on="0"/>
        <pt x="778" y="1630" on="1"/>
        <pt x="1002" y="1630" on="0"/>
        <pt x="1141" y="1599" on="1"/>
        <pt x="1275" y="1817" on="1"/>
        <pt x="1396" y="1716" on="1"/>
      </contour>
      <contour>
        <pt x="695" y="235" on="1"/>
        <pt x="868" y="235" on="1"/>
        <pt x="868" y="1362" on="1"/>
        <pt x="695" y="1362" on="1"/>
      </contour>
    </TTGlyph>
    <TTGlyph name="Otilde" xMin="80" yMin="-39" xMax="1462" yMax="2313">
      <component glyphName=".ttfautohint" x="80" y="0" flags="0x0"/>
      <component glyphName="tilde" x="52" y="1667" flags="0x1004"/>
      <component glyphName="O" x="0" y="0" flags="0x1204"/>
    </TTGlyph>
    <TTGlyph name="P" xMin="92" yMin="0" xMax="1473" yMax="1595">
      <contour>
        <pt x="695" y="628" on="1"/>
        <pt x="868" y="628" on="1"/>
        <pt x="868" y="1362" on="1"/>
        <pt x="695" y="1362" on="1"/>
      </contour>
      <contour>
        <pt x="92" y="1595" on="1"/>
        <pt x="847" y="1595" on="1"/>
        <pt x="923" y="1595" on="0"/>
        <pt x="1041" y="1589" on="0"/>
        <pt x="1177" y="1570" on="0"/>
        <pt x="1277" y="1536" on="0"/>
        <pt x="1374" y="1477" on="0"/>
        <pt x="1435" y="1396" on="0"/>
        <pt x="1473" y="1278" on="0"/>
        <pt x="1473" y="1204" on="1"/>
        <pt x="1473" y="793" on="1"/>
        <pt x="1473" y="733" on="0"/>
        <pt x="1450" y="634" on="0"/>
        <pt x="1411" y="559" on="0"/>
        <pt x="1348" y="500" on="0"/>
        <pt x="1282" y="460" on="0"/>
        <pt x="1190" y="430" on="0"/>
        <pt x="1107" y="414" on="0"/>
        <pt x="996" y="405" on="0"/>
        <pt x="907" y="402" on="0"/>
        <pt x="848" y="402" on="1"/>
        <pt x="696" y="402" on="1"/>
        <pt x="696" y="0" on="1"/>
        <pt x="92" y="0" on="1"/>
      </contour>
    </TTGlyph>
    <TTGlyph name="Q" xMin="80" yMin="-499" xMax="1462" yMax="1632">
      <contour>
        <pt x="685" y="235" on="1"/>
        <pt x="858" y="235" on="1"/>
        <pt x="858" y="1362" on="1"/>
        <pt x="685" y="1362" on="1"/>
      </contour>
      <contour>
        <pt x="1030" y="-499" on="1"/>
        <pt x="642" y="-36" on="1"/>
        <pt x="563" y="-32" on="0"/>
        <pt x="439" y="-15" on="0"/>
        <pt x="303" y="19" on="0"/>
        <pt x="204" y="78" on="0"/>
        <pt x="122" y="163" on="0"/>
        <pt x="80" y="290" on="0"/>
        <pt x="80" y="370" on="1"/>
        <pt x="80" y="1226" on="1"/>
        <pt x="80" y="1303" on="0"/>
        <pt x="126" y="1428" on="0"/>
        <pt x="200" y="1511" on="0"/>
        <pt x="314" y="1573" on="0"/>
        <pt x="427" y="1606" on="0"/>
        <pt x="575" y="1626" on="0"/>
        <pt x="694" y="1632" on="0"/>
        <pt x="768" y="1632" on="1"/>
        <pt x="837" y="1632" on="0"/>
        <pt x="949" y="1627" on="0"/>
        <pt x="1098" y="1608" on="0"/>
        <pt x="1214" y="1575" on="0"/>
        <pt x="1334" y="1513" on="0"/>
        <pt x="1412" y="1430" on="0"/>
        <pt x="1462" y="1304" on="0"/>
        <pt x="1462" y="1226" on="1"/>
        <pt x="1462" y="370" on="1"/>
        <pt x="1462" y="297" on="0"/>
        <pt x="1416" y="179" on="0"/>
        <pt x="1342" y="99" on="0"/>
        <pt x="1232" y="37" on="0"/>
        <pt x="1119" y="2" on="0"/>
        <pt x="1049" y="-12" on="1"/>
        <pt x="1275" y="-281" on="1"/>
      </contour>
    </TTGlyph>
    <TTGlyph name="R" xMin="92" yMin="0" xMax="1475" yMax="1595">
      <contour>
        <pt x="696" y="881" on="1"/>
        <pt x="869" y="881" on="1"/>
        <pt x="869" y="1358" on="1"/>
        <pt x="696" y="1358" on="1"/>
      </contour>
      <contour>
        <pt x="1099" y="792" on="1"/>
        <pt x="1100" y="786" on="1"/>
        <pt x="1300" y="763" on="0"/>
        <pt x="1475" y="578" on="0"/>
        <pt x="1475" y="437" on="1"/>
        <pt x="1475" y="0" on="1"/>
        <pt x="869" y="0" on="1"/>
        <pt x="869" y="649" on="1"/>
        <pt x="696" y="649" on="1"/>
        <pt x="696" y="0" on="1"/>
        <pt x="92" y="0" on="1"/>
        <pt x="92" y="1595" on="1"/>
        <pt x="1005" y="1595" on="1"/>
        <pt x="1118" y="1595" on="0"/>
        <pt x="1279" y="1556" on="0"/>
        <pt x="1400" y="1464" on="0"/>
        <pt x="1459" y="1305" on="0"/>
        <pt x="1459" y="1190" on="1"/>
        <pt x="1459" y="1119" on="0"/>
        <pt x="1441" y="1012" on="0"/>
        <pt x="1394" y="914" on="0"/>
        <pt x="1314" y="847" on="0"/>
        <pt x="1186" y="801" on="0"/>
      </contour>
    </TTGlyph>
    <TTGlyph name="Racute" xMin="92" yMin="0" xMax="1512" yMax="2296">
      <component glyphName=".ttfautohint" x="92" y="0" flags="0x0"/>
      <component glyphName="acute" x="680" y="366" flags="0x1004"/>
      <component glyphName="R" x="0" y="0" flags="0x1204"/>
    </TTGlyph>
    <TTGlyph name="Rcaron" xMin="92" yMin="0" xMax="1475" yMax="2334">
      <component glyphName=".ttfautohint" x="92" y="0" flags="0x0"/>
      <component glyphName="caron" x="306" y="326" flags="0x1004"/>
      <component glyphName="R" x="0" y="0" flags="0x1204"/>
    </TTGlyph>
    <TTGlyph name="Rcommaaccent" xMin="92" yMin="-745" xMax="1475" yMax="1595">
      <component glyphName=".ttfautohint" x="92" y="0" flags="0x0"/>
      <component glyphName="uni0326" x="436" y="-511" flags="0x1004"/>
      <component glyphName="R" x="0" y="0" flags="0x1204"/>
    </TTGlyph>
    <TTGlyph name="S" xMin="55" yMin="-39" xMax="1413" yMax="1635">
      <contour>
        <pt x="632" y="1125" on="1"/>
        <pt x="635" y="1123" on="1"/>
        <pt x="635" y="1117" on="0"/>
        <pt x="640" y="1105" on="0"/>
        <pt x="651" y="1096" on="0"/>
        <pt x="662" y="1089" on="0"/>
        <pt x="681" y="1082" on="0"/>
        <pt x="694" y="1078" on="0"/>
        <pt x="717" y="1073" on="0"/>
        <pt x="729" y="1071" on="0"/>
        <pt x="753" y="1067" on="0"/>
        <pt x="757" y="1066" on="1"/>
        <pt x="982" y="1026" on="0"/>
        <pt x="1080" y="992" on="1"/>
        <pt x="1301" y="916" on="0"/>
        <pt x="1373" y="752" on="1"/>
        <pt x="1413" y="663" on="0"/>
        <pt x="1413" y="542" on="1"/>
        <pt x="1413" y="369" on="0"/>
        <pt x="1338" y="145" on="0"/>
        <pt x="1167" y="13" on="0"/>
        <pt x="922" y="-39" on="0"/>
        <pt x="735" y="-39" on="1"/>
        <pt x="667" y="-39" on="0"/>
        <pt x="559" y="-34" on="0"/>
        <pt x="420" y="-16" on="0"/>
        <pt x="314" y="16" on="0"/>
        <pt x="203" y="74" on="0"/>
        <pt x="128" y="153" on="0"/>
        <pt x="74" y="271" on="0"/>
        <pt x="67" y="345" on="1"/>
        <pt x="61" y="413" on="0"/>
        <pt x="61" y="488" on="1"/>
        <pt x="634" y="488" on="1"/>
        <pt x="634" y="235" on="1"/>
        <pt x="807" y="235" on="1"/>
        <pt x="807" y="485" on="1"/>
        <pt x="807" y="504" on="0"/>
        <pt x="787" y="533" on="0"/>
        <pt x="743" y="556" on="0"/>
        <pt x="717" y="566" on="0"/>
        <pt x="689" y="575" on="1"/>
        <pt x="656" y="586" on="0"/>
        <pt x="550" y="617" on="0"/>
        <pt x="477" y="639" on="0"/>
        <pt x="378" y="673" on="0"/>
        <pt x="308" y="704" on="0"/>
        <pt x="225" y="751" on="0"/>
        <pt x="168" y="802" on="0"/>
        <pt x="110" y="871" on="0"/>
        <pt x="76" y="950" on="0"/>
        <pt x="55" y="1052" on="0"/>
        <pt x="55" y="1111" on="1"/>
        <pt x="55" y="1203" on="0"/>
        <pt x="89" y="1353" on="0"/>
        <pt x="149" y="1461" on="0"/>
        <pt x="242" y="1542" on="0"/>
        <pt x="347" y="1592" on="0"/>
        <pt x="484" y="1623" on="0"/>
        <pt x="621" y="1635" on="0"/>
        <pt x="705" y="1635" on="1"/>
        <pt x="793" y="1635" on="0"/>
        <pt x="930" y="1626" on="0"/>
        <pt x="1067" y="1601" on="0"/>
        <pt x="1167" y="1558" on="0"/>
        <pt x="1255" y="1490" on="0"/>
        <pt x="1309" y="1395" on="0"/>
        <pt x="1341" y="1263" on="0"/>
        <pt x="1341" y="1180" on="1"/>
        <pt x="805" y="1180" on="1"/>
        <pt x="805" y="1358" on="1"/>
        <pt x="632" y="1358" on="1"/>
      </contour>
    </TTGlyph>
    <TTGlyph name="Sacute" xMin="55" yMin="-39" xMax="1462" yMax="2296">
      <component glyphName=".ttfautohint" x="55" y="0" flags="0x0"/>
      <component glyphName="acute" x="630" y="366" flags="0x1004"/>
      <component glyphName="S" x="0" y="0" flags="0x1204"/>
    </TTGlyph>
    <TTGlyph name="Scaron" xMin="55" yMin="-39" xMax="1413" yMax="2334">
      <component glyphName=".ttfautohint" x="55" y="0" flags="0x0"/>
      <component glyphName="caron" x="257" y="326" flags="0x1004"/>
      <component glyphName="S" x="0" y="0" flags="0x1204"/>
    </TTGlyph>
    <TTGlyph name="Scedilla" xMin="55" yMin="-504" xMax="1413" yMax="1635">
      <component glyphName=".ttfautohint" x="55" y="0" flags="0x0"/>
      <component glyphName="cedilla" x="262" y="-23" flags="0x1004"/>
      <component glyphName="S" x="0" y="0" flags="0x1204"/>
    </TTGlyph>
    <TTGlyph name="Scommaaccent" xMin="55" yMin="-784" xMax="1413" yMax="1635">
      <component glyphName=".ttfautohint" x="55" y="0" flags="0x0"/>
      <component glyphName="uni0326" x="386" y="-550" flags="0x1004"/>
      <component glyphName="S" x="0" y="0" flags="0x1204"/>
    </TTGlyph>
    <TTGlyph name="T" xMin="3" yMin="0" xMax="1316" yMax="1595">
      <contour>
        <pt x="1316" y="1595" on="1"/>
        <pt x="1316" y="1326" on="1"/>
        <pt x="960" y="1326" on="1"/>
        <pt x="960" y="0" on="1"/>
        <pt x="356" y="0" on="1"/>
        <pt x="356" y="1326" on="1"/>
        <pt x="3" y="1326" on="1"/>
        <pt x="3" y="1595" on="1"/>
      </contour>
    </TTGlyph>
    <TTGlyph name="Tcaron" xMin="3" yMin="0" xMax="1316" yMax="2334">
      <component glyphName=".ttfautohint" x="3" y="0" flags="0x0"/>
      <component glyphName="caron" x="182" y="326" flags="0x1004"/>
      <component glyphName="T" x="0" y="0" flags="0x1204"/>
    </TTGlyph>
    <TTGlyph name="Tcommaaccent" xMin="3" yMin="-465" xMax="1316" yMax="1595">
      <component glyphName=".ttfautohint" x="3" y="0" flags="0x0"/>
      <component glyphName="cedilla" x="187" y="16" flags="0x1004"/>
      <component glyphName="T" x="0" y="0" flags="0x1204"/>
    </TTGlyph>
    <TTGlyph name="Thorn" xMin="104" yMin="0" xMax="1469" yMax="1599">
      <contour>
        <pt x="706" y="482" on="1"/>
        <pt x="869" y="482" on="1"/>
        <pt x="869" y="1182" on="1"/>
        <pt x="706" y="1182" on="1"/>
      </contour>
      <contour>
        <pt x="104" y="1599" on="1"/>
        <pt x="706" y="1599" on="1"/>
        <pt x="706" y="1413" on="1"/>
        <pt x="843" y="1413" on="1"/>
        <pt x="1132" y="1413" on="0"/>
        <pt x="1284" y="1347" on="1"/>
        <pt x="1385" y="1303" on="0"/>
        <pt x="1469" y="1158" on="0"/>
        <pt x="1469" y="1022" on="1"/>
        <pt x="1469" y="641" on="1"/>
        <pt x="1469" y="524" on="0"/>
        <pt x="1447" y="469" on="1"/>
        <pt x="1425" y="415" on="0"/>
        <pt x="1336" y="335" on="0"/>
        <pt x="1226" y="288" on="0"/>
        <pt x="1076" y="260" on="0"/>
        <pt x="932" y="250" on="0"/>
        <pt x="843" y="250" on="1"/>
        <pt x="706" y="250" on="1"/>
        <pt x="706" y="0" on="1"/>
        <pt x="104" y="0" on="1"/>
      </contour>
    </TTGlyph>
    <TTGlyph name="U" xMin="85" yMin="-39" xMax="1467" yMax="1595">
      <contour>
        <pt x="689" y="234" on="1"/>
        <pt x="862" y="234" on="1"/>
        <pt x="862" y="1594" on="1"/>
        <pt x="1467" y="1594" on="1"/>
        <pt x="1467" y="370" on="1"/>
        <pt x="1467" y="292" on="0"/>
        <pt x="1420" y="167" on="0"/>
        <pt x="1346" y="83" on="0"/>
        <pt x="1231" y="21" on="0"/>
        <pt x="1117" y="-13" on="0"/>
        <pt x="968" y="-33" on="0"/>
        <pt x="848" y="-39" on="0"/>
        <pt x="774" y="-39" on="1"/>
        <pt x="705" y="-39" on="0"/>
        <pt x="591" y="-34" on="0"/>
        <pt x="443" y="-14" on="0"/>
        <pt x="328" y="20" on="0"/>
        <pt x="211" y="82" on="0"/>
        <pt x="134" y="166" on="0"/>
        <pt x="85" y="293" on="0"/>
        <pt x="85" y="371" on="1"/>
        <pt x="85" y="1595" on="1"/>
        <pt x="689" y="1595" on="1"/>
      </contour>
    </TTGlyph>
    <TTGlyph name="Uacute" xMin="85" yMin="-39" xMax="1504" yMax="2296">
      <component glyphName=".ttfautohint" x="85" y="0" flags="0x0"/>
      <component glyphName="acute" x="672" y="366" flags="0x1004"/>
      <component glyphName="U" x="0" y="0" flags="0x1204"/>
    </TTGlyph>
    <TTGlyph name="Ubreve" xMin="85" yMin="-39" xMax="1467" yMax="2218">
      <component glyphName=".ttfautohint" x="85" y="0" flags="0x0"/>
      <component glyphName="breve" x="239" y="339" flags="0x1004"/>
      <component glyphName="U" x="0" y="0" flags="0x1204"/>
    </TTGlyph>
    <TTGlyph name="Ucircumflex" xMin="85" yMin="-39" xMax="1467" yMax="2334">
      <component glyphName=".ttfautohint" x="85" y="0" flags="0x0"/>
      <component glyphName="circumflex" x="299" y="326" flags="0x1004"/>
      <component glyphName="U" x="0" y="0" flags="0x1204"/>
    </TTGlyph>
    <TTGlyph name="Udieresis" xMin="85" yMin="-39" xMax="1467" yMax="2073">
      <component glyphName=".ttfautohint" x="85" y="0" flags="0x0"/>
      <component glyphName="dieresis" x="126" y="1655" flags="0x1004"/>
      <component glyphName="U" x="0" y="0" flags="0x1204"/>
    </TTGlyph>
    <TTGlyph name="Ugrave" xMin="48" yMin="-39" xMax="1467" yMax="2296">
      <component glyphName=".ttfautohint" x="48" y="0" flags="0x0"/>
      <component glyphName="grave" x="7" y="366" flags="0x1004"/>
      <component glyphName="U" x="0" y="0" flags="0x1204"/>
    </TTGlyph>
    <TTGlyph name="Uhungarumlaut" xMin="85" yMin="-39" xMax="1849" yMax="2296">
      <component glyphName=".ttfautohint" x="85" y="0" flags="0x0"/>
      <component glyphName="hungarumlaut" x="296" y="366" flags="0x1004"/>
      <component glyphName="U" x="0" y="0" flags="0x1204"/>
    </TTGlyph>
    <TTGlyph name="Umacron" xMin="85" yMin="-39" xMax="1467" yMax="1968">
      <component glyphName=".ttfautohint" x="85" y="0" flags="0x0"/>
      <component glyphName="macron" x="272" y="1071" flags="0x1004"/>
      <component glyphName="U" x="0" y="0" flags="0x1204"/>
    </TTGlyph>
    <TTGlyph name="Uogonek" xMin="85" yMin="-658" xMax="1467" yMax="1595">
      <component glyphName=".ttfautohint" x="85" y="0" flags="0x0"/>
      <component glyphName="ogonek" x="363" y="44" flags="0x1004"/>
      <component glyphName="U" x="0" y="0" flags="0x1204"/>
    </TTGlyph>
    <TTGlyph name="Uring" xMin="85" yMin="-39" xMax="1467" yMax="2379">
      <component glyphName=".ttfautohint" x="85" y="0" flags="0x0"/>
      <component glyphName="ring" x="371" y="1627" flags="0x1004"/>
      <component glyphName="U" x="0" y="0" flags="0x1204"/>
    </TTGlyph>
    <TTGlyph name="Utilde" xMin="85" yMin="-39" xMax="1467" yMax="2313">
      <component glyphName=".ttfautohint" x="85" y="0" flags="0x0"/>
      <component glyphName="tilde" x="57" y="1667" flags="0x1004"/>
      <component glyphName="U" x="0" y="0" flags="0x1204"/>
    </TTGlyph>
    <TTGlyph name="V" xMin="8" yMin="0" xMax="1486" yMax="1595">
      <contour>
        <pt x="745" y="412" on="1"/>
        <pt x="756" y="412" on="1"/>
        <pt x="894" y="1595" on="1"/>
        <pt x="1486" y="1595" on="1"/>
        <pt x="1168" y="0" on="1"/>
        <pt x="326" y="0" on="1"/>
        <pt x="8" y="1595" on="1"/>
        <pt x="599" y="1595" on="1"/>
      </contour>
    </TTGlyph>
    <TTGlyph name="W" xMin="31" yMin="0" xMax="2028" yMax="1595">
      <contour>
        <pt x="1396" y="624" on="1"/>
        <pt x="1410" y="626" on="1"/>
        <pt x="1517" y="1595" on="1"/>
        <pt x="2028" y="1595" on="1"/>
        <pt x="1809" y="0" on="1"/>
        <pt x="1167" y="0" on="1"/>
        <pt x="1020" y="927" on="1"/>
        <pt x="1009" y="927" on="1"/>
        <pt x="862" y="0" on="1"/>
        <pt x="240" y="0" on="1"/>
        <pt x="31" y="1595" on="1"/>
        <pt x="594" y="1595" on="1"/>
        <pt x="669" y="624" on="1"/>
        <pt x="682" y="624" on="1"/>
        <pt x="798" y="1595" on="1"/>
        <pt x="1277" y="1595" on="1"/>
      </contour>
    </TTGlyph>
    <TTGlyph name="X" xMin="15" yMin="0" xMax="1478" yMax="1595">
      <contour>
        <pt x="563" y="0" on="1"/>
        <pt x="15" y="0" on="1"/>
        <pt x="322" y="802" on="1"/>
        <pt x="15" y="1595" on="1"/>
        <pt x="567" y="1595" on="1"/>
        <pt x="740" y="1081" on="1"/>
        <pt x="749" y="1081" on="1"/>
        <pt x="927" y="1595" on="1"/>
        <pt x="1478" y="1595" on="1"/>
        <pt x="1168" y="802" on="1"/>
        <pt x="1478" y="0" on="1"/>
        <pt x="923" y="0" on="1"/>
        <pt x="745" y="514" on="1"/>
        <pt x="736" y="514" on="1"/>
      </contour>
    </TTGlyph>
    <TTGlyph name="Y" xMin="-3" yMin="0" xMax="1489" yMax="1595">
      <contour>
        <pt x="738" y="955" on="1"/>
        <pt x="747" y="955" on="1"/>
        <pt x="933" y="1595" on="1"/>
        <pt x="1489" y="1595" on="1"/>
        <pt x="1047" y="529" on="1"/>
        <pt x="1047" y="0" on="1"/>
        <pt x="442" y="0" on="1"/>
        <pt x="442" y="539" on="1"/>
        <pt x="-3" y="1595" on="1"/>
        <pt x="557" y="1595" on="1"/>
      </contour>
    </TTGlyph>
    <TTGlyph name="Yacute" xMin="-3" yMin="0" xMax="1489" yMax="2296">
      <component glyphName=".ttfautohint" x="0" y="0" flags="0x0"/>
      <component glyphName="acute" x="639" y="366" flags="0x1004"/>
      <component glyphName="Y" x="0" y="0" flags="0x1204"/>
    </TTGlyph>
    <TTGlyph name="Ydieresis" xMin="-3" yMin="0" xMax="1489" yMax="2073">
      <component glyphName=".ttfautohint" x="0" y="0" flags="0x0"/>
      <component glyphName="dieresis" x="93" y="1655" flags="0x1004"/>
      <component glyphName="Y" x="0" y="0" flags="0x1204"/>
    </TTGlyph>
    <TTGlyph name="Z" xMin="49" yMin="0" xMax="1063" yMax="1595">
      <contour>
        <pt x="1013" y="1595" on="1"/>
        <pt x="1006" y="1342" on="1"/>
        <pt x="712" y="294" on="1"/>
        <pt x="1063" y="294" on="1"/>
        <pt x="1053" y="0" on="1"/>
        <pt x="101" y="0" on="1"/>
        <pt x="101" y="266" on="1"/>
        <pt x="421" y="1304" on="1"/>
        <pt x="65" y="1304" on="1"/>
        <pt x="49" y="1595" on="1"/>
      </contour>
    </TTGlyph>
    <TTGlyph name="Zacute" xMin="49" yMin="0" xMax="1284" yMax="2296">
      <component glyphName=".ttfautohint" x="49" y="0" flags="0x0"/>
      <component glyphName="acute" x="452" y="366" flags="0x1004"/>
      <component glyphName="Z" x="0" y="0" flags="0x1204"/>
    </TTGlyph>
    <TTGlyph name="Zcaron" xMin="49" yMin="0" xMax="1063" yMax="2334">
      <component glyphName=".ttfautohint" x="49" y="0" flags="0x0"/>
      <component glyphName="caron" x="79" y="326" flags="0x1004"/>
      <component glyphName="Z" x="0" y="0" flags="0x1204"/>
    </TTGlyph>
    <TTGlyph name="Zdotaccent" xMin="49" yMin="0" xMax="1063" yMax="2157">
      <component glyphName=".ttfautohint" x="49" y="0" flags="0x0"/>
      <component glyphName="uni0307" x="216" y="521" flags="0x1004"/>
      <component glyphName="Z" x="0" y="0" flags="0x1204"/>
    </TTGlyph>
    <TTGlyph name="a" xMin="57" yMin="-30" xMax="1394" yMax="1327">
      <contour>
        <pt x="629" y="653" on="1"/>
        <pt x="629" y="200" on="1"/>
        <pt x="795" y="200" on="1"/>
        <pt x="795" y="653" on="1"/>
      </contour>
      <contour>
        <pt x="1365" y="257" on="1"/>
        <pt x="1366" y="129" on="0"/>
        <pt x="1394" y="1" on="1"/>
        <pt x="874" y="1" on="1"/>
        <pt x="818" y="139" on="1"/>
        <pt x="770" y="60" on="0"/>
        <pt x="597" y="-30" on="0"/>
        <pt x="478" y="-30" on="1"/>
        <pt x="265" y="-30" on="0"/>
        <pt x="57" y="177" on="0"/>
        <pt x="57" y="388" on="1"/>
        <pt x="57" y="613" on="0"/>
        <pt x="293" y="824" on="0"/>
        <pt x="529" y="824" on="1"/>
        <pt x="670" y="824" on="0"/>
        <pt x="795" y="783" on="1"/>
        <pt x="795" y="1106" on="1"/>
        <pt x="656" y="1106" on="1"/>
        <pt x="656" y="915" on="1"/>
        <pt x="131" y="895" on="1"/>
        <pt x="120" y="959" on="0"/>
        <pt x="120" y="1005" on="1"/>
        <pt x="120" y="1067" on="0"/>
        <pt x="163" y="1167" on="0"/>
        <pt x="232" y="1233" on="0"/>
        <pt x="336" y="1281" on="0"/>
        <pt x="436" y="1308" on="0"/>
        <pt x="566" y="1323" on="0"/>
        <pt x="664" y="1327" on="0"/>
        <pt x="724" y="1327" on="1"/>
        <pt x="782" y="1327" on="0"/>
        <pt x="872" y="1325" on="0"/>
        <pt x="984" y="1316" on="0"/>
        <pt x="1070" y="1300" on="0"/>
        <pt x="1165" y="1272" on="0"/>
        <pt x="1234" y="1234" on="0"/>
        <pt x="1299" y="1177" on="0"/>
        <pt x="1340" y="1105" on="0"/>
        <pt x="1365" y="1009" on="0"/>
        <pt x="1365" y="952" on="1"/>
      </contour>
    </TTGlyph>
    <TTGlyph name="aacute" xMin="57" yMin="-30" xMax="1454" yMax="1988">
      <component glyphName=".ttfautohint" x="57" y="0" flags="0x0"/>
      <component glyphName="acute" x="622" y="58" flags="0x1004"/>
      <component glyphName="a" x="0" y="0" flags="0x1204"/>
    </TTGlyph>
    <TTGlyph name="abreve" xMin="57" yMin="-30" xMax="1394" yMax="1910">
      <component glyphName=".ttfautohint" x="57" y="0" flags="0x0"/>
      <component glyphName="breve" x="188" y="31" flags="0x1004"/>
      <component glyphName="a" x="0" y="0" flags="0x1204"/>
    </TTGlyph>
    <TTGlyph name="acircumflex" xMin="57" yMin="-30" xMax="1394" yMax="2026">
      <component glyphName=".ttfautohint" x="57" y="0" flags="0x0"/>
      <component glyphName="circumflex" x="248" y="18" flags="0x1004"/>
      <component glyphName="a" x="0" y="0" flags="0x1204"/>
    </TTGlyph>
    <TTGlyph name="acute" xMin="25" yMin="1371" xMax="832" yMax="1930">
      <contour>
        <pt x="59" y="1480" on="1"/>
        <pt x="94" y="1512" on="0"/>
        <pt x="274" y="1679" on="0"/>
        <pt x="373" y="1770" on="0"/>
        <pt x="498" y="1873" on="0"/>
        <pt x="533" y="1893" on="1"/>
        <pt x="597" y="1930" on="0"/>
        <pt x="658" y="1930" on="1"/>
        <pt x="733" y="1930" on="0"/>
        <pt x="832" y="1825" on="0"/>
        <pt x="832" y="1752" on="1"/>
        <pt x="832" y="1700" on="0"/>
        <pt x="774" y="1604" on="0"/>
        <pt x="716" y="1570" on="1"/>
        <pt x="680" y="1549" on="0"/>
        <pt x="528" y="1495" on="0"/>
        <pt x="391" y="1454" on="0"/>
        <pt x="171" y="1392" on="0"/>
        <pt x="120" y="1376" on="1"/>
        <pt x="106" y="1371" on="0"/>
        <pt x="88" y="1371" on="1"/>
        <pt x="61" y="1371" on="0"/>
        <pt x="25" y="1399" on="0"/>
        <pt x="25" y="1420" on="1"/>
        <pt x="25" y="1450" on="0"/>
      </contour>
    </TTGlyph>
    <TTGlyph name="adieresis" xMin="57" yMin="-30" xMax="1394" yMax="1765">
      <component glyphName=".ttfautohint" x="57" y="0" flags="0x0"/>
      <component glyphName="dieresis" x="76" y="1347" flags="0x1004"/>
      <component glyphName="a" x="0" y="0" flags="0x1204"/>
    </TTGlyph>
    <TTGlyph name="ae" xMin="69" yMin="-36" xMax="2075" yMax="1345">
      <contour>
        <pt x="1359" y="801" on="1"/>
        <pt x="1503" y="801" on="1"/>
        <pt x="1503" y="1055" on="1"/>
        <pt x="1359" y="1055" on="1"/>
      </contour>
      <contour>
        <pt x="637" y="604" on="1"/>
        <pt x="637" y="252" on="1"/>
        <pt x="787" y="252" on="1"/>
        <pt x="787" y="604" on="1"/>
      </contour>
      <contour>
        <pt x="129" y="1004" on="1"/>
        <pt x="129" y="1066" on="0"/>
        <pt x="164" y="1165" on="0"/>
        <pt x="224" y="1235" on="0"/>
        <pt x="315" y="1287" on="0"/>
        <pt x="413" y="1318" on="0"/>
        <pt x="539" y="1337" on="0"/>
        <pt x="655" y="1343" on="0"/>
        <pt x="725" y="1343" on="1"/>
        <pt x="961" y="1343" on="0"/>
        <pt x="1074" y="1261" on="1"/>
        <pt x="1072" y="1263" on="1"/>
        <pt x="1197" y="1345" on="0"/>
        <pt x="1431" y="1345" on="1"/>
        <pt x="1719" y="1345" on="0"/>
        <pt x="1877" y="1279" on="1"/>
        <pt x="1981" y="1235" on="0"/>
        <pt x="2075" y="1089" on="0"/>
        <pt x="2075" y="956" on="1"/>
        <pt x="2075" y="606" on="1"/>
        <pt x="1359" y="606" on="1"/>
        <pt x="1359" y="252" on="1"/>
        <pt x="1503" y="252" on="1"/>
        <pt x="1503" y="501" on="1"/>
        <pt x="2074" y="501" on="1"/>
        <pt x="2074" y="354" on="1"/>
        <pt x="2073" y="283" on="0"/>
        <pt x="2036" y="168" on="0"/>
        <pt x="1975" y="88" on="0"/>
        <pt x="1880" y="28" on="0"/>
        <pt x="1777" y="-7" on="0"/>
        <pt x="1640" y="-29" on="0"/>
        <pt x="1509" y="-36" on="0"/>
        <pt x="1427" y="-36" on="1"/>
        <pt x="1223" y="-36" on="0"/>
        <pt x="1079" y="77" on="1"/>
        <pt x="882" y="-36" on="0"/>
        <pt x="577" y="-36" on="1"/>
        <pt x="339" y="-36" on="0"/>
        <pt x="69" y="173" on="0"/>
        <pt x="69" y="388" on="1"/>
        <pt x="69" y="613" on="0"/>
        <pt x="303" y="824" on="0"/>
        <pt x="538" y="824" on="1"/>
        <pt x="674" y="824" on="0"/>
        <pt x="787" y="783" on="1"/>
        <pt x="787" y="1054" on="1"/>
        <pt x="664" y="1054" on="1"/>
        <pt x="664" y="915" on="1"/>
        <pt x="576" y="912" on="0"/>
        <pt x="228" y="898" on="0"/>
        <pt x="140" y="894" on="1"/>
        <pt x="129" y="958" on="0"/>
      </contour>
    </TTGlyph>
    <TTGlyph name="agrave" xMin="-3" yMin="-30" xMax="1394" yMax="1988">
      <component glyphName=".ttfautohint" x="0" y="0" flags="0x0"/>
      <component glyphName="grave" x="-44" y="58" flags="0x1004"/>
      <component glyphName="a" x="0" y="0" flags="0x1204"/>
    </TTGlyph>
    <TTGlyph name="amacron" xMin="57" yMin="-30" xMax="1394" yMax="1660">
      <component glyphName=".ttfautohint" x="57" y="0" flags="0x0"/>
      <component glyphName="macron" x="222" y="763" flags="0x1004"/>
      <component glyphName="a" x="0" y="0" flags="0x1204"/>
    </TTGlyph>
    <TTGlyph name="ampersand" xMin="84" yMin="-40" xMax="1593" yMax="1632">
      <contour>
        <pt x="359" y="861" on="1"/>
        <pt x="247" y="873" on="1"/>
        <pt x="219" y="876" on="0"/>
        <pt x="166" y="912" on="0"/>
        <pt x="115" y="983" on="0"/>
        <pt x="84" y="1113" on="0"/>
        <pt x="84" y="1198" on="1"/>
        <pt x="84" y="1281" on="0"/>
        <pt x="129" y="1413" on="0"/>
        <pt x="201" y="1502" on="0"/>
        <pt x="315" y="1568" on="0"/>
        <pt x="431" y="1604" on="0"/>
        <pt x="588" y="1626" on="0"/>
        <pt x="720" y="1632" on="0"/>
        <pt x="806" y="1632" on="1"/>
        <pt x="1125" y="1632" on="0"/>
        <pt x="1442" y="1446" on="0"/>
        <pt x="1442" y="1238" on="1"/>
        <pt x="1442" y="1209" on="0"/>
        <pt x="1438" y="1184" on="1"/>
        <pt x="893" y="1184" on="1"/>
        <pt x="893" y="1392" on="1"/>
        <pt x="687" y="1392" on="1"/>
        <pt x="687" y="929" on="1"/>
        <pt x="896" y="929" on="1"/>
        <pt x="896" y="1068" on="1"/>
        <pt x="1442" y="1068" on="1"/>
        <pt x="1442" y="929" on="1"/>
        <pt x="1593" y="929" on="1"/>
        <pt x="1593" y="736" on="1"/>
        <pt x="1442" y="736" on="1"/>
        <pt x="1442" y="513" on="1"/>
        <pt x="1442" y="400" on="0"/>
        <pt x="1418" y="239" on="0"/>
        <pt x="1357" y="111" on="0"/>
        <pt x="1261" y="33" on="0"/>
        <pt x="1106" y="-20" on="0"/>
        <pt x="906" y="-40" on="0"/>
        <pt x="766" y="-40" on="1"/>
        <pt x="671" y="-40" on="0"/>
        <pt x="529" y="-31" on="0"/>
        <pt x="380" y="-6" on="0"/>
        <pt x="274" y="39" on="0"/>
        <pt x="178" y="113" on="0"/>
        <pt x="119" y="217" on="0"/>
        <pt x="85" y="363" on="0"/>
        <pt x="85" y="456" on="1"/>
        <pt x="85" y="503" on="0"/>
        <pt x="102" y="612" on="0"/>
        <pt x="138" y="725" on="0"/>
        <pt x="204" y="804" on="0"/>
        <pt x="247" y="809" on="1"/>
        <pt x="359" y="822" on="1"/>
      </contour>
      <contour>
        <pt x="896" y="224" on="1"/>
        <pt x="896" y="736" on="1"/>
        <pt x="687" y="736" on="1"/>
        <pt x="687" y="224" on="1"/>
      </contour>
    </TTGlyph>
    <TTGlyph name="aogonek" xMin="57" yMin="-631" xMax="1394" yMax="1327">
      <component glyphName=".ttfautohint" x="57" y="0" flags="0x0"/>
      <component glyphName="ogonek" x="445" y="71" flags="0x1004"/>
      <component glyphName="a" x="0" y="0" flags="0x1004"/>
    </TTGlyph>
    <TTGlyph name="aring" xMin="57" yMin="-30" xMax="1394" yMax="2071">
      <component glyphName=".ttfautohint" x="57" y="0" flags="0x0"/>
      <component glyphName="ring" x="320" y="1319" flags="0x1004"/>
      <component glyphName="a" x="0" y="0" flags="0x1204"/>
    </TTGlyph>
    <TTGlyph name="asciicircum" xMin="46" yMin="61" xMax="1179" yMax="676">
      <contour>
        <pt x="896" y="676" on="1"/>
        <pt x="1179" y="61" on="1"/>
        <pt x="698" y="61" on="1"/>
        <pt x="610" y="381" on="1"/>
        <pt x="526" y="61" on="1"/>
        <pt x="46" y="61" on="1"/>
        <pt x="318" y="676" on="1"/>
      </contour>
    </TTGlyph>
    <TTGlyph name="asciitilde" xMin="73" yMin="616" xMax="1354" yMax="1201">
      <contour>
        <pt x="1057" y="642" on="1"/>
        <pt x="1057" y="713" on="0"/>
        <pt x="1005" y="806" on="0"/>
        <pt x="950" y="806" on="1"/>
        <pt x="905" y="806" on="0"/>
        <pt x="817" y="767" on="0"/>
        <pt x="741" y="711" on="0"/>
        <pt x="659" y="655" on="0"/>
        <pt x="545" y="616" on="0"/>
        <pt x="480" y="616" on="1"/>
        <pt x="396" y="616" on="0"/>
        <pt x="265" y="657" on="0"/>
        <pt x="177" y="737" on="0"/>
        <pt x="117" y="836" on="0"/>
        <pt x="86" y="968" on="0"/>
        <pt x="73" y="1097" on="0"/>
        <pt x="73" y="1176" on="1"/>
        <pt x="369" y="1176" on="1"/>
        <pt x="369" y="1008" on="0"/>
        <pt x="481" y="1008" on="1"/>
        <pt x="533" y="1008" on="0"/>
        <pt x="633" y="1048" on="0"/>
        <pt x="720" y="1104" on="0"/>
        <pt x="812" y="1161" on="0"/>
        <pt x="938" y="1201" on="0"/>
        <pt x="1008" y="1201" on="1"/>
        <pt x="1083" y="1201" on="0"/>
        <pt x="1195" y="1168" on="0"/>
        <pt x="1271" y="1098" on="0"/>
        <pt x="1319" y="1009" on="0"/>
        <pt x="1345" y="874" on="0"/>
        <pt x="1354" y="737" on="0"/>
        <pt x="1354" y="642" on="1"/>
      </contour>
    </TTGlyph>
    <TTGlyph name="asterisk" xMin="73" yMin="430" xMax="1254" yMax="1497">
      <contour>
        <pt x="775" y="489" on="1"/>
        <pt x="765" y="506" on="0"/>
        <pt x="743" y="559" on="0"/>
        <pt x="717" y="645" on="0"/>
        <pt x="701" y="699" on="0"/>
        <pt x="668" y="820" on="0"/>
        <pt x="663" y="840" on="1"/>
        <pt x="654" y="808" on="0"/>
        <pt x="630" y="718" on="0"/>
        <pt x="616" y="663" on="0"/>
        <pt x="595" y="591" on="0"/>
        <pt x="578" y="548" on="0"/>
        <pt x="556" y="497" on="0"/>
        <pt x="533" y="468" on="0"/>
        <pt x="504" y="441" on="0"/>
        <pt x="470" y="430" on="0"/>
        <pt x="450" y="430" on="1"/>
        <pt x="388" y="430" on="0"/>
        <pt x="282" y="523" on="0"/>
        <pt x="282" y="581" on="1"/>
        <pt x="282" y="594" on="0"/>
        <pt x="290" y="621" on="0"/>
        <pt x="310" y="653" on="0"/>
        <pt x="329" y="682" on="0"/>
        <pt x="366" y="722" on="0"/>
        <pt x="393" y="751" on="0"/>
        <pt x="443" y="799" on="0"/>
        <pt x="474" y="828" on="0"/>
        <pt x="535" y="884" on="0"/>
        <pt x="551" y="899" on="1"/>
        <pt x="537" y="895" on="0"/>
        <pt x="464" y="874" on="0"/>
        <pt x="431" y="865" on="0"/>
        <pt x="366" y="848" on="0"/>
        <pt x="331" y="839" on="0"/>
        <pt x="279" y="827" on="0"/>
        <pt x="246" y="821" on="0"/>
        <pt x="211" y="817" on="0"/>
        <pt x="198" y="817" on="1"/>
        <pt x="138" y="817" on="0"/>
        <pt x="73" y="902" on="0"/>
        <pt x="73" y="962" on="1"/>
        <pt x="73" y="1023" on="0"/>
        <pt x="140" y="1112" on="0"/>
        <pt x="199" y="1112" on="1"/>
        <pt x="219" y="1112" on="0"/>
        <pt x="276" y="1103" on="0"/>
        <pt x="359" y="1082" on="0"/>
        <pt x="415" y="1066" on="0"/>
        <pt x="529" y="1033" on="0"/>
        <pt x="551" y="1027" on="1"/>
        <pt x="533" y="1044" on="0"/>
        <pt x="473" y="1101" on="0"/>
        <pt x="441" y="1133" on="0"/>
        <pt x="391" y="1181" on="0"/>
        <pt x="364" y="1211" on="0"/>
        <pt x="328" y="1251" on="0"/>
        <pt x="309" y="1280" on="0"/>
        <pt x="290" y="1311" on="0"/>
        <pt x="282" y="1339" on="0"/>
        <pt x="282" y="1351" on="1"/>
        <pt x="282" y="1409" on="0"/>
        <pt x="387" y="1497" on="0"/>
        <pt x="450" y="1497" on="1"/>
        <pt x="519" y="1497" on="0"/>
        <pt x="553" y="1440" on="1"/>
        <pt x="564" y="1422" on="0"/>
        <pt x="585" y="1368" on="0"/>
        <pt x="612" y="1276" on="0"/>
        <pt x="625" y="1228" on="0"/>
        <pt x="659" y="1095" on="0"/>
        <pt x="663" y="1080" on="1"/>
        <pt x="669" y="1104" on="0"/>
        <pt x="700" y="1221" on="0"/>
        <pt x="716" y="1281" on="0"/>
        <pt x="741" y="1366" on="0"/>
        <pt x="763" y="1422" on="0"/>
        <pt x="774" y="1440" on="1"/>
        <pt x="808" y="1497" on="0"/>
        <pt x="877" y="1497" on="1"/>
        <pt x="939" y="1497" on="0"/>
        <pt x="1045" y="1409" on="0"/>
        <pt x="1045" y="1351" on="1"/>
        <pt x="1045" y="1335" on="0"/>
        <pt x="1032" y="1300" on="0"/>
        <pt x="1000" y="1255" on="0"/>
        <pt x="971" y="1219" on="0"/>
        <pt x="912" y="1160" on="0"/>
        <pt x="874" y="1122" on="0"/>
        <pt x="796" y="1047" on="0"/>
        <pt x="775" y="1027" on="1"/>
        <pt x="795" y="1033" on="0"/>
        <pt x="912" y="1067" on="0"/>
        <pt x="967" y="1081" on="0"/>
        <pt x="1051" y="1103" on="0"/>
        <pt x="1108" y="1112" on="0"/>
        <pt x="1128" y="1112" on="1"/>
        <pt x="1187" y="1112" on="0"/>
        <pt x="1254" y="1023" on="0"/>
        <pt x="1254" y="962" on="1"/>
        <pt x="1254" y="902" on="0"/>
        <pt x="1189" y="817" on="0"/>
        <pt x="1128" y="817" on="1"/>
        <pt x="1108" y="817" on="0"/>
        <pt x="1053" y="826" on="0"/>
        <pt x="968" y="846" on="0"/>
        <pt x="913" y="861" on="0"/>
        <pt x="796" y="893" on="0"/>
        <pt x="775" y="899" on="1"/>
        <pt x="792" y="883" on="0"/>
        <pt x="850" y="829" on="0"/>
        <pt x="883" y="798" on="0"/>
        <pt x="932" y="751" on="0"/>
        <pt x="960" y="721" on="0"/>
        <pt x="996" y="681" on="0"/>
        <pt x="1016" y="653" on="0"/>
        <pt x="1036" y="621" on="0"/>
        <pt x="1044" y="593" on="0"/>
        <pt x="1044" y="581" on="1"/>
        <pt x="1044" y="522" on="0"/>
        <pt x="939" y="430" on="0"/>
        <pt x="877" y="430" on="1"/>
        <pt x="810" y="430" on="0"/>
      </contour>
    </TTGlyph>
    <TTGlyph name="at" xMin="74" yMin="-393" xMax="2133" yMax="1741">
      <contour>
        <pt x="1081" y="641" on="1"/>
        <pt x="1081" y="336" on="1"/>
        <pt x="1174" y="336" on="1"/>
        <pt x="1174" y="641" on="1"/>
      </contour>
      <contour>
        <pt x="1553" y="88" on="1"/>
        <pt x="1291" y="93" on="0"/>
        <pt x="1202" y="239" on="1"/>
        <pt x="1101" y="113" on="0"/>
        <pt x="950" y="113" on="1"/>
        <pt x="785" y="113" on="0"/>
        <pt x="618" y="253" on="0"/>
        <pt x="613" y="405" on="1"/>
        <pt x="612" y="435" on="0"/>
        <pt x="612" y="493" on="1"/>
        <pt x="612" y="674" on="0"/>
        <pt x="770" y="836" on="0"/>
        <pt x="950" y="836" on="1"/>
        <pt x="1100" y="836" on="0"/>
        <pt x="1175" y="788" on="1"/>
        <pt x="1175" y="1022" on="1"/>
        <pt x="1116" y="1022" on="1"/>
        <pt x="1116" y="887" on="1"/>
        <pt x="664" y="887" on="1"/>
        <pt x="664" y="898" on="0"/>
        <pt x="663" y="944" on="0"/>
        <pt x="663" y="956" on="1"/>
        <pt x="663" y="1029" on="0"/>
        <pt x="710" y="1134" on="0"/>
        <pt x="788" y="1198" on="0"/>
        <pt x="913" y="1235" on="0"/>
        <pt x="1047" y="1248" on="0"/>
        <pt x="1138" y="1248" on="1"/>
        <pt x="1320" y="1248" on="0"/>
        <pt x="1520" y="1170" on="0"/>
        <pt x="1607" y="995" on="0"/>
        <pt x="1607" y="837" on="1"/>
        <pt x="1607" y="330" on="1"/>
        <pt x="1777" y="330" on="1"/>
        <pt x="1777" y="832" on="1"/>
        <pt x="1777" y="941" on="0"/>
        <pt x="1752" y="1108" on="0"/>
        <pt x="1707" y="1234" on="0"/>
        <pt x="1628" y="1322" on="0"/>
        <pt x="1534" y="1379" on="0"/>
        <pt x="1397" y="1412" on="0"/>
        <pt x="1251" y="1424" on="0"/>
        <pt x="1152" y="1424" on="1"/>
        <pt x="1005" y="1424" on="0"/>
        <pt x="784" y="1388" on="0"/>
        <pt x="623" y="1307" on="0"/>
        <pt x="517" y="1194" on="0"/>
        <pt x="454" y="1024" on="0"/>
        <pt x="428" y="825" on="0"/>
        <pt x="428" y="692" on="1"/>
        <pt x="428" y="529" on="0"/>
        <pt x="456" y="303" on="0"/>
        <pt x="532" y="130" on="0"/>
        <pt x="642" y="28" on="0"/>
        <pt x="830" y="-36" on="0"/>
        <pt x="1056" y="-58" on="0"/>
        <pt x="1222" y="-58" on="1"/>
        <pt x="1367" y="-58" on="0"/>
        <pt x="1704" y="22" on="1"/>
        <pt x="1762" y="-233" on="1"/>
        <pt x="1519" y="-393" on="0"/>
        <pt x="1240" y="-393" on="1"/>
        <pt x="1082" y="-393" on="0"/>
        <pt x="829" y="-371" on="0"/>
        <pt x="600" y="-320" on="0"/>
        <pt x="425" y="-238" on="0"/>
        <pt x="278" y="-116" on="0"/>
        <pt x="177" y="47" on="0"/>
        <pt x="107" y="260" on="0"/>
        <pt x="74" y="525" on="0"/>
        <pt x="74" y="687" on="1"/>
        <pt x="74" y="928" on="0"/>
        <pt x="163" y="1286" on="0"/>
        <pt x="332" y="1528" on="0"/>
        <pt x="598" y="1677" on="0"/>
        <pt x="929" y="1741" on="0"/>
        <pt x="1148" y="1741" on="1"/>
        <pt x="1412" y="1741" on="0"/>
        <pt x="1777" y="1649" on="0"/>
        <pt x="2021" y="1442" on="0"/>
        <pt x="2133" y="1115" on="0"/>
        <pt x="2133" y="878" on="1"/>
        <pt x="2133" y="771" on="0"/>
        <pt x="2121" y="601" on="0"/>
        <pt x="2088" y="432" on="0"/>
        <pt x="2032" y="307" on="0"/>
        <pt x="1944" y="197" on="0"/>
        <pt x="1823" y="127" on="0"/>
        <pt x="1657" y="88" on="0"/>
      </contour>
    </TTGlyph>
    <TTGlyph name="atilde" xMin="57" yMin="-30" xMax="1394" yMax="2005">
      <component glyphName=".ttfautohint" x="57" y="0" flags="0x0"/>
      <component glyphName="tilde" x="6" y="1359" flags="0x1004"/>
      <component glyphName="a" x="0" y="0" flags="0x1204"/>
    </TTGlyph>
    <TTGlyph name="b" xMin="101" yMin="-30" xMax="1410" yMax="1710">
      <contour>
        <pt x="672" y="199" on="1"/>
        <pt x="839" y="199" on="1"/>
        <pt x="839" y="1105" on="1"/>
        <pt x="672" y="1105" on="1"/>
      </contour>
      <contour>
        <pt x="993" y="-30" on="1"/>
        <pt x="884" y="-30" on="0"/>
        <pt x="703" y="47" on="0"/>
        <pt x="658" y="114" on="1"/>
        <pt x="621" y="0" on="1"/>
        <pt x="101" y="0" on="1"/>
        <pt x="101" y="1710" on="1"/>
        <pt x="672" y="1710" on="1"/>
        <pt x="672" y="1215" on="1"/>
        <pt x="769" y="1327" on="0"/>
        <pt x="996" y="1327" on="1"/>
        <pt x="1410" y="1327" on="0"/>
        <pt x="1410" y="940" on="1"/>
        <pt x="1410" y="377" on="1"/>
        <pt x="1410" y="-30" on="0"/>
      </contour>
    </TTGlyph>
    <TTGlyph name="backslash" xMin="113" yMin="0" xMax="939" yMax="1595">
      <contour>
        <pt x="587" y="1595" on="1"/>
        <pt x="939" y="0" on="1"/>
        <pt x="464" y="0" on="1"/>
        <pt x="113" y="1595" on="1"/>
      </contour>
    </TTGlyph>
    <TTGlyph name="bar" xMin="129" yMin="-100" xMax="700" yMax="1795">
      <contour>
        <pt x="700" y="1795" on="1"/>
        <pt x="700" y="-100" on="1"/>
        <pt x="129" y="-100" on="1"/>
        <pt x="129" y="1795" on="1"/>
      </contour>
    </TTGlyph>
    <TTGlyph name="braceleft" xMin="85" yMin="-330" xMax="1101" yMax="1925">
      <contour>
        <pt x="1100" y="1925" on="1"/>
        <pt x="1100" y="1646" on="1"/>
        <pt x="1009" y="1646" on="0"/>
        <pt x="879" y="1602" on="0"/>
        <pt x="806" y="1524" on="0"/>
        <pt x="763" y="1422" on="0"/>
        <pt x="747" y="1301" on="0"/>
        <pt x="741" y="1175" on="0"/>
        <pt x="731" y="1046" on="0"/>
        <pt x="709" y="932" on="0"/>
        <pt x="653" y="829" on="0"/>
        <pt x="609" y="796" on="1"/>
        <pt x="653" y="767" on="0"/>
        <pt x="709" y="670" on="0"/>
        <pt x="731" y="559" on="0"/>
        <pt x="741" y="430" on="0"/>
        <pt x="748" y="303" on="0"/>
        <pt x="763" y="180" on="0"/>
        <pt x="807" y="75" on="0"/>
        <pt x="880" y="-5" on="0"/>
        <pt x="1010" y="-51" on="0"/>
        <pt x="1101" y="-51" on="1"/>
        <pt x="1101" y="-330" on="1"/>
        <pt x="892" y="-330" on="0"/>
        <pt x="604" y="-262" on="0"/>
        <pt x="395" y="-101" on="0"/>
        <pt x="287" y="167" on="0"/>
        <pt x="273" y="366" on="1"/>
        <pt x="271" y="384" on="0"/>
        <pt x="265" y="446" on="0"/>
        <pt x="261" y="487" on="0"/>
        <pt x="251" y="542" on="0"/>
        <pt x="237" y="579" on="0"/>
        <pt x="210" y="619" on="0"/>
        <pt x="174" y="643" on="0"/>
        <pt x="120" y="658" on="0"/>
        <pt x="85" y="658" on="1"/>
        <pt x="85" y="937" on="1"/>
        <pt x="119" y="937" on="0"/>
        <pt x="173" y="952" on="0"/>
        <pt x="209" y="974" on="0"/>
        <pt x="236" y="1013" on="0"/>
        <pt x="250" y="1048" on="0"/>
        <pt x="261" y="1104" on="0"/>
        <pt x="265" y="1144" on="0"/>
        <pt x="272" y="1209" on="0"/>
        <pt x="274" y="1228" on="1"/>
        <pt x="309" y="1493" on="0"/>
        <pt x="494" y="1794" on="0"/>
        <pt x="825" y="1925" on="0"/>
      </contour>
    </TTGlyph>
    <TTGlyph name="braceright" xMin="58" yMin="-330" xMax="1074" yMax="1925">
      <contour>
        <pt x="59" y="1646" on="1"/>
        <pt x="59" y="1925" on="1"/>
        <pt x="334" y="1925" on="0"/>
        <pt x="665" y="1794" on="0"/>
        <pt x="850" y="1493" on="0"/>
        <pt x="885" y="1228" on="1"/>
        <pt x="887" y="1209" on="0"/>
        <pt x="894" y="1144" on="0"/>
        <pt x="898" y="1104" on="0"/>
        <pt x="909" y="1048" on="0"/>
        <pt x="923" y="1013" on="0"/>
        <pt x="950" y="974" on="0"/>
        <pt x="986" y="952" on="0"/>
        <pt x="1040" y="937" on="0"/>
        <pt x="1074" y="937" on="1"/>
        <pt x="1074" y="658" on="1"/>
        <pt x="1039" y="658" on="0"/>
        <pt x="985" y="643" on="0"/>
        <pt x="949" y="619" on="0"/>
        <pt x="922" y="579" on="0"/>
        <pt x="908" y="542" on="0"/>
        <pt x="898" y="487" on="0"/>
        <pt x="894" y="446" on="0"/>
        <pt x="888" y="384" on="0"/>
        <pt x="886" y="366" on="1"/>
        <pt x="872" y="167" on="0"/>
        <pt x="764" y="-101" on="0"/>
        <pt x="555" y="-262" on="0"/>
        <pt x="267" y="-330" on="0"/>
        <pt x="58" y="-330" on="1"/>
        <pt x="58" y="-51" on="1"/>
        <pt x="149" y="-51" on="0"/>
        <pt x="279" y="-5" on="0"/>
        <pt x="352" y="75" on="0"/>
        <pt x="396" y="180" on="0"/>
        <pt x="411" y="303" on="0"/>
        <pt x="418" y="430" on="0"/>
        <pt x="428" y="559" on="0"/>
        <pt x="450" y="670" on="0"/>
        <pt x="506" y="767" on="0"/>
        <pt x="550" y="796" on="1"/>
        <pt x="506" y="829" on="0"/>
        <pt x="450" y="932" on="0"/>
        <pt x="428" y="1046" on="0"/>
        <pt x="418" y="1175" on="0"/>
        <pt x="412" y="1301" on="0"/>
        <pt x="396" y="1422" on="0"/>
        <pt x="353" y="1524" on="0"/>
        <pt x="280" y="1602" on="0"/>
        <pt x="150" y="1646" on="0"/>
      </contour>
    </TTGlyph>
    <TTGlyph name="bracketleft" xMin="100" yMin="-319" xMax="1075" yMax="1819">
      <contour>
        <pt x="100" y="1819" on="1"/>
        <pt x="1075" y="1819" on="1"/>
        <pt x="1075" y="1578" on="1"/>
        <pt x="734" y="1578" on="1"/>
        <pt x="734" y="-77" on="1"/>
        <pt x="1075" y="-77" on="1"/>
        <pt x="1075" y="-319" on="1"/>
        <pt x="100" y="-319" on="1"/>
      </contour>
    </TTGlyph>
    <TTGlyph name="bracketright" xMin="35" yMin="-319" xMax="1010" yMax="1819">
      <contour>
        <pt x="1010" y="-319" on="1"/>
        <pt x="35" y="-319" on="1"/>
        <pt x="35" y="-77" on="1"/>
        <pt x="376" y="-77" on="1"/>
        <pt x="376" y="1578" on="1"/>
        <pt x="35" y="1578" on="1"/>
        <pt x="35" y="1819" on="1"/>
        <pt x="1010" y="1819" on="1"/>
      </contour>
    </TTGlyph>
    <TTGlyph name="breve" xMin="75" yMin="1398" xMax="999" yMax="1879">
      <contour>
        <pt x="649" y="1398" on="0"/>
        <pt x="425" y="1398" on="0"/>
        <pt x="260" y="1445" on="0"/>
        <pt x="158" y="1525" on="0"/>
        <pt x="97" y="1651" on="0"/>
        <pt x="75" y="1788" on="0"/>
        <pt x="75" y="1879" on="1"/>
        <pt x="372" y="1879" on="1"/>
        <pt x="372" y="1831" on="0"/>
        <pt x="380" y="1778" on="0"/>
        <pt x="411" y="1724" on="0"/>
        <pt x="480" y="1701" on="0"/>
        <pt x="594" y="1701" on="0"/>
        <pt x="663" y="1724" on="0"/>
        <pt x="694" y="1778" on="0"/>
        <pt x="702" y="1831" on="0"/>
        <pt x="702" y="1879" on="1"/>
        <pt x="999" y="1879" on="1"/>
        <pt x="999" y="1788" on="0"/>
        <pt x="977" y="1651" on="0"/>
        <pt x="916" y="1525" on="0"/>
        <pt x="814" y="1445" on="0"/>
      </contour>
    </TTGlyph>
    <TTGlyph name="brokenbar" xMin="131" yMin="-255" xMax="702" yMax="1708">
      <contour>
        <pt x="702" y="1708" on="1"/>
        <pt x="702" y="797" on="1"/>
        <pt x="131" y="797" on="1"/>
        <pt x="131" y="1708" on="1"/>
      </contour>
      <contour>
        <pt x="702" y="656" on="1"/>
        <pt x="702" y="-255" on="1"/>
        <pt x="131" y="-255" on="1"/>
        <pt x="131" y="656" on="1"/>
      </contour>
    </TTGlyph>
    <TTGlyph name="bullet" xMin="71" yMin="195" xMax="1053" yMax="1254">
      <contour>
        <pt x="1053" y="726" on="1"/>
        <pt x="1053" y="600" on="0"/>
        <pt x="1007" y="414" on="0"/>
        <pt x="901" y="269" on="0"/>
        <pt x="712" y="195" on="0"/>
        <pt x="577" y="195" on="1"/>
        <pt x="430" y="195" on="0"/>
        <pt x="232" y="262" on="0"/>
        <pt x="118" y="402" on="0"/>
        <pt x="71" y="591" on="0"/>
        <pt x="71" y="726" on="1"/>
        <pt x="71" y="1009" on="0"/>
        <pt x="305" y="1254" on="0"/>
        <pt x="579" y="1254" on="1"/>
        <pt x="830" y="1254" on="0"/>
        <pt x="1053" y="995" on="0"/>
      </contour>
    </TTGlyph>
    <TTGlyph name="c" xMin="74" yMin="-30" xMax="1385" yMax="1327">
      <contour>
        <pt x="1384" y="539" on="1"/>
        <pt x="1385" y="352" on="1"/>
        <pt x="1385" y="293" on="0"/>
        <pt x="1359" y="194" on="0"/>
        <pt x="1317" y="121" on="0"/>
        <pt x="1248" y="63" on="0"/>
        <pt x="1177" y="24" on="0"/>
        <pt x="1078" y="-4" on="0"/>
        <pt x="992" y="-19" on="0"/>
        <pt x="877" y="-28" on="0"/>
        <pt x="790" y="-30" on="0"/>
        <pt x="731" y="-30" on="1"/>
        <pt x="655" y="-30" on="0"/>
        <pt x="538" y="-25" on="0"/>
        <pt x="395" y="-7" on="0"/>
        <pt x="289" y="25" on="0"/>
        <pt x="183" y="83" on="0"/>
        <pt x="116" y="163" on="0"/>
        <pt x="74" y="281" on="0"/>
        <pt x="74" y="355" on="1"/>
        <pt x="74" y="955" on="1"/>
        <pt x="74" y="1013" on="0"/>
        <pt x="101" y="1110" on="0"/>
        <pt x="145" y="1181" on="0"/>
        <pt x="217" y="1237" on="0"/>
        <pt x="289" y="1275" on="0"/>
        <pt x="390" y="1302" on="0"/>
        <pt x="477" y="1317" on="0"/>
        <pt x="593" y="1325" on="0"/>
        <pt x="679" y="1327" on="0"/>
        <pt x="737" y="1327" on="1"/>
        <pt x="812" y="1327" on="0"/>
        <pt x="898" y="1325" on="0"/>
        <pt x="1053" y="1312" on="0"/>
        <pt x="1148" y="1287" on="0"/>
        <pt x="1268" y="1236" on="0"/>
        <pt x="1336" y="1163" on="0"/>
        <pt x="1384" y="1050" on="0"/>
        <pt x="1384" y="978" on="1"/>
        <pt x="1384" y="787" on="1"/>
        <pt x="813" y="787" on="1"/>
        <pt x="813" y="1105" on="1"/>
        <pt x="646" y="1105" on="1"/>
        <pt x="646" y="199" on="1"/>
        <pt x="813" y="199" on="1"/>
        <pt x="813" y="539" on="1"/>
      </contour>
    </TTGlyph>
    <TTGlyph name="cacute" xMin="74" yMin="-30" xMax="1458" yMax="1988">
      <component glyphName=".ttfautohint" x="74" y="0" flags="0x0"/>
      <component glyphName="acute" x="626" y="58" flags="0x1004"/>
      <component glyphName="c" x="0" y="0" flags="0x1204"/>
    </TTGlyph>
    <TTGlyph name="caron" xMin="54" yMin="1411" xMax="900" yMax="2008">
      <contour>
        <pt x="335" y="1483" on="1"/>
        <pt x="72" y="1892" on="1"/>
        <pt x="54" y="1920" on="0"/>
        <pt x="54" y="1944" on="1"/>
        <pt x="54" y="1971" on="0"/>
        <pt x="92" y="2006" on="0"/>
        <pt x="148" y="2006" on="0"/>
        <pt x="174" y="1986" on="1"/>
        <pt x="477" y="1751" on="1"/>
        <pt x="780" y="1986" on="1"/>
        <pt x="808" y="2008" on="0"/>
        <pt x="837" y="2008" on="1"/>
        <pt x="864" y="2008" on="0"/>
        <pt x="900" y="1972" on="0"/>
        <pt x="900" y="1945" on="1"/>
        <pt x="900" y="1920" on="0"/>
        <pt x="882" y="1892" on="1"/>
        <pt x="619" y="1483" on="1"/>
        <pt x="572" y="1411" on="0"/>
        <pt x="478" y="1411" on="1"/>
        <pt x="435" y="1411" on="0"/>
        <pt x="357" y="1448" on="0"/>
      </contour>
    </TTGlyph>
    <TTGlyph name="ccaron" xMin="74" yMin="-30" xMax="1385" yMax="2026">
      <component glyphName=".ttfautohint" x="74" y="0" flags="0x0"/>
      <component glyphName="caron" x="252" y="18" flags="0x1004"/>
      <component glyphName="c" x="0" y="0" flags="0x1204"/>
    </TTGlyph>
    <TTGlyph name="ccedilla" xMin="74" yMin="-495" xMax="1385" yMax="1327">
      <component glyphName=".ttfautohint" x="74" y="0" flags="0x0"/>
      <component glyphName="cedilla" x="257" y="-14" flags="0x1004"/>
      <component glyphName="c" x="0" y="0" flags="0x1204"/>
    </TTGlyph>
    <TTGlyph name="ccircumflex" xMin="74" yMin="-30" xMax="1385" yMax="2026">
      <component glyphName=".ttfautohint" x="74" y="0" flags="0x0"/>
      <component glyphName="circumflex" x="252" y="18" flags="0x1004"/>
      <component glyphName="c" x="0" y="0" flags="0x1204"/>
    </TTGlyph>
    <TTGlyph name="cdotaccent" xMin="74" yMin="-30" xMax="1385" yMax="1849">
      <component glyphName=".ttfautohint" x="74" y="0" flags="0x0"/>
      <component glyphName="uni0307" x="390" y="213" flags="0x1004"/>
      <component glyphName="c" x="0" y="0" flags="0x1204"/>
    </TTGlyph>
    <TTGlyph name="cedilla" xMin="284" yMin="-481" xMax="791" yMax="0">
      <contour>
        <pt x="384" y="0" on="1"/>
        <pt x="561" y="0" on="1"/>
        <pt x="561" y="-70" on="1"/>
        <pt x="675" y="-70" on="0"/>
        <pt x="791" y="-138" on="0"/>
        <pt x="791" y="-228" on="1"/>
        <pt x="791" y="-323" on="1"/>
        <pt x="791" y="-373" on="0"/>
        <pt x="753" y="-438" on="0"/>
        <pt x="679" y="-470" on="0"/>
        <pt x="597" y="-481" on="0"/>
        <pt x="538" y="-481" on="1"/>
        <pt x="412" y="-481" on="0"/>
        <pt x="284" y="-416" on="0"/>
        <pt x="284" y="-323" on="1"/>
        <pt x="284" y="-267" on="1"/>
        <pt x="511" y="-239" on="1"/>
        <pt x="511" y="-371" on="1"/>
        <pt x="574" y="-371" on="1"/>
        <pt x="574" y="-180" on="1"/>
        <pt x="384" y="-180" on="1"/>
      </contour>
    </TTGlyph>
    <TTGlyph name="cent" xMin="86" yMin="-74" xMax="1396" yMax="1578">
      <contour>
        <pt x="598" y="1119" on="1"/>
        <pt x="598" y="373" on="1"/>
        <pt x="706" y="373" on="1"/>
        <pt x="706" y="1119" on="1"/>
      </contour>
      <contour>
        <pt x="1396" y="633" on="1"/>
        <pt x="1396" y="523" on="1"/>
        <pt x="1396" y="467" on="0"/>
        <pt x="1373" y="373" on="0"/>
        <pt x="1333" y="302" on="0"/>
        <pt x="1271" y="245" on="0"/>
        <pt x="1204" y="206" on="0"/>
        <pt x="1115" y="177" on="0"/>
        <pt x="1032" y="161" on="0"/>
        <pt x="927" y="151" on="0"/>
        <pt x="840" y="147" on="0"/>
        <pt x="785" y="147" on="1"/>
        <pt x="785" y="-74" on="1"/>
        <pt x="706" y="-74" on="1"/>
        <pt x="706" y="147" on="1"/>
        <pt x="634" y="147" on="0"/>
        <pt x="520" y="154" on="0"/>
        <pt x="386" y="174" on="0"/>
        <pt x="286" y="207" on="0"/>
        <pt x="187" y="265" on="0"/>
        <pt x="125" y="343" on="0"/>
        <pt x="86" y="458" on="0"/>
        <pt x="86" y="529" on="1"/>
        <pt x="86" y="969" on="1"/>
        <pt x="86" y="1040" on="0"/>
        <pt x="127" y="1154" on="0"/>
        <pt x="191" y="1230" on="0"/>
        <pt x="293" y="1287" on="0"/>
        <pt x="394" y="1318" on="0"/>
        <pt x="528" y="1337" on="0"/>
        <pt x="637" y="1343" on="0"/>
        <pt x="706" y="1343" on="1"/>
        <pt x="706" y="1578" on="1"/>
        <pt x="785" y="1578" on="1"/>
        <pt x="785" y="1343" on="1"/>
        <pt x="845" y="1342" on="0"/>
        <pt x="945" y="1337" on="0"/>
        <pt x="1076" y="1318" on="0"/>
        <pt x="1178" y="1289" on="0"/>
        <pt x="1283" y="1235" on="0"/>
        <pt x="1352" y="1164" on="0"/>
        <pt x="1396" y="1058" on="0"/>
        <pt x="1396" y="992" on="1"/>
        <pt x="1396" y="881" on="1"/>
        <pt x="885" y="881" on="1"/>
        <pt x="885" y="1119" on="1"/>
        <pt x="785" y="1119" on="1"/>
        <pt x="785" y="373" on="1"/>
        <pt x="885" y="373" on="1"/>
        <pt x="885" y="633" on="1"/>
      </contour>
    </TTGlyph>
    <TTGlyph name="circumflex" xMin="54" yMin="1411" xMax="900" yMax="2008">
      <contour>
        <pt x="72" y="1527" on="1"/>
        <pt x="335" y="1936" on="1"/>
        <pt x="357" y="1971" on="0"/>
        <pt x="435" y="2008" on="0"/>
        <pt x="478" y="2008" on="1"/>
        <pt x="572" y="2008" on="0"/>
        <pt x="619" y="1936" on="1"/>
        <pt x="882" y="1527" on="1"/>
        <pt x="900" y="1498" on="0"/>
        <pt x="900" y="1474" on="1"/>
        <pt x="900" y="1447" on="0"/>
        <pt x="864" y="1411" on="0"/>
        <pt x="837" y="1411" on="1"/>
        <pt x="808" y="1411" on="0"/>
        <pt x="780" y="1433" on="1"/>
        <pt x="477" y="1668" on="1"/>
        <pt x="174" y="1433" on="1"/>
        <pt x="148" y="1413" on="0"/>
        <pt x="92" y="1413" on="0"/>
        <pt x="54" y="1448" on="0"/>
        <pt x="54" y="1475" on="1"/>
        <pt x="54" y="1498" on="0"/>
      </contour>
    </TTGlyph>
    <TTGlyph name="colon" xMin="141" yMin="113" xMax="549" yMax="1343">
      <contour>
        <pt x="141" y="1034" on="0"/>
        <pt x="141" y="1232" on="0"/>
        <pt x="262" y="1343" on="0"/>
        <pt x="428" y="1343" on="0"/>
        <pt x="549" y="1232" on="0"/>
        <pt x="549" y="1034" on="0"/>
        <pt x="428" y="923" on="0"/>
        <pt x="262" y="923" on="0"/>
      </contour>
      <contour>
        <pt x="141" y="224" on="0"/>
        <pt x="141" y="422" on="0"/>
        <pt x="262" y="533" on="0"/>
        <pt x="428" y="533" on="0"/>
        <pt x="549" y="422" on="0"/>
        <pt x="549" y="224" on="0"/>
        <pt x="428" y="113" on="0"/>
        <pt x="262" y="113" on="0"/>
      </contour>
    </TTGlyph>
    <TTGlyph name="comma" xMin="141" yMin="-234" xMax="555" yMax="409">
      <contour>
        <pt x="141" y="209" on="1"/>
        <pt x="141" y="303" on="0"/>
        <pt x="262" y="409" on="0"/>
        <pt x="345" y="409" on="1"/>
        <pt x="448" y="409" on="0"/>
        <pt x="555" y="273" on="0"/>
        <pt x="555" y="169" on="1"/>
        <pt x="555" y="99" on="0"/>
        <pt x="508" y="-42" on="0"/>
        <pt x="422" y="-160" on="0"/>
        <pt x="287" y="-234" on="0"/>
        <pt x="208" y="-234" on="1"/>
        <pt x="186" y="-234" on="0"/>
        <pt x="164" y="-231" on="1"/>
        <pt x="164" y="-122" on="1"/>
        <pt x="227" y="-121" on="0"/>
        <pt x="316" y="-56" on="0"/>
        <pt x="320" y="0" on="1"/>
        <pt x="245" y="8" on="0"/>
        <pt x="141" y="117" on="0"/>
      </contour>
    </TTGlyph>
    <TTGlyph name="commaaccent" xMin="-17" yMin="-738" xMax="397" yMax="-95">
      <contour>
        <pt x="-17" y="-295" on="1"/>
        <pt x="-17" y="-201" on="0"/>
        <pt x="104" y="-95" on="0"/>
        <pt x="187" y="-95" on="1"/>
        <pt x="290" y="-95" on="0"/>
        <pt x="397" y="-231" on="0"/>
        <pt x="397" y="-335" on="1"/>
        <pt x="397" y="-405" on="0"/>
        <pt x="350" y="-546" on="0"/>
        <pt x="264" y="-664" on="0"/>
        <pt x="129" y="-738" on="0"/>
        <pt x="50" y="-738" on="1"/>
        <pt x="28" y="-738" on="0"/>
        <pt x="6" y="-735" on="1"/>
        <pt x="6" y="-626" on="1"/>
        <pt x="69" y="-625" on="0"/>
        <pt x="158" y="-560" on="0"/>
        <pt x="162" y="-504" on="1"/>
        <pt x="87" y="-496" on="0"/>
        <pt x="-17" y="-387" on="0"/>
      </contour>
    </TTGlyph>
    <TTGlyph name="copyright" xMin="84" yMin="-101" xMax="1780" yMax="1749">
      <contour>
        <pt x="835" y="432" on="1"/>
        <pt x="1034" y="432" on="1"/>
        <pt x="1034" y="749" on="1"/>
        <pt x="1311" y="749" on="1"/>
        <pt x="1311" y="542" on="1"/>
        <pt x="1311" y="474" on="0"/>
        <pt x="1274" y="377" on="0"/>
        <pt x="1212" y="318" on="0"/>
        <pt x="1108" y="284" on="0"/>
        <pt x="995" y="272" on="0"/>
        <pt x="916" y="272" on="1"/>
        <pt x="828" y="272" on="0"/>
        <pt x="707" y="293" on="0"/>
        <pt x="605" y="351" on="0"/>
        <pt x="555" y="462" on="0"/>
        <pt x="555" y="547" on="1"/>
        <pt x="555" y="1107" on="1"/>
        <pt x="555" y="1190" on="0"/>
        <pt x="601" y="1300" on="0"/>
        <pt x="700" y="1359" on="0"/>
        <pt x="824" y="1381" on="0"/>
        <pt x="916" y="1381" on="1"/>
        <pt x="966" y="1381" on="0"/>
        <pt x="1035" y="1378" on="0"/>
        <pt x="1124" y="1366" on="0"/>
        <pt x="1185" y="1344" on="0"/>
        <pt x="1249" y="1304" on="0"/>
        <pt x="1287" y="1248" on="0"/>
        <pt x="1311" y="1164" on="0"/>
        <pt x="1311" y="1111" on="1"/>
        <pt x="1311" y="913" on="1"/>
        <pt x="1034" y="913" on="1"/>
        <pt x="1034" y="1222" on="1"/>
        <pt x="835" y="1222" on="1"/>
      </contour>
      <contour>
        <pt x="323" y="1114" on="1"/>
        <pt x="323" y="535" on="1"/>
        <pt x="323" y="399" on="0"/>
        <pt x="396" y="217" on="0"/>
        <pt x="554" y="111" on="0"/>
        <pt x="772" y="68" on="0"/>
        <pt x="932" y="68" on="1"/>
        <pt x="1047" y="68" on="0"/>
        <pt x="1227" y="91" on="0"/>
        <pt x="1383" y="149" on="0"/>
        <pt x="1484" y="242" on="0"/>
        <pt x="1541" y="386" on="0"/>
        <pt x="1541" y="482" on="1"/>
        <pt x="1541" y="1165" on="1"/>
        <pt x="1541" y="1263" on="0"/>
        <pt x="1479" y="1409" on="0"/>
        <pt x="1374" y="1498" on="0"/>
        <pt x="1214" y="1553" on="0"/>
        <pt x="1042" y="1573" on="0"/>
        <pt x="932" y="1573" on="1"/>
        <pt x="772" y="1573" on="0"/>
        <pt x="552" y="1530" on="0"/>
        <pt x="395" y="1425" on="0"/>
        <pt x="323" y="1247" on="0"/>
      </contour>
      <contour>
        <pt x="932" y="-101" on="1"/>
        <pt x="772" y="-101" on="0"/>
        <pt x="521" y="-64" on="0"/>
        <pt x="306" y="27" on="0"/>
        <pt x="164" y="171" on="0"/>
        <pt x="84" y="393" on="0"/>
        <pt x="84" y="539" on="1"/>
        <pt x="84" y="1116" on="1"/>
        <pt x="84" y="1225" on="0"/>
        <pt x="132" y="1405" on="0"/>
        <pt x="216" y="1535" on="0"/>
        <pt x="342" y="1633" on="0"/>
        <pt x="483" y="1695" on="0"/>
        <pt x="659" y="1734" on="0"/>
        <pt x="832" y="1749" on="0"/>
        <pt x="932" y="1749" on="1"/>
        <pt x="1091" y="1749" on="0"/>
        <pt x="1342" y="1713" on="0"/>
        <pt x="1558" y="1624" on="0"/>
        <pt x="1700" y="1481" on="0"/>
        <pt x="1780" y="1261" on="0"/>
        <pt x="1780" y="1116" on="1"/>
        <pt x="1780" y="539" on="1"/>
        <pt x="1780" y="386" on="0"/>
        <pt x="1687" y="156" on="0"/>
        <pt x="1534" y="17" on="0"/>
        <pt x="1309" y="-70" on="0"/>
        <pt x="1075" y="-101" on="0"/>
      </contour>
    </TTGlyph>
    <TTGlyph name="currency" xMin="68" yMin="188" xMax="1325" yMax="1414">
      <contour>
        <pt x="637" y="570" on="1"/>
        <pt x="749" y="570" on="1"/>
        <pt x="749" y="1070" on="1"/>
        <pt x="637" y="1070" on="1"/>
      </contour>
      <contour>
        <pt x="698" y="299" on="1"/>
        <pt x="489" y="301" on="0"/>
        <pt x="354" y="349" on="1"/>
        <pt x="206" y="189" on="1"/>
        <pt x="126" y="273" on="1"/>
        <pt x="244" y="401" on="1"/>
        <pt x="150" y="462" on="0"/>
        <pt x="68" y="651" on="0"/>
        <pt x="68" y="804" on="1"/>
        <pt x="68" y="963" on="0"/>
        <pt x="134" y="1167" on="0"/>
        <pt x="219" y="1229" on="1"/>
        <pt x="127" y="1330" on="1"/>
        <pt x="207" y="1414" on="1"/>
        <pt x="325" y="1286" on="1"/>
        <pt x="470" y="1343" on="0"/>
        <pt x="697" y="1343" on="1"/>
        <pt x="919" y="1343" on="0"/>
        <pt x="1065" y="1287" on="1"/>
        <pt x="1181" y="1414" on="1"/>
        <pt x="1262" y="1330" on="1"/>
        <pt x="1171" y="1231" on="1"/>
        <pt x="1259" y="1168" on="0"/>
        <pt x="1325" y="971" on="0"/>
        <pt x="1325" y="804" on="1"/>
        <pt x="1325" y="654" on="0"/>
        <pt x="1239" y="458" on="0"/>
        <pt x="1145" y="398" on="1"/>
        <pt x="1263" y="272" on="1"/>
        <pt x="1182" y="188" on="1"/>
        <pt x="1036" y="346" on="1"/>
        <pt x="894" y="299" on="0"/>
      </contour>
    </TTGlyph>
    <TTGlyph name="d" xMin="74" yMin="-30" xMax="1383" yMax="1710">
      <contour>
        <pt x="811" y="1105" on="1"/>
        <pt x="644" y="1105" on="1"/>
        <pt x="644" y="199" on="1"/>
        <pt x="811" y="199" on="1"/>
      </contour>
      <contour>
        <pt x="489" y="1327" on="1"/>
        <pt x="715" y="1327" on="0"/>
        <pt x="812" y="1215" on="1"/>
        <pt x="812" y="1710" on="1"/>
        <pt x="1383" y="1710" on="1"/>
        <pt x="1383" y="0" on="1"/>
        <pt x="863" y="0" on="1"/>
        <pt x="826" y="114" on="1"/>
        <pt x="779" y="48" on="0"/>
        <pt x="600" y="-30" on="0"/>
        <pt x="491" y="-30" on="1"/>
        <pt x="74" y="-30" on="0"/>
        <pt x="74" y="377" on="1"/>
        <pt x="74" y="940" on="1"/>
        <pt x="74" y="1327" on="0"/>
      </contour>
    </TTGlyph>
    <TTGlyph name="dagger" xMin="34" yMin="5" xMax="1025" yMax="1627">
      <contour>
        <pt x="713" y="1458" on="1"/>
        <pt x="713" y="1411" on="0"/>
        <pt x="669" y="1277" on="0"/>
        <pt x="626" y="1185" on="0"/>
        <pt x="584" y="1103" on="1"/>
        <pt x="599" y="1109" on="0"/>
        <pt x="695" y="1146" on="0"/>
        <pt x="744" y="1164" on="0"/>
        <pt x="821" y="1188" on="0"/>
        <pt x="881" y="1199" on="0"/>
        <pt x="908" y="1199" on="1"/>
        <pt x="963" y="1199" on="0"/>
        <pt x="1025" y="1115" on="0"/>
        <pt x="1025" y="1058" on="1"/>
        <pt x="1025" y="1000" on="0"/>
        <pt x="963" y="915" on="0"/>
        <pt x="907" y="915" on="1"/>
        <pt x="881" y="915" on="0"/>
        <pt x="825" y="924" on="0"/>
        <pt x="743" y="951" on="0"/>
        <pt x="707" y="963" on="0"/>
        <pt x="598" y="1005" on="0"/>
        <pt x="592" y="1007" on="1"/>
        <pt x="636" y="772" on="0"/>
        <pt x="675" y="556" on="0"/>
        <pt x="712" y="291" on="0"/>
        <pt x="712" y="222" on="1"/>
        <pt x="712" y="121" on="0"/>
        <pt x="599" y="5" on="0"/>
        <pt x="523" y="5" on="1"/>
        <pt x="449" y="5" on="0"/>
        <pt x="341" y="118" on="0"/>
        <pt x="341" y="220" on="1"/>
        <pt x="341" y="290" on="0"/>
        <pt x="376" y="557" on="0"/>
        <pt x="417" y="791" on="0"/>
        <pt x="455" y="1002" on="1"/>
        <pt x="375" y="971" on="0"/>
        <pt x="301" y="944" on="0"/>
        <pt x="190" y="915" on="0"/>
        <pt x="153" y="915" on="1"/>
        <pt x="96" y="915" on="0"/>
        <pt x="34" y="998" on="0"/>
        <pt x="34" y="1114" on="0"/>
        <pt x="97" y="1199" on="0"/>
        <pt x="152" y="1199" on="1"/>
        <pt x="190" y="1199" on="0"/>
        <pt x="303" y="1169" on="0"/>
        <pt x="379" y="1142" on="0"/>
        <pt x="460" y="1110" on="1"/>
        <pt x="402" y="1224" on="0"/>
        <pt x="338" y="1390" on="0"/>
        <pt x="338" y="1457" on="1"/>
        <pt x="338" y="1538" on="0"/>
        <pt x="447" y="1627" on="0"/>
        <pt x="599" y="1627" on="0"/>
        <pt x="713" y="1537" on="0"/>
      </contour>
    </TTGlyph>
    <TTGlyph name="daggerdbl" xMin="34" yMin="-39" xMax="1025" yMax="1627">
      <contour>
        <pt x="455" y="586" on="1"/>
        <pt x="455" y="1002" on="1"/>
        <pt x="375" y="971" on="0"/>
        <pt x="301" y="944" on="0"/>
        <pt x="190" y="915" on="0"/>
        <pt x="153" y="915" on="1"/>
        <pt x="96" y="915" on="0"/>
        <pt x="34" y="998" on="0"/>
        <pt x="34" y="1114" on="0"/>
        <pt x="97" y="1199" on="0"/>
        <pt x="152" y="1199" on="1"/>
        <pt x="190" y="1199" on="0"/>
        <pt x="303" y="1169" on="0"/>
        <pt x="379" y="1142" on="0"/>
        <pt x="460" y="1110" on="1"/>
        <pt x="402" y="1224" on="0"/>
        <pt x="338" y="1390" on="0"/>
        <pt x="338" y="1457" on="1"/>
        <pt x="338" y="1538" on="0"/>
        <pt x="447" y="1627" on="0"/>
        <pt x="599" y="1627" on="0"/>
        <pt x="713" y="1537" on="0"/>
        <pt x="713" y="1458" on="1"/>
        <pt x="713" y="1411" on="0"/>
        <pt x="669" y="1277" on="0"/>
        <pt x="626" y="1185" on="0"/>
        <pt x="584" y="1103" on="1"/>
        <pt x="599" y="1109" on="0"/>
        <pt x="695" y="1146" on="0"/>
        <pt x="744" y="1164" on="0"/>
        <pt x="821" y="1188" on="0"/>
        <pt x="881" y="1199" on="0"/>
        <pt x="908" y="1199" on="1"/>
        <pt x="963" y="1199" on="0"/>
        <pt x="1025" y="1115" on="0"/>
        <pt x="1025" y="1058" on="1"/>
        <pt x="1025" y="1000" on="0"/>
        <pt x="963" y="915" on="0"/>
        <pt x="907" y="915" on="1"/>
        <pt x="881" y="915" on="0"/>
        <pt x="825" y="924" on="0"/>
        <pt x="743" y="951" on="0"/>
        <pt x="707" y="963" on="0"/>
        <pt x="598" y="1005" on="0"/>
        <pt x="592" y="1007" on="1"/>
        <pt x="592" y="581" on="1"/>
        <pt x="605" y="586" on="0"/>
        <pt x="682" y="616" on="0"/>
        <pt x="719" y="630" on="0"/>
        <pt x="787" y="653" on="0"/>
        <pt x="831" y="664" on="0"/>
        <pt x="885" y="673" on="0"/>
        <pt x="907" y="673" on="1"/>
        <pt x="963" y="673" on="0"/>
        <pt x="1025" y="588" on="0"/>
        <pt x="1025" y="530" on="1"/>
        <pt x="1025" y="473" on="0"/>
        <pt x="963" y="389" on="0"/>
        <pt x="908" y="389" on="1"/>
        <pt x="881" y="389" on="0"/>
        <pt x="821" y="400" on="0"/>
        <pt x="744" y="424" on="0"/>
        <pt x="695" y="442" on="0"/>
        <pt x="599" y="479" on="0"/>
        <pt x="584" y="485" on="1"/>
        <pt x="626" y="403" on="0"/>
        <pt x="669" y="311" on="0"/>
        <pt x="713" y="177" on="0"/>
        <pt x="713" y="130" on="1"/>
        <pt x="713" y="51" on="0"/>
        <pt x="599" y="-39" on="0"/>
        <pt x="447" y="-39" on="0"/>
        <pt x="338" y="50" on="0"/>
        <pt x="338" y="131" on="1"/>
        <pt x="338" y="198" on="0"/>
        <pt x="402" y="364" on="0"/>
        <pt x="460" y="478" on="1"/>
        <pt x="379" y="446" on="0"/>
        <pt x="303" y="419" on="0"/>
        <pt x="190" y="389" on="0"/>
        <pt x="152" y="389" on="1"/>
        <pt x="97" y="389" on="0"/>
        <pt x="34" y="474" on="0"/>
        <pt x="34" y="590" on="0"/>
        <pt x="96" y="673" on="0"/>
        <pt x="153" y="673" on="1"/>
        <pt x="190" y="673" on="0"/>
        <pt x="301" y="644" on="0"/>
        <pt x="375" y="617" on="0"/>
      </contour>
    </TTGlyph>
    <TTGlyph name="dcaron" xMin="74" yMin="-30" xMax="1950" yMax="1710">
      <component glyphName=".ttfautohint" x="74" y="0" flags="0x0"/>
      <component glyphName="comma" x="1395" y="1301" flags="0x1004"/>
      <component glyphName="d" x="0" y="0" flags="0x1004"/>
    </TTGlyph>
    <TTGlyph name="dcroat" xMin="85" yMin="-27" xMax="1518" yMax="1710">
      <contour>
        <pt x="500" y="1327" on="1"/>
        <pt x="726" y="1327" on="0"/>
        <pt x="823" y="1215" on="1"/>
        <pt x="823" y="1477" on="1"/>
        <pt x="645" y="1477" on="1"/>
        <pt x="645" y="1638" on="1"/>
        <pt x="823" y="1638" on="1"/>
        <pt x="823" y="1710" on="1"/>
        <pt x="1394" y="1710" on="1"/>
        <pt x="1394" y="1638" on="1"/>
        <pt x="1518" y="1638" on="1"/>
        <pt x="1518" y="1477" on="1"/>
        <pt x="1394" y="1477" on="1"/>
        <pt x="1394" y="0" on="1"/>
        <pt x="874" y="0" on="1"/>
        <pt x="837" y="114" on="1"/>
        <pt x="791" y="48" on="0"/>
        <pt x="612" y="-27" on="0"/>
        <pt x="502" y="-27" on="1"/>
        <pt x="85" y="-27" on="0"/>
        <pt x="85" y="377" on="1"/>
        <pt x="85" y="940" on="1"/>
        <pt x="85" y="1327" on="0"/>
      </contour>
      <contour>
        <pt x="822" y="1105" on="1"/>
        <pt x="655" y="1105" on="1"/>
        <pt x="655" y="199" on="1"/>
        <pt x="822" y="199" on="1"/>
      </contour>
    </TTGlyph>
    <TTGlyph name="degree" xMin="73" yMin="1070" xMax="735" yMax="1672">
      <contour>
        <pt x="545" y="1305" on="0"/>
        <pt x="545" y="1437" on="0"/>
        <pt x="466" y="1520" on="0"/>
        <pt x="342" y="1520" on="0"/>
        <pt x="263" y="1437" on="0"/>
        <pt x="263" y="1305" on="0"/>
        <pt x="342" y="1222" on="0"/>
        <pt x="466" y="1222" on="0"/>
      </contour>
      <contour>
        <pt x="73" y="1250" on="0"/>
        <pt x="73" y="1492" on="0"/>
        <pt x="255" y="1672" on="0"/>
        <pt x="553" y="1672" on="0"/>
        <pt x="735" y="1492" on="0"/>
        <pt x="735" y="1250" on="0"/>
        <pt x="553" y="1070" on="0"/>
        <pt x="255" y="1070" on="0"/>
      </contour>
    </TTGlyph>
    <TTGlyph name="dieresis" xMin="83" yMin="82" xMax="1217" yMax="418">
      <contour>
        <pt x="1217" y="418" on="1"/>
        <pt x="1217" y="82" on="1"/>
        <pt x="766" y="82" on="1"/>
        <pt x="766" y="418" on="1"/>
      </contour>
      <contour>
        <pt x="533" y="418" on="1"/>
        <pt x="533" y="82" on="1"/>
        <pt x="83" y="82" on="1"/>
        <pt x="83" y="418" on="1"/>
      </contour>
    </TTGlyph>
    <TTGlyph name="divide" xMin="67" yMin="92" xMax="1229" yMax="1497">
      <contour>
        <pt x="1229" y="908" on="1"/>
        <pt x="1229" y="670" on="1"/>
        <pt x="67" y="670" on="1"/>
        <pt x="67" y="908" on="1"/>
      </contour>
      <contour>
        <pt x="901" y="1000" on="1"/>
        <pt x="394" y="1000" on="1"/>
        <pt x="394" y="1497" on="1"/>
        <pt x="901" y="1497" on="1"/>
      </contour>
      <contour>
        <pt x="901" y="92" on="1"/>
        <pt x="394" y="92" on="1"/>
        <pt x="394" y="559" on="1"/>
        <pt x="901" y="559" on="1"/>
      </contour>
    </TTGlyph>
    <TTGlyph name="dollar" xMin="70" yMin="-168" xMax="1378" yMax="1730">
      <contour>
        <pt x="600" y="1031" on="1"/>
        <pt x="603" y="1030" on="0"/>
        <pt x="667" y="1016" on="0"/>
        <pt x="685" y="1012" on="1"/>
        <pt x="685" y="1283" on="1"/>
        <pt x="600" y="1283" on="1"/>
      </contour>
      <contour>
        <pt x="847" y="556" on="1"/>
        <pt x="764" y="572" on="1"/>
        <pt x="764" y="283" on="1"/>
        <pt x="847" y="283" on="1"/>
      </contour>
      <contour>
        <pt x="685" y="-168" on="1"/>
        <pt x="685" y="22" on="1"/>
        <pt x="435" y="24" on="0"/>
        <pt x="301" y="71" on="1"/>
        <pt x="186" y="112" on="0"/>
        <pt x="92" y="301" on="0"/>
        <pt x="101" y="482" on="1"/>
        <pt x="600" y="450" on="1"/>
        <pt x="600" y="283" on="1"/>
        <pt x="685" y="283" on="1"/>
        <pt x="685" y="586" on="1"/>
        <pt x="626" y="597" on="0"/>
        <pt x="546" y="613" on="0"/>
        <pt x="434" y="641" on="0"/>
        <pt x="356" y="670" on="0"/>
        <pt x="261" y="715" on="0"/>
        <pt x="197" y="765" on="0"/>
        <pt x="132" y="835" on="0"/>
        <pt x="94" y="915" on="0"/>
        <pt x="70" y="1020" on="0"/>
        <pt x="70" y="1080" on="1"/>
        <pt x="70" y="1192" on="0"/>
        <pt x="133" y="1357" on="0"/>
        <pt x="238" y="1457" on="0"/>
        <pt x="401" y="1519" on="0"/>
        <pt x="572" y="1542" on="0"/>
        <pt x="685" y="1544" on="1"/>
        <pt x="685" y="1730" on="1"/>
        <pt x="764" y="1730" on="1"/>
        <pt x="764" y="1545" on="1"/>
        <pt x="1007" y="1543" on="0"/>
        <pt x="1145" y="1500" on="1"/>
        <pt x="1217" y="1476" on="0"/>
        <pt x="1307" y="1395" on="0"/>
        <pt x="1342" y="1291" on="0"/>
        <pt x="1353" y="1162" on="0"/>
        <pt x="1346" y="1092" on="1"/>
        <pt x="847" y="1122" on="1"/>
        <pt x="847" y="1283" on="1"/>
        <pt x="764" y="1283" on="1"/>
        <pt x="764" y="997" on="1"/>
        <pt x="843" y="982" on="0"/>
        <pt x="935" y="961" on="0"/>
        <pt x="1082" y="919" on="0"/>
        <pt x="1171" y="874" on="0"/>
        <pt x="1278" y="800" on="0"/>
        <pt x="1337" y="711" on="0"/>
        <pt x="1378" y="586" on="0"/>
        <pt x="1378" y="510" on="1"/>
        <pt x="1378" y="395" on="0"/>
        <pt x="1322" y="227" on="0"/>
        <pt x="1224" y="119" on="0"/>
        <pt x="1066" y="53" on="0"/>
        <pt x="885" y="25" on="0"/>
        <pt x="764" y="23" on="1"/>
        <pt x="764" y="-168" on="1"/>
      </contour>
    </TTGlyph>
    <TTGlyph name="dotaccent" xMin="84" yMin="0" xMax="591" yMax="467">
      <contour>
        <pt x="591" y="0" on="1"/>
        <pt x="84" y="0" on="1"/>
        <pt x="84" y="467" on="1"/>
        <pt x="591" y="467" on="1"/>
      </contour>
    </TTGlyph>
    <TTGlyph name="dotlessi" xMin="100" yMin="0" xMax="669" yMax="1298">
      <contour>
        <pt x="669" y="0" on="1"/>
        <pt x="100" y="0" on="1"/>
        <pt x="100" y="1298" on="1"/>
        <pt x="669" y="1298" on="1"/>
      </contour>
    </TTGlyph>
    <TTGlyph name="e" xMin="74" yMin="-30" xMax="1392" yMax="1327">
      <contour>
        <pt x="646" y="777" on="1"/>
        <pt x="814" y="777" on="1"/>
        <pt x="814" y="1105" on="1"/>
        <pt x="646" y="1105" on="1"/>
      </contour>
      <contour>
        <pt x="1384" y="483" on="1"/>
        <pt x="1392" y="422" on="0"/>
        <pt x="1392" y="380" on="1"/>
        <pt x="1392" y="156" on="0"/>
        <pt x="1073" y="-30" on="0"/>
        <pt x="731" y="-30" on="1"/>
        <pt x="672" y="-30" on="0"/>
        <pt x="584" y="-28" on="0"/>
        <pt x="468" y="-19" on="0"/>
        <pt x="382" y="-4" on="0"/>
        <pt x="283" y="24" on="0"/>
        <pt x="212" y="63" on="0"/>
        <pt x="143" y="121" on="0"/>
        <pt x="100" y="194" on="0"/>
        <pt x="74" y="294" on="0"/>
        <pt x="74" y="353" on="1"/>
        <pt x="74" y="953" on="1"/>
        <pt x="74" y="1026" on="0"/>
        <pt x="118" y="1143" on="0"/>
        <pt x="187" y="1220" on="0"/>
        <pt x="298" y="1276" on="0"/>
        <pt x="403" y="1306" on="0"/>
        <pt x="547" y="1323" on="0"/>
        <pt x="656" y="1327" on="0"/>
        <pt x="729" y="1327" on="1"/>
        <pt x="786" y="1327" on="0"/>
        <pt x="872" y="1325" on="0"/>
        <pt x="987" y="1317" on="0"/>
        <pt x="1072" y="1302" on="0"/>
        <pt x="1172" y="1275" on="0"/>
        <pt x="1244" y="1237" on="0"/>
        <pt x="1314" y="1180" on="0"/>
        <pt x="1357" y="1109" on="0"/>
        <pt x="1384" y="1012" on="0"/>
        <pt x="1384" y="954" on="1"/>
        <pt x="1384" y="604" on="1"/>
        <pt x="646" y="604" on="1"/>
        <pt x="646" y="199" on="1"/>
        <pt x="813" y="199" on="1"/>
        <pt x="813" y="483" on="1"/>
      </contour>
    </TTGlyph>
    <TTGlyph name="eacute" xMin="74" yMin="-30" xMax="1461" yMax="1988">
      <component glyphName=".ttfautohint" x="74" y="0" flags="0x0"/>
      <component glyphName="acute" x="629" y="58" flags="0x1004"/>
      <component glyphName="e" x="0" y="0" flags="0x1204"/>
    </TTGlyph>
    <TTGlyph name="ecaron" xMin="74" yMin="-30" xMax="1392" yMax="2026">
      <component glyphName=".ttfautohint" x="74" y="0" flags="0x0"/>
      <component glyphName="caron" x="256" y="18" flags="0x1004"/>
      <component glyphName="e" x="0" y="0" flags="0x1204"/>
    </TTGlyph>
    <TTGlyph name="ecircumflex" xMin="74" yMin="-30" xMax="1392" yMax="2026">
      <component glyphName=".ttfautohint" x="74" y="0" flags="0x0"/>
      <component glyphName="circumflex" x="256" y="18" flags="0x1004"/>
      <component glyphName="e" x="0" y="0" flags="0x1204"/>
    </TTGlyph>
    <TTGlyph name="edieresis" xMin="74" yMin="-30" xMax="1392" yMax="1765">
      <component glyphName=".ttfautohint" x="74" y="0" flags="0x0"/>
      <component glyphName="dieresis" x="83" y="1347" flags="0x1004"/>
      <component glyphName="e" x="0" y="0" flags="0x1204"/>
    </TTGlyph>
    <TTGlyph name="edotaccent" xMin="74" yMin="-30" xMax="1392" yMax="1849">
      <component glyphName=".ttfautohint" x="74" y="0" flags="0x0"/>
      <component glyphName="uni0307" x="393" y="213" flags="0x1004"/>
      <component glyphName="e" x="0" y="0" flags="0x1204"/>
    </TTGlyph>
    <TTGlyph name="egrave" xMin="5" yMin="-30" xMax="1392" yMax="1988">
      <component glyphName=".ttfautohint" x="5" y="0" flags="0x0"/>
      <component glyphName="grave" x="-36" y="58" flags="0x1004"/>
      <component glyphName="e" x="0" y="0" flags="0x1204"/>
    </TTGlyph>
    <TTGlyph name="eight" xMin="64" yMin="-40" xMax="1368" yMax="1631">
      <contour>
        <pt x="628" y="235" on="1"/>
        <pt x="794" y="235" on="1"/>
        <pt x="794" y="720" on="1"/>
        <pt x="628" y="720" on="1"/>
      </contour>
      <contour>
        <pt x="640" y="1355" on="1"/>
        <pt x="640" y="960" on="1"/>
        <pt x="794" y="960" on="1"/>
        <pt x="794" y="1355" on="1"/>
      </contour>
      <contour>
        <pt x="119" y="1181" on="1"/>
        <pt x="119" y="1283" on="0"/>
        <pt x="177" y="1439" on="0"/>
        <pt x="279" y="1541" on="0"/>
        <pt x="432" y="1605" on="0"/>
        <pt x="609" y="1631" on="0"/>
        <pt x="719" y="1631" on="1"/>
        <pt x="857" y="1631" on="0"/>
        <pt x="1065" y="1587" on="0"/>
        <pt x="1226" y="1486" on="0"/>
        <pt x="1310" y="1307" on="0"/>
        <pt x="1310" y="1180" on="1"/>
        <pt x="1310" y="911" on="0"/>
        <pt x="1149" y="864" on="1"/>
        <pt x="1225" y="848" on="0"/>
        <pt x="1325" y="735" on="0"/>
        <pt x="1368" y="574" on="0"/>
        <pt x="1368" y="470" on="1"/>
        <pt x="1368" y="378" on="0"/>
        <pt x="1335" y="231" on="0"/>
        <pt x="1278" y="125" on="0"/>
        <pt x="1187" y="47" on="0"/>
        <pt x="1084" y="-1" on="0"/>
        <pt x="945" y="-29" on="0"/>
        <pt x="808" y="-40" on="0"/>
        <pt x="721" y="-40" on="1"/>
        <pt x="586" y="-40" on="0"/>
        <pt x="385" y="-10" on="0"/>
        <pt x="221" y="61" on="0"/>
        <pt x="118" y="178" on="0"/>
        <pt x="64" y="352" on="0"/>
        <pt x="64" y="470" on="1"/>
        <pt x="64" y="811" on="0"/>
        <pt x="251" y="864" on="1"/>
        <pt x="119" y="911" on="0"/>
      </contour>
    </TTGlyph>
    <TTGlyph name="ellipsis" xMin="136" yMin="-39" xMax="1884" yMax="381">
      <contour>
        <pt x="1476" y="72" on="0"/>
        <pt x="1476" y="270" on="0"/>
        <pt x="1597" y="381" on="0"/>
        <pt x="1763" y="381" on="0"/>
        <pt x="1884" y="270" on="0"/>
        <pt x="1884" y="72" on="0"/>
        <pt x="1763" y="-39" on="0"/>
        <pt x="1597" y="-39" on="0"/>
      </contour>
      <contour>
        <pt x="806" y="72" on="0"/>
        <pt x="806" y="270" on="0"/>
        <pt x="927" y="381" on="0"/>
        <pt x="1093" y="381" on="0"/>
        <pt x="1214" y="270" on="0"/>
        <pt x="1214" y="72" on="0"/>
        <pt x="1093" y="-39" on="0"/>
        <pt x="927" y="-39" on="0"/>
      </contour>
      <contour>
        <pt x="136" y="72" on="0"/>
        <pt x="136" y="270" on="0"/>
        <pt x="257" y="381" on="0"/>
        <pt x="423" y="381" on="0"/>
        <pt x="544" y="270" on="0"/>
        <pt x="544" y="72" on="0"/>
        <pt x="423" y="-39" on="0"/>
        <pt x="257" y="-39" on="0"/>
      </contour>
    </TTGlyph>
    <TTGlyph name="emacron" xMin="74" yMin="-30" xMax="1392" yMax="1660">
      <component glyphName=".ttfautohint" x="74" y="0" flags="0x0"/>
      <component glyphName="macron" x="230" y="763" flags="0x1004"/>
      <component glyphName="e" x="0" y="0" flags="0x1204"/>
    </TTGlyph>
    <TTGlyph name="emdash" xMin="87" yMin="461" xMax="1772" yMax="897">
      <contour>
        <pt x="1772" y="897" on="1"/>
        <pt x="1772" y="461" on="1"/>
        <pt x="87" y="461" on="1"/>
        <pt x="87" y="897" on="1"/>
      </contour>
    </TTGlyph>
    <TTGlyph name="endash" xMin="87" yMin="461" xMax="920" yMax="897">
      <contour>
        <pt x="920" y="897" on="1"/>
        <pt x="920" y="461" on="1"/>
        <pt x="87" y="461" on="1"/>
        <pt x="87" y="897" on="1"/>
      </contour>
    </TTGlyph>
    <TTGlyph name="eogonek" xMin="74" yMin="-643" xMax="1392" yMax="1327">
      <component glyphName=".ttfautohint" x="74" y="0" flags="0x0"/>
      <component glyphName="ogonek" x="361" y="59" flags="0x1004"/>
      <component glyphName="e" x="0" y="0" flags="0x1204"/>
    </TTGlyph>
    <TTGlyph name="equal" xMin="89" yMin="0" xMax="923" yMax="897">
      <contour>
        <pt x="923" y="897" on="1"/>
        <pt x="923" y="561" on="1"/>
        <pt x="89" y="561" on="1"/>
        <pt x="89" y="897" on="1"/>
      </contour>
      <contour>
        <pt x="923" y="336" on="1"/>
        <pt x="923" y="0" on="1"/>
        <pt x="89" y="0" on="1"/>
        <pt x="89" y="336" on="1"/>
      </contour>
    </TTGlyph>
    <TTGlyph name="eth" xMin="72" yMin="-37" xMax="1337" yMax="1889">
      <contour>
        <pt x="762" y="828" on="1"/>
        <pt x="640" y="828" on="1"/>
        <pt x="640" y="238" on="1"/>
        <pt x="762" y="238" on="1"/>
      </contour>
      <contour>
        <pt x="991" y="1578" on="1"/>
        <pt x="1065" y="1506" on="0"/>
        <pt x="1181" y="1357" on="0"/>
        <pt x="1282" y="1167" on="0"/>
        <pt x="1337" y="935" on="0"/>
        <pt x="1337" y="807" on="1"/>
        <pt x="1337" y="707" on="0"/>
        <pt x="1333" y="575" on="0"/>
        <pt x="1320" y="405" on="0"/>
        <pt x="1291" y="286" on="0"/>
        <pt x="1244" y="165" on="0"/>
        <pt x="1169" y="76" on="0"/>
        <pt x="1119" y="45" on="1"/>
        <pt x="984" y="-37" on="0"/>
        <pt x="708" y="-37" on="1"/>
        <pt x="590" y="-37" on="0"/>
        <pt x="411" y="-14" on="0"/>
        <pt x="251" y="41" on="0"/>
        <pt x="141" y="145" on="0"/>
        <pt x="112" y="221" on="1"/>
        <pt x="72" y="327" on="0"/>
        <pt x="72" y="525" on="1"/>
        <pt x="72" y="717" on="0"/>
        <pt x="153" y="959" on="0"/>
        <pt x="258" y="1021" on="1"/>
        <pt x="386" y="1097" on="0"/>
        <pt x="623" y="1097" on="1"/>
        <pt x="763" y="1097" on="1"/>
        <pt x="763" y="1133" on="0"/>
        <pt x="738" y="1200" on="0"/>
        <pt x="689" y="1262" on="0"/>
        <pt x="654" y="1297" on="0"/>
        <pt x="624" y="1324" on="1"/>
        <pt x="372" y="1151" on="1"/>
        <pt x="302" y="1275" on="1"/>
        <pt x="507" y="1416" on="1"/>
        <pt x="406" y="1482" on="0"/>
        <pt x="353" y="1510" on="1"/>
        <pt x="286" y="1546" on="1"/>
        <pt x="510" y="1887" on="1"/>
        <pt x="511" y="1889" on="1"/>
        <pt x="711" y="1806" on="0"/>
        <pt x="880" y="1674" on="1"/>
        <pt x="1088" y="1817" on="1"/>
        <pt x="1159" y="1694" on="1"/>
      </contour>
    </TTGlyph>
    <TTGlyph name="exclam" xMin="122" yMin="-39" xMax="633" yMax="1631">
      <contour>
        <pt x="171" y="72" on="0"/>
        <pt x="171" y="270" on="0"/>
        <pt x="292" y="381" on="0"/>
        <pt x="458" y="381" on="0"/>
        <pt x="579" y="270" on="0"/>
        <pt x="579" y="72" on="0"/>
        <pt x="458" y="-39" on="0"/>
        <pt x="292" y="-39" on="0"/>
      </contour>
      <contour>
        <pt x="314" y="607" on="1"/>
        <pt x="292" y="701" on="0"/>
        <pt x="186" y="1076" on="0"/>
        <pt x="122" y="1345" on="0"/>
        <pt x="122" y="1413" on="1"/>
        <pt x="122" y="1517" on="0"/>
        <pt x="270" y="1631" on="0"/>
        <pt x="373" y="1631" on="1"/>
        <pt x="478" y="1631" on="0"/>
        <pt x="633" y="1514" on="0"/>
        <pt x="633" y="1411" on="1"/>
        <pt x="633" y="1341" on="0"/>
        <pt x="565" y="1069" on="0"/>
        <pt x="457" y="702" on="0"/>
        <pt x="435" y="607" on="1"/>
        <pt x="427" y="574" on="0"/>
        <pt x="394" y="539" on="0"/>
        <pt x="375" y="539" on="1"/>
        <pt x="355" y="539" on="0"/>
        <pt x="322" y="574" on="0"/>
      </contour>
    </TTGlyph>
    <TTGlyph name="exclamdown" xMin="118" yMin="-35" xMax="629" yMax="1627">
      <contour>
        <pt x="151" y="1392" on="1"/>
        <pt x="152" y="1391" on="1"/>
        <pt x="152" y="1504" on="0"/>
        <pt x="271" y="1627" on="0"/>
        <pt x="353" y="1627" on="1"/>
        <pt x="436" y="1627" on="0"/>
        <pt x="561" y="1504" on="0"/>
        <pt x="561" y="1398" on="1"/>
        <pt x="561" y="1298" on="0"/>
        <pt x="439" y="1187" on="0"/>
        <pt x="355" y="1187" on="1"/>
        <pt x="272" y="1187" on="0"/>
        <pt x="151" y="1296" on="0"/>
      </contour>
      <contour>
        <pt x="311" y="989" on="1"/>
        <pt x="310" y="989" on="1"/>
        <pt x="318" y="1022" on="0"/>
        <pt x="351" y="1057" on="0"/>
        <pt x="391" y="1057" on="0"/>
        <pt x="424" y="1022" on="0"/>
        <pt x="431" y="989" on="1"/>
        <pt x="453" y="896" on="0"/>
        <pt x="562" y="526" on="0"/>
        <pt x="629" y="255" on="0"/>
        <pt x="629" y="185" on="1"/>
        <pt x="629" y="82" on="0"/>
        <pt x="474" y="-35" on="0"/>
        <pt x="369" y="-35" on="1"/>
        <pt x="266" y="-35" on="0"/>
        <pt x="118" y="79" on="0"/>
        <pt x="118" y="183" on="1"/>
        <pt x="118" y="251" on="0"/>
        <pt x="184" y="521" on="0"/>
        <pt x="289" y="892" on="0"/>
      </contour>
    </TTGlyph>
    <TTGlyph name="f" xMin="18" yMin="0" xMax="1110" yMax="1731">
      <contour>
        <pt x="225" y="1300" on="1"/>
        <pt x="225" y="1420" on="0"/>
        <pt x="291" y="1588" on="0"/>
        <pt x="424" y="1687" on="0"/>
        <pt x="608" y="1731" on="0"/>
        <pt x="735" y="1731" on="1"/>
        <pt x="944" y="1731" on="0"/>
        <pt x="1101" y="1683" on="1"/>
        <pt x="1101" y="1477" on="1"/>
        <pt x="796" y="1477" on="1"/>
        <pt x="796" y="1300" on="1"/>
        <pt x="1110" y="1300" on="1"/>
        <pt x="1110" y="1098" on="1"/>
        <pt x="796" y="1098" on="1"/>
        <pt x="796" y="0" on="1"/>
        <pt x="225" y="0" on="1"/>
        <pt x="225" y="1098" on="1"/>
        <pt x="18" y="1098" on="1"/>
        <pt x="18" y="1300" on="1"/>
      </contour>
    </TTGlyph>
    <TTGlyph name="ff" xMin="18" yMin="0" xMax="2228" yMax="1731">
      <component glyphName=".ttfautohint" x="18" y="0" flags="0x0"/>
      <component glyphName="f" x="1118" y="0" flags="0x1004"/>
      <component glyphName="f" x="0" y="0" flags="0x1004"/>
    </TTGlyph>
    <TTGlyph name="ffi" xMin="18" yMin="0" xMax="2897" yMax="1731">
      <component glyphName=".ttfautohint" x="18" y="0" flags="0x0"/>
      <component glyphName="i" x="2236" y="0" flags="0x1004"/>
      <component glyphName="f" x="1118" y="0" flags="0x1004"/>
      <component glyphName="f" x="0" y="0" flags="0x1004"/>
    </TTGlyph>
    <TTGlyph name="five" xMin="66" yMin="-39" xMax="1364" yMax="1596">
      <contour>
        <pt x="955" y="1105" on="1"/>
        <pt x="1051" y="1105" on="0"/>
        <pt x="1194" y="1052" on="0"/>
        <pt x="1286" y="959" on="0"/>
        <pt x="1342" y="817" on="0"/>
        <pt x="1364" y="656" on="0"/>
        <pt x="1364" y="553" on="1"/>
        <pt x="1364" y="377" on="0"/>
        <pt x="1296" y="150" on="0"/>
        <pt x="1135" y="14" on="0"/>
        <pt x="898" y="-39" on="0"/>
        <pt x="714" y="-39" on="1"/>
        <pt x="604" y="-39" on="0"/>
        <pt x="432" y="-20" on="0"/>
        <pt x="271" y="30" on="0"/>
        <pt x="161" y="111" on="0"/>
        <pt x="86" y="243" on="0"/>
        <pt x="75" y="331" on="1"/>
        <pt x="66" y="398" on="0"/>
        <pt x="66" y="474" on="1"/>
        <pt x="616" y="474" on="1"/>
        <pt x="616" y="236" on="1"/>
        <pt x="797" y="236" on="1"/>
        <pt x="797" y="838" on="1"/>
        <pt x="616" y="838" on="1"/>
        <pt x="616" y="655" on="1"/>
        <pt x="83" y="655" on="1"/>
        <pt x="136" y="1596" on="1"/>
        <pt x="1229" y="1596" on="1"/>
        <pt x="1229" y="1299" on="1"/>
        <pt x="638" y="1299" on="1"/>
        <pt x="604" y="998" on="1"/>
        <pt x="696" y="1105" on="0"/>
      </contour>
    </TTGlyph>
    <TTGlyph name="four" xMin="73" yMin="0" xMax="1377" yMax="1595">
      <contour>
        <pt x="1377" y="0" on="1"/>
        <pt x="865" y="0" on="1"/>
        <pt x="865" y="240" on="1"/>
        <pt x="73" y="240" on="1"/>
        <pt x="73" y="657" on="1"/>
        <pt x="327" y="1595" on="1"/>
        <pt x="900" y="1595" on="1"/>
        <pt x="649" y="657" on="1"/>
        <pt x="649" y="603" on="1"/>
        <pt x="865" y="603" on="1"/>
        <pt x="865" y="938" on="1"/>
        <pt x="1377" y="938" on="1"/>
      </contour>
    </TTGlyph>
    <TTGlyph name="g" xMin="74" yMin="-372" xMax="1383" yMax="1327">
      <contour>
        <pt x="812" y="1104" on="1"/>
        <pt x="645" y="1104" on="1"/>
        <pt x="645" y="316" on="1"/>
        <pt x="812" y="316" on="1"/>
      </contour>
      <contour>
        <pt x="497" y="1327" on="1"/>
        <pt x="733" y="1325" on="0"/>
        <pt x="836" y="1187" on="1"/>
        <pt x="872" y="1299" on="1"/>
        <pt x="1383" y="1299" on="1"/>
        <pt x="1383" y="236" on="1"/>
        <pt x="1383" y="-78" on="0"/>
        <pt x="1034" y="-372" on="0"/>
        <pt x="664" y="-372" on="1"/>
        <pt x="408" y="-372" on="0"/>
        <pt x="187" y="-311" on="1"/>
        <pt x="244" y="-20" on="1"/>
        <pt x="385" y="-59" on="0"/>
        <pt x="590" y="-59" on="1"/>
        <pt x="763" y="-59" on="0"/>
        <pt x="825" y="-22" on="1"/>
        <pt x="825" y="205" on="1"/>
        <pt x="780" y="148" on="0"/>
        <pt x="604" y="91" on="0"/>
        <pt x="494" y="91" on="1"/>
        <pt x="74" y="91" on="0"/>
        <pt x="74" y="482" on="1"/>
        <pt x="74" y="927" on="1"/>
        <pt x="74" y="1327" on="0"/>
      </contour>
    </TTGlyph>
    <TTGlyph name="gbreve" xMin="74" yMin="-372" xMax="1383" yMax="1910">
      <component glyphName=".ttfautohint" x="74" y="0" flags="0x0"/>
      <component glyphName="breve" x="192" y="31" flags="0x1004"/>
      <component glyphName="g" x="0" y="0" flags="0x1204"/>
    </TTGlyph>
    <TTGlyph name="gcedilla" xMin="88" yMin="-372" xMax="1397" yMax="1327">
      <contour>
        <pt x="826" y="1104" on="1"/>
        <pt x="659" y="1104" on="1"/>
        <pt x="659" y="316" on="1"/>
        <pt x="826" y="316" on="1"/>
      </contour>
      <contour>
        <pt x="511" y="1327" on="1"/>
        <pt x="511" y="1326" on="1"/>
        <pt x="747" y="1326" on="0"/>
        <pt x="850" y="1187" on="1"/>
        <pt x="886" y="1299" on="1"/>
        <pt x="1397" y="1299" on="1"/>
        <pt x="1397" y="236" on="1"/>
        <pt x="1397" y="-78" on="0"/>
        <pt x="1048" y="-372" on="0"/>
        <pt x="678" y="-372" on="1"/>
        <pt x="422" y="-372" on="0"/>
        <pt x="201" y="-311" on="1"/>
        <pt x="258" y="-20" on="1"/>
        <pt x="335" y="-41" on="0"/>
        <pt x="566" y="-64" on="0"/>
        <pt x="791" y="-50" on="0"/>
        <pt x="839" y="-22" on="1"/>
        <pt x="839" y="205" on="1"/>
        <pt x="794" y="148" on="0"/>
        <pt x="618" y="91" on="0"/>
        <pt x="508" y="91" on="1"/>
        <pt x="88" y="91" on="0"/>
        <pt x="88" y="482" on="1"/>
        <pt x="88" y="927" on="1"/>
        <pt x="88" y="1327" on="0"/>
      </contour>
    </TTGlyph>
    <TTGlyph name="gcircumflex" xMin="74" yMin="-372" xMax="1383" yMax="2026">
      <component glyphName=".ttfautohint" x="74" y="0" flags="0x0"/>
      <component glyphName="circumflex" x="252" y="18" flags="0x1004"/>
      <component glyphName="g" x="0" y="0" flags="0x1204"/>
    </TTGlyph>
    <TTGlyph name="gdotaccent" xMin="74" yMin="-372" xMax="1383" yMax="1849">
      <component glyphName=".ttfautohint" x="74" y="0" flags="0x0"/>
      <component glyphName="uni0307" x="388" y="213" flags="0x1004"/>
      <component glyphName="g" x="0" y="0" flags="0x1204"/>
    </TTGlyph>
    <TTGlyph name="germandbls" xMin="99" yMin="-205" xMax="1327" yMax="1595">
      <contour>
        <pt x="1327" y="258" on="1"/>
        <pt x="1327" y="201" on="0"/>
        <pt x="1294" y="110" on="0"/>
        <pt x="1241" y="49" on="0"/>
        <pt x="1154" y="5" on="0"/>
        <pt x="1068" y="-19" on="0"/>
        <pt x="946" y="-33" on="0"/>
        <pt x="845" y="-37" on="0"/>
        <pt x="776" y="-37" on="1"/>
        <pt x="692" y="-37" on="1"/>
        <pt x="692" y="194" on="1"/>
        <pt x="831" y="194" on="1"/>
        <pt x="831" y="750" on="1"/>
        <pt x="719" y="750" on="1"/>
        <pt x="719" y="981" on="1"/>
        <pt x="831" y="981" on="1"/>
        <pt x="831" y="1358" on="1"/>
        <pt x="595" y="1358" on="1"/>
        <pt x="595" y="-205" on="1"/>
        <pt x="99" y="-205" on="1"/>
        <pt x="99" y="1217" on="1"/>
        <pt x="99" y="1313" on="0"/>
        <pt x="165" y="1452" on="0"/>
        <pt x="271" y="1533" on="0"/>
        <pt x="438" y="1580" on="0"/>
        <pt x="604" y="1595" on="0"/>
        <pt x="715" y="1595" on="1"/>
        <pt x="925" y="1595" on="0"/>
        <pt x="1191" y="1483" on="0"/>
        <pt x="1236" y="1350" on="1"/>
        <pt x="1258" y="1285" on="0"/>
        <pt x="1258" y="1170" on="1"/>
        <pt x="1258" y="1034" on="0"/>
        <pt x="1114" y="880" on="0"/>
        <pt x="986" y="870" on="1"/>
        <pt x="1138" y="861" on="0"/>
        <pt x="1327" y="701" on="0"/>
        <pt x="1327" y="553" on="1"/>
      </contour>
    </TTGlyph>
    <TTGlyph name="grave" xMin="41" yMin="1371" xMax="848" yMax="1930">
      <contour>
        <pt x="814" y="1480" on="1"/>
        <pt x="848" y="1450" on="0"/>
        <pt x="848" y="1420" on="1"/>
        <pt x="848" y="1399" on="0"/>
        <pt x="812" y="1371" on="0"/>
        <pt x="785" y="1371" on="1"/>
        <pt x="767" y="1371" on="0"/>
        <pt x="753" y="1376" on="1"/>
        <pt x="702" y="1392" on="0"/>
        <pt x="482" y="1454" on="0"/>
        <pt x="345" y="1495" on="0"/>
        <pt x="193" y="1549" on="0"/>
        <pt x="157" y="1570" on="1"/>
        <pt x="99" y="1604" on="0"/>
        <pt x="41" y="1700" on="0"/>
        <pt x="41" y="1752" on="1"/>
        <pt x="41" y="1825" on="0"/>
        <pt x="140" y="1930" on="0"/>
        <pt x="215" y="1930" on="1"/>
        <pt x="276" y="1930" on="0"/>
        <pt x="340" y="1893" on="1"/>
        <pt x="375" y="1873" on="0"/>
        <pt x="500" y="1770" on="0"/>
        <pt x="599" y="1679" on="0"/>
        <pt x="779" y="1512" on="0"/>
      </contour>
    </TTGlyph>
    <TTGlyph name="greater" xMin="86" yMin="0" xMax="963" yMax="1597">
      <contour>
        <pt x="963" y="489" on="1"/>
        <pt x="86" y="0" on="1"/>
        <pt x="86" y="504" on="1"/>
        <pt x="687" y="797" on="1"/>
        <pt x="86" y="1092" on="1"/>
        <pt x="86" y="1597" on="1"/>
        <pt x="963" y="1098" on="1"/>
      </contour>
    </TTGlyph>
    <TTGlyph name="guillemotleft" xMin="94" yMin="190" xMax="1592" yMax="1364">
      <contour>
        <pt x="1446" y="213" on="1"/>
        <pt x="920" y="593" on="1"/>
        <pt x="876" y="624" on="0"/>
        <pt x="830" y="722" on="0"/>
        <pt x="830" y="775" on="1"/>
        <pt x="831" y="830" on="0"/>
        <pt x="878" y="930" on="0"/>
        <pt x="920" y="961" on="1"/>
        <pt x="1446" y="1341" on="1"/>
        <pt x="1478" y="1364" on="0"/>
        <pt x="1546" y="1364" on="0"/>
        <pt x="1592" y="1314" on="0"/>
        <pt x="1592" y="1278" on="1"/>
        <pt x="1592" y="1241" on="0"/>
        <pt x="1568" y="1209" on="1"/>
        <pt x="1234" y="777" on="1"/>
        <pt x="1568" y="345" on="1"/>
        <pt x="1590" y="317" on="0"/>
        <pt x="1590" y="277" on="1"/>
        <pt x="1590" y="241" on="0"/>
        <pt x="1544" y="190" on="0"/>
        <pt x="1510" y="190" on="1"/>
        <pt x="1477" y="190" on="0"/>
      </contour>
      <contour>
        <pt x="711" y="213" on="1"/>
        <pt x="184" y="593" on="1"/>
        <pt x="140" y="624" on="0"/>
        <pt x="94" y="722" on="0"/>
        <pt x="94" y="775" on="1"/>
        <pt x="95" y="830" on="0"/>
        <pt x="142" y="930" on="0"/>
        <pt x="184" y="961" on="1"/>
        <pt x="711" y="1341" on="1"/>
        <pt x="743" y="1364" on="0"/>
        <pt x="776" y="1364" on="1"/>
        <pt x="810" y="1364" on="0"/>
        <pt x="857" y="1314" on="0"/>
        <pt x="857" y="1242" on="0"/>
        <pt x="832" y="1209" on="1"/>
        <pt x="498" y="777" on="1"/>
        <pt x="832" y="345" on="1"/>
        <pt x="855" y="315" on="0"/>
        <pt x="855" y="277" on="1"/>
        <pt x="855" y="241" on="0"/>
        <pt x="808" y="190" on="0"/>
        <pt x="774" y="190" on="1"/>
        <pt x="741" y="190" on="0"/>
      </contour>
    </TTGlyph>
    <TTGlyph name="guillemotright" xMin="144" yMin="190" xMax="1642" yMax="1364">
      <contour>
        <pt x="816" y="593" on="1"/>
        <pt x="290" y="213" on="1"/>
        <pt x="259" y="190" on="0"/>
        <pt x="226" y="190" on="1"/>
        <pt x="192" y="190" on="0"/>
        <pt x="146" y="241" on="0"/>
        <pt x="146" y="277" on="1"/>
        <pt x="146" y="317" on="0"/>
        <pt x="168" y="345" on="1"/>
        <pt x="502" y="777" on="1"/>
        <pt x="168" y="1209" on="1"/>
        <pt x="144" y="1241" on="0"/>
        <pt x="144" y="1278" on="1"/>
        <pt x="144" y="1314" on="0"/>
        <pt x="190" y="1364" on="0"/>
        <pt x="258" y="1364" on="0"/>
        <pt x="290" y="1341" on="1"/>
        <pt x="816" y="961" on="1"/>
        <pt x="858" y="930" on="0"/>
        <pt x="905" y="830" on="0"/>
        <pt x="906" y="775" on="1"/>
        <pt x="906" y="722" on="0"/>
        <pt x="860" y="624" on="0"/>
      </contour>
      <contour>
        <pt x="1552" y="593" on="1"/>
        <pt x="1025" y="213" on="1"/>
        <pt x="995" y="190" on="0"/>
        <pt x="962" y="190" on="1"/>
        <pt x="928" y="190" on="0"/>
        <pt x="881" y="241" on="0"/>
        <pt x="881" y="277" on="1"/>
        <pt x="881" y="315" on="0"/>
        <pt x="904" y="345" on="1"/>
        <pt x="1238" y="777" on="1"/>
        <pt x="904" y="1209" on="1"/>
        <pt x="879" y="1242" on="0"/>
        <pt x="879" y="1314" on="0"/>
        <pt x="926" y="1364" on="0"/>
        <pt x="960" y="1364" on="1"/>
        <pt x="993" y="1364" on="0"/>
        <pt x="1025" y="1341" on="1"/>
        <pt x="1552" y="961" on="1"/>
        <pt x="1594" y="930" on="0"/>
        <pt x="1641" y="830" on="0"/>
        <pt x="1642" y="775" on="1"/>
        <pt x="1642" y="722" on="0"/>
        <pt x="1596" y="624" on="0"/>
      </contour>
    </TTGlyph>
    <TTGlyph name="guilsinglleft" xMin="144" yMin="190" xMax="906" yMax="1364">
      <contour>
        <pt x="760" y="213" on="1"/>
        <pt x="234" y="593" on="1"/>
        <pt x="190" y="624" on="0"/>
        <pt x="144" y="722" on="0"/>
        <pt x="144" y="775" on="1"/>
        <pt x="145" y="830" on="0"/>
        <pt x="192" y="930" on="0"/>
        <pt x="234" y="961" on="1"/>
        <pt x="760" y="1341" on="1"/>
        <pt x="792" y="1364" on="0"/>
        <pt x="860" y="1364" on="0"/>
        <pt x="906" y="1314" on="0"/>
        <pt x="906" y="1278" on="1"/>
        <pt x="906" y="1241" on="0"/>
        <pt x="882" y="1209" on="1"/>
        <pt x="548" y="777" on="1"/>
        <pt x="882" y="345" on="1"/>
        <pt x="904" y="317" on="0"/>
        <pt x="904" y="277" on="1"/>
        <pt x="904" y="241" on="0"/>
        <pt x="858" y="190" on="0"/>
        <pt x="824" y="190" on="1"/>
        <pt x="791" y="190" on="0"/>
      </contour>
    </TTGlyph>
    <TTGlyph name="guilsinglright" xMin="144" yMin="190" xMax="906" yMax="1364">
      <contour>
        <pt x="816" y="593" on="1"/>
        <pt x="290" y="213" on="1"/>
        <pt x="259" y="190" on="0"/>
        <pt x="226" y="190" on="1"/>
        <pt x="192" y="190" on="0"/>
        <pt x="146" y="241" on="0"/>
        <pt x="146" y="277" on="1"/>
        <pt x="146" y="317" on="0"/>
        <pt x="168" y="345" on="1"/>
        <pt x="502" y="777" on="1"/>
        <pt x="168" y="1209" on="1"/>
        <pt x="144" y="1241" on="0"/>
        <pt x="144" y="1278" on="1"/>
        <pt x="144" y="1314" on="0"/>
        <pt x="190" y="1364" on="0"/>
        <pt x="258" y="1364" on="0"/>
        <pt x="290" y="1341" on="1"/>
        <pt x="816" y="961" on="1"/>
        <pt x="858" y="930" on="0"/>
        <pt x="905" y="830" on="0"/>
        <pt x="906" y="775" on="1"/>
        <pt x="906" y="722" on="0"/>
        <pt x="860" y="624" on="0"/>
      </contour>
    </TTGlyph>
    <TTGlyph name="h" xMin="101" yMin="0" xMax="1410" yMax="1710">
      <contour>
        <pt x="993" y="1327" on="1"/>
        <pt x="1410" y="1327" on="0"/>
        <pt x="1410" y="945" on="1"/>
        <pt x="1410" y="0" on="1"/>
        <pt x="839" y="0" on="1"/>
        <pt x="839" y="1105" on="1"/>
        <pt x="672" y="1105" on="1"/>
        <pt x="672" y="0" on="1"/>
        <pt x="101" y="0" on="1"/>
        <pt x="101" y="1710" on="1"/>
        <pt x="672" y="1710" on="1"/>
        <pt x="672" y="1210" on="1"/>
        <pt x="713" y="1266" on="0"/>
        <pt x="889" y="1327" on="0"/>
      </contour>
    </TTGlyph>
    <TTGlyph name="hbar" xMin="1" yMin="0" xMax="1439" yMax="1710">
      <contour>
        <pt x="1023" y="1343" on="1"/>
        <pt x="1439" y="1343" on="0"/>
        <pt x="1439" y="945" on="1"/>
        <pt x="1439" y="0" on="1"/>
        <pt x="868" y="0" on="1"/>
        <pt x="868" y="1065" on="1"/>
        <pt x="702" y="1065" on="1"/>
        <pt x="702" y="0" on="1"/>
        <pt x="130" y="0" on="1"/>
        <pt x="130" y="1450" on="1"/>
        <pt x="1" y="1450" on="1"/>
        <pt x="1" y="1619" on="1"/>
        <pt x="130" y="1619" on="1"/>
        <pt x="130" y="1710" on="1"/>
        <pt x="702" y="1710" on="1"/>
        <pt x="702" y="1619" on="1"/>
        <pt x="1146" y="1619" on="1"/>
        <pt x="1146" y="1450" on="1"/>
        <pt x="702" y="1450" on="1"/>
        <pt x="702" y="1210" on="1"/>
        <pt x="741" y="1274" on="0"/>
        <pt x="916" y="1343" on="0"/>
      </contour>
    </TTGlyph>
    <TTGlyph name="hcircumflex" xMin="101" yMin="0" xMax="1410" yMax="2409">
      <component glyphName=".ttfautohint" x="101" y="0" flags="0x0"/>
      <component glyphName="circumflex" x="278" y="401" flags="0x1004"/>
      <component glyphName="h" x="0" y="0" flags="0x1204"/>
    </TTGlyph>
    <TTGlyph name="hungarumlaut" xMin="55" yMin="1371" xMax="1553" yMax="1930">
      <contour>
        <pt x="89" y="1480" on="1"/>
        <pt x="124" y="1512" on="0"/>
        <pt x="304" y="1679" on="0"/>
        <pt x="403" y="1770" on="0"/>
        <pt x="528" y="1873" on="0"/>
        <pt x="563" y="1893" on="1"/>
        <pt x="627" y="1930" on="0"/>
        <pt x="688" y="1930" on="1"/>
        <pt x="763" y="1930" on="0"/>
        <pt x="862" y="1825" on="0"/>
        <pt x="862" y="1752" on="1"/>
        <pt x="862" y="1700" on="0"/>
        <pt x="804" y="1604" on="0"/>
        <pt x="746" y="1570" on="1"/>
        <pt x="710" y="1549" on="0"/>
        <pt x="558" y="1495" on="0"/>
        <pt x="421" y="1454" on="0"/>
        <pt x="201" y="1392" on="0"/>
        <pt x="150" y="1376" on="1"/>
        <pt x="136" y="1371" on="0"/>
        <pt x="118" y="1371" on="1"/>
        <pt x="91" y="1371" on="0"/>
        <pt x="55" y="1399" on="0"/>
        <pt x="55" y="1420" on="1"/>
        <pt x="55" y="1450" on="0"/>
      </contour>
      <contour>
        <pt x="780" y="1480" on="1"/>
        <pt x="815" y="1512" on="0"/>
        <pt x="995" y="1679" on="0"/>
        <pt x="1094" y="1770" on="0"/>
        <pt x="1219" y="1873" on="0"/>
        <pt x="1254" y="1893" on="1"/>
        <pt x="1318" y="1930" on="0"/>
        <pt x="1379" y="1930" on="1"/>
        <pt x="1454" y="1930" on="0"/>
        <pt x="1553" y="1825" on="0"/>
        <pt x="1553" y="1752" on="1"/>
        <pt x="1553" y="1700" on="0"/>
        <pt x="1495" y="1604" on="0"/>
        <pt x="1437" y="1570" on="1"/>
        <pt x="1401" y="1549" on="0"/>
        <pt x="1249" y="1495" on="0"/>
        <pt x="1112" y="1454" on="0"/>
        <pt x="892" y="1392" on="0"/>
        <pt x="841" y="1376" on="1"/>
        <pt x="827" y="1371" on="0"/>
        <pt x="809" y="1371" on="1"/>
        <pt x="782" y="1371" on="0"/>
        <pt x="746" y="1399" on="0"/>
        <pt x="746" y="1420" on="1"/>
        <pt x="746" y="1450" on="0"/>
      </contour>
    </TTGlyph>
    <TTGlyph name="hyphen" xMin="164" yMin="478" xMax="1165" yMax="811">
      <contour>
        <pt x="1165" y="811" on="1"/>
        <pt x="1165" y="478" on="1"/>
        <pt x="164" y="478" on="1"/>
        <pt x="164" y="811" on="1"/>
      </contour>
    </TTGlyph>
    <TTGlyph name="i" xMin="90" yMin="0" xMax="661" yMax="1709">
      <contour>
        <pt x="661" y="1709" on="1"/>
        <pt x="661" y="1425" on="1"/>
        <pt x="90" y="1425" on="1"/>
        <pt x="90" y="1709" on="1"/>
      </contour>
      <contour>
        <pt x="661" y="0" on="1"/>
        <pt x="90" y="0" on="1"/>
        <pt x="90" y="1300" on="1"/>
        <pt x="661" y="1300" on="1"/>
      </contour>
    </TTGlyph>
    <TTGlyph name="iacute" xMin="100" yMin="0" xMax="1112" yMax="1988">
      <component glyphName=".ttfautohint" x="100" y="0" flags="0x0"/>
      <component glyphName="acute" x="280" y="58" flags="0x1004"/>
      <component glyphName="dotlessi" x="0" y="0" flags="0x1204"/>
    </TTGlyph>
    <TTGlyph name="ibreve" xMin="-77" yMin="0" xMax="847" yMax="1910">
      <component glyphName=".ttfautohint" x="0" y="0" flags="0x0"/>
      <component glyphName="breve" x="-152" y="31" flags="0x1004"/>
      <component glyphName="dotlessi" x="0" y="0" flags="0x1204"/>
    </TTGlyph>
    <TTGlyph name="icircumflex" xMin="-38" yMin="0" xMax="808" yMax="2026">
      <component glyphName=".ttfautohint" x="0" y="0" flags="0x0"/>
      <component glyphName="circumflex" x="-92" y="18" flags="0x1004"/>
      <component glyphName="dotlessi" x="0" y="0" flags="0x1204"/>
    </TTGlyph>
    <TTGlyph name="idieresis" xMin="-183" yMin="0" xMax="951" yMax="1765">
      <component glyphName=".ttfautohint" x="0" y="0" flags="0x0"/>
      <component glyphName="dieresis" x="-266" y="1347" flags="0x1004"/>
      <component glyphName="dotlessi" x="0" y="0" flags="0x1204"/>
    </TTGlyph>
    <TTGlyph name="igrave" xMin="-343" yMin="0" xMax="669" yMax="1988">
      <component glyphName=".ttfautohint" x="0" y="0" flags="0x0"/>
      <component glyphName="grave" x="-384" y="58" flags="0x1004"/>
      <component glyphName="dotlessi" x="0" y="0" flags="0x1204"/>
    </TTGlyph>
    <TTGlyph name="ij" xMin="107" yMin="-326" xMax="1561" yMax="1709">
      <contour>
        <pt x="1561" y="1709" on="1"/>
        <pt x="1561" y="1425" on="1"/>
        <pt x="989" y="1425" on="1"/>
        <pt x="989" y="1709" on="1"/>
      </contour>
      <contour>
        <pt x="1561" y="94" on="1"/>
        <pt x="1561" y="-122" on="0"/>
        <pt x="1327" y="-326" on="0"/>
        <pt x="1100" y="-326" on="1"/>
        <pt x="936" y="-326" on="0"/>
        <pt x="830" y="-305" on="1"/>
        <pt x="800" y="-66" on="1"/>
        <pt x="989" y="-66" on="1"/>
        <pt x="989" y="1300" on="1"/>
        <pt x="1561" y="1300" on="1"/>
      </contour>
      <contour>
        <pt x="678" y="1709" on="1"/>
        <pt x="678" y="1425" on="1"/>
        <pt x="107" y="1425" on="1"/>
        <pt x="107" y="1709" on="1"/>
      </contour>
      <contour>
        <pt x="678" y="0" on="1"/>
        <pt x="107" y="0" on="1"/>
        <pt x="107" y="1300" on="1"/>
        <pt x="678" y="1300" on="1"/>
      </contour>
    </TTGlyph>
    <TTGlyph name="imacron" xMin="-32" yMin="0" xMax="801" yMax="1660">
      <component glyphName=".ttfautohint" x="0" y="0" flags="0x0"/>
      <component glyphName="macron" x="-119" y="763" flags="0x1004"/>
      <component glyphName="dotlessi" x="0" y="0" flags="0x1204"/>
    </TTGlyph>
    <TTGlyph name="iogonek" xMin="90" yMin="-751" xMax="727" yMax="1709">
      <component glyphName=".ttfautohint" x="90" y="0" flags="0x0"/>
      <component glyphName="ogonek" x="-60" y="-49" flags="0x1004"/>
      <component glyphName="i" x="0" y="0" flags="0x1204"/>
    </TTGlyph>
    <TTGlyph name="itilde" xMin="-255" yMin="0" xMax="1025" yMax="2005">
      <component glyphName=".ttfautohint" x="0" y="0" flags="0x0"/>
      <component glyphName="tilde" x="-334" y="1359" flags="0x1004"/>
      <component glyphName="dotlessi" x="0" y="0" flags="0x1204"/>
    </TTGlyph>
    <TTGlyph name="j" xMin="-24" yMin="-326" xMax="737" yMax="1709">
      <contour>
        <pt x="737" y="1709" on="1"/>
        <pt x="737" y="1425" on="1"/>
        <pt x="165" y="1425" on="1"/>
        <pt x="165" y="1709" on="1"/>
      </contour>
      <contour>
        <pt x="737" y="94" on="1"/>
        <pt x="737" y="-122" on="0"/>
        <pt x="503" y="-326" on="0"/>
        <pt x="276" y="-326" on="1"/>
        <pt x="112" y="-326" on="0"/>
        <pt x="6" y="-305" on="1"/>
        <pt x="-24" y="-66" on="1"/>
        <pt x="165" y="-66" on="1"/>
        <pt x="165" y="1300" on="1"/>
        <pt x="737" y="1300" on="1"/>
      </contour>
    </TTGlyph>
    <TTGlyph name="jcircumflex" xMin="-20" yMin="-326" xMax="826" yMax="2026">
      <component glyphName=".ttfautohint" x="0" y="0" flags="0x0"/>
      <component glyphName="circumflex" x="-74" y="18" flags="0x1004"/>
      <component glyphName="uni0237" x="0" y="0" flags="0x1204"/>
    </TTGlyph>
    <TTGlyph name="k" xMin="101" yMin="0" xMax="1534" yMax="1710">
      <contour>
        <pt x="101" y="0" on="1"/>
        <pt x="101" y="1710" on="1"/>
        <pt x="672" y="1710" on="1"/>
        <pt x="672" y="798" on="1"/>
        <pt x="941" y="1300" on="1"/>
        <pt x="1527" y="1300" on="1"/>
        <pt x="1196" y="690" on="1"/>
        <pt x="1534" y="0" on="1"/>
        <pt x="954" y="0" on="1"/>
        <pt x="715" y="575" on="1"/>
        <pt x="672" y="478" on="1"/>
        <pt x="672" y="0" on="1"/>
      </contour>
    </TTGlyph>
    <TTGlyph name="kcommaaccent" xMin="101" yMin="-745" xMax="1534" yMax="1710">
      <component glyphName=".ttfautohint" x="101" y="0" flags="0x0"/>
      <component glyphName="uni0326" x="470" y="-511" flags="0x1004"/>
      <component glyphName="k" x="0" y="0" flags="0x1204"/>
    </TTGlyph>
    <TTGlyph name="kgreenlandic" xMin="100" yMin="0" xMax="1561" yMax="1300">
      <contour>
        <pt x="100" y="0" on="1"/>
        <pt x="100" y="1299" on="1"/>
        <pt x="684" y="1299" on="1"/>
        <pt x="684" y="858" on="1"/>
        <pt x="952" y="1300" on="1"/>
        <pt x="1538" y="1300" on="1"/>
        <pt x="1203" y="790" on="1"/>
        <pt x="1561" y="0" on="1"/>
        <pt x="986" y="0" on="1"/>
        <pt x="797" y="455" on="1"/>
        <pt x="684" y="318" on="1"/>
        <pt x="684" y="0" on="1"/>
      </contour>
    </TTGlyph>
    <TTGlyph name="l" xMin="105" yMin="0" xMax="676" yMax="1710">
      <contour>
        <pt x="676" y="0" on="1"/>
        <pt x="105" y="0" on="1"/>
        <pt x="105" y="1710" on="1"/>
        <pt x="676" y="1710" on="1"/>
      </contour>
    </TTGlyph>
    <TTGlyph name="lacute" xMin="105" yMin="0" xMax="1118" yMax="2371">
      <component glyphName=".ttfautohint" x="105" y="0" flags="0x0"/>
      <component glyphName="acute" x="286" y="441" flags="0x1004"/>
      <component glyphName="l" x="0" y="0" flags="0x1204"/>
    </TTGlyph>
    <TTGlyph name="lcaron" xMin="105" yMin="0" xMax="1243" yMax="1710">
      <component glyphName=".ttfautohint" x="105" y="0" flags="0x0"/>
      <component glyphName="comma" x="688" y="1301" flags="0x1004"/>
      <component glyphName="l" x="0" y="0" flags="0x1004"/>
    </TTGlyph>
    <TTGlyph name="lcommaaccent" xMin="105" yMin="-745" xMax="676" yMax="1710">
      <component glyphName=".ttfautohint" x="105" y="0" flags="0x0"/>
      <component glyphName="uni0326" x="42" y="-511" flags="0x1004"/>
      <component glyphName="l" x="0" y="0" flags="0x1204"/>
    </TTGlyph>
    <TTGlyph name="ldot" xMin="105" yMin="0" xMax="1304" yMax="1710">
      <component glyphName=".ttfautohint" x="105" y="0" flags="0x0"/>
      <component glyphName="periodcentered" x="760" y="0" flags="0x1004"/>
      <component glyphName="l" x="0" y="0" flags="0x1004"/>
    </TTGlyph>
    <TTGlyph name="less" xMin="75" yMin="0" xMax="951" yMax="1597">
      <contour>
        <pt x="75" y="1098" on="1"/>
        <pt x="951" y="1597" on="1"/>
        <pt x="951" y="1092" on="1"/>
        <pt x="350" y="797" on="1"/>
        <pt x="951" y="504" on="1"/>
        <pt x="951" y="0" on="1"/>
        <pt x="75" y="489" on="1"/>
      </contour>
    </TTGlyph>
    <TTGlyph name="logicalnot" xMin="83" yMin="300" xMax="1179" yMax="1105">
      <contour>
        <pt x="1179" y="300" on="1"/>
        <pt x="950" y="300" on="1"/>
        <pt x="950" y="791" on="1"/>
        <pt x="83" y="791" on="1"/>
        <pt x="83" y="1105" on="1"/>
        <pt x="1179" y="1105" on="1"/>
      </contour>
    </TTGlyph>
    <TTGlyph name="lslash" xMin="64" yMin="0" xMax="1094" yMax="1710">
      <contour>
        <pt x="852" y="0" on="1"/>
        <pt x="281" y="0" on="1"/>
        <pt x="281" y="641" on="1"/>
        <pt x="64" y="539" on="1"/>
        <pt x="64" y="788" on="1"/>
        <pt x="281" y="890" on="1"/>
        <pt x="281" y="1710" on="1"/>
        <pt x="852" y="1710" on="1"/>
        <pt x="852" y="1158" on="1"/>
        <pt x="1094" y="1271" on="1"/>
        <pt x="1094" y="1023" on="1"/>
        <pt x="852" y="909" on="1"/>
      </contour>
    </TTGlyph>
    <TTGlyph name="m" xMin="96" yMin="0" xMax="2112" yMax="1327">
      <contour>
        <pt x="1689" y="1327" on="1"/>
        <pt x="1893" y="1327" on="0"/>
        <pt x="2112" y="1135" on="0"/>
        <pt x="2112" y="944" on="1"/>
        <pt x="2112" y="0" on="1"/>
        <pt x="1549" y="0" on="1"/>
        <pt x="1549" y="1105" on="1"/>
        <pt x="1376" y="1105" on="1"/>
        <pt x="1383" y="1067" on="0"/>
        <pt x="1383" y="1001" on="1"/>
        <pt x="1383" y="0" on="1"/>
        <pt x="826" y="0" on="1"/>
        <pt x="826" y="1105" on="1"/>
        <pt x="659" y="1105" on="1"/>
        <pt x="659" y="0" on="1"/>
        <pt x="96" y="0" on="1"/>
        <pt x="96" y="1300" on="1"/>
        <pt x="608" y="1300" on="1"/>
        <pt x="645" y="1188" on="1"/>
        <pt x="693" y="1253" on="0"/>
        <pt x="889" y="1327" on="0"/>
        <pt x="1003" y="1327" on="1"/>
        <pt x="1231" y="1327" on="0"/>
        <pt x="1342" y="1191" on="1"/>
        <pt x="1388" y="1258" on="0"/>
        <pt x="1569" y="1327" on="0"/>
      </contour>
    </TTGlyph>
    <TTGlyph name="macron" xMin="87" yMin="666" xMax="920" yMax="897">
      <contour>
        <pt x="920" y="897" on="1"/>
        <pt x="920" y="666" on="1"/>
        <pt x="87" y="666" on="1"/>
        <pt x="87" y="897" on="1"/>
      </contour>
    </TTGlyph>
    <TTGlyph name="minus" xMin="67" yMin="670" xMax="1229" yMax="908">
      <contour>
        <pt x="1229" y="908" on="1"/>
        <pt x="1229" y="670" on="1"/>
        <pt x="67" y="670" on="1"/>
        <pt x="67" y="908" on="1"/>
      </contour>
    </TTGlyph>
    <TTGlyph name="multiply" xMin="53" yMin="4" xMax="1266" yMax="1294">
      <contour>
        <pt x="1266" y="924" on="1"/>
        <pt x="1008" y="649" on="1"/>
        <pt x="1266" y="375" on="1"/>
        <pt x="917" y="4" on="1"/>
        <pt x="660" y="279" on="1"/>
        <pt x="401" y="4" on="1"/>
        <pt x="53" y="375" on="1"/>
        <pt x="311" y="649" on="1"/>
        <pt x="53" y="924" on="1"/>
        <pt x="401" y="1294" on="1"/>
        <pt x="660" y="1020" on="1"/>
        <pt x="917" y="1294" on="1"/>
      </contour>
    </TTGlyph>
    <TTGlyph name="n" xMin="96" yMin="0" xMax="1405" yMax="1327">
      <contour>
        <pt x="984" y="1327" on="1"/>
        <pt x="1189" y="1326" on="0"/>
        <pt x="1405" y="1132" on="0"/>
        <pt x="1405" y="944" on="1"/>
        <pt x="1405" y="0" on="1"/>
        <pt x="834" y="0" on="1"/>
        <pt x="834" y="1105" on="1"/>
        <pt x="667" y="1105" on="1"/>
        <pt x="667" y="0" on="1"/>
        <pt x="96" y="0" on="1"/>
        <pt x="96" y="1300" on="1"/>
        <pt x="606" y="1300" on="1"/>
        <pt x="643" y="1188" on="1"/>
        <pt x="688" y="1251" on="0"/>
        <pt x="872" y="1327" on="0"/>
      </contour>
    </TTGlyph>
    <TTGlyph name="nacute" xMin="96" yMin="0" xMax="1478" yMax="1988">
      <component glyphName=".ttfautohint" x="96" y="0" flags="0x0"/>
      <component glyphName="acute" x="646" y="58" flags="0x1004"/>
      <component glyphName="n" x="0" y="0" flags="0x1204"/>
    </TTGlyph>
    <TTGlyph name="ncaron" xMin="96" yMin="0" xMax="1405" yMax="2026">
      <component glyphName=".ttfautohint" x="96" y="0" flags="0x0"/>
      <component glyphName="caron" x="274" y="18" flags="0x1004"/>
      <component glyphName="n" x="0" y="0" flags="0x1204"/>
    </TTGlyph>
    <TTGlyph name="ncommaaccent" xMin="96" yMin="-745" xMax="1405" yMax="1327">
      <component glyphName=".ttfautohint" x="96" y="0" flags="0x0"/>
      <component glyphName="uni0326" x="402" y="-511" flags="0x1004"/>
      <component glyphName="n" x="0" y="0" flags="0x1204"/>
    </TTGlyph>
    <TTGlyph name="nine" xMin="68" yMin="-40" xMax="1365" yMax="1629">
      <contour>
        <pt x="68" y="1071" on="1"/>
        <pt x="68" y="1172" on="0"/>
        <pt x="100" y="1333" on="0"/>
        <pt x="156" y="1450" on="0"/>
        <pt x="246" y="1534" on="0"/>
        <pt x="349" y="1587" on="0"/>
        <pt x="490" y="1618" on="0"/>
        <pt x="631" y="1629" on="0"/>
        <pt x="722" y="1629" on="1"/>
        <pt x="848" y="1629" on="0"/>
        <pt x="1044" y="1598" on="0"/>
        <pt x="1205" y="1525" on="0"/>
        <pt x="1309" y="1407" on="0"/>
        <pt x="1365" y="1232" on="0"/>
        <pt x="1365" y="1116" on="1"/>
        <pt x="1365" y="520" on="1"/>
        <pt x="1365" y="391" on="0"/>
        <pt x="1309" y="198" on="0"/>
        <pt x="1207" y="71" on="0"/>
        <pt x="1047" y="-7" on="0"/>
        <pt x="857" y="-40" on="0"/>
        <pt x="733" y="-40" on="1"/>
        <pt x="125" y="-40" on="0"/>
        <pt x="115" y="328" on="1"/>
        <pt x="114" y="362" on="0"/>
        <pt x="114" y="424" on="1"/>
        <pt x="645" y="424" on="1"/>
        <pt x="645" y="225" on="1"/>
        <pt x="803" y="225" on="1"/>
        <pt x="803" y="508" on="1"/>
        <pt x="576" y="508" on="1"/>
        <pt x="428" y="508" on="0"/>
        <pt x="230" y="574" on="0"/>
        <pt x="115" y="719" on="0"/>
        <pt x="68" y="922" on="0"/>
      </contour>
      <contour>
        <pt x="799" y="1358" on="1"/>
        <pt x="628" y="1358" on="1"/>
        <pt x="628" y="779" on="1"/>
        <pt x="799" y="779" on="1"/>
      </contour>
    </TTGlyph>
    <TTGlyph name="ntilde" xMin="96" yMin="0" xMax="1405" yMax="2005">
      <component glyphName=".ttfautohint" x="96" y="0" flags="0x0"/>
      <component glyphName="tilde" x="32" y="1359" flags="0x1004"/>
      <component glyphName="n" x="0" y="0" flags="0x1204"/>
    </TTGlyph>
    <TTGlyph name="numbersign" xMin="70" yMin="0" xMax="1664" yMax="1595">
      <contour>
        <pt x="734" y="621" on="1"/>
        <pt x="931" y="621" on="1"/>
        <pt x="983" y="993" on="1"/>
        <pt x="786" y="993" on="1"/>
      </contour>
      <contour>
        <pt x="1567" y="430" on="1"/>
        <pt x="1402" y="430" on="1"/>
        <pt x="1342" y="0" on="1"/>
        <pt x="841" y="0" on="1"/>
        <pt x="902" y="429" on="1"/>
        <pt x="705" y="429" on="1"/>
        <pt x="645" y="0" on="1"/>
        <pt x="143" y="0" on="1"/>
        <pt x="204" y="429" on="1"/>
        <pt x="70" y="429" on="1"/>
        <pt x="96" y="621" on="1"/>
        <pt x="234" y="621" on="1"/>
        <pt x="285" y="993" on="1"/>
        <pt x="137" y="993" on="1"/>
        <pt x="166" y="1200" on="1"/>
        <pt x="319" y="1200" on="1"/>
        <pt x="373" y="1595" on="1"/>
        <pt x="872" y="1595" on="1"/>
        <pt x="819" y="1200" on="1"/>
        <pt x="1016" y="1200" on="1"/>
        <pt x="1071" y="1595" on="1"/>
        <pt x="1569" y="1595" on="1"/>
        <pt x="1516" y="1200" on="1"/>
        <pt x="1664" y="1200" on="1"/>
        <pt x="1634" y="994" on="1"/>
        <pt x="1483" y="994" on="1"/>
        <pt x="1431" y="621" on="1"/>
        <pt x="1594" y="621" on="1"/>
      </contour>
    </TTGlyph>
    <TTGlyph name="o" xMin="74" yMin="-30" xMax="1383" yMax="1327">
      <contour>
        <pt x="732" y="-30" on="1"/>
        <pt x="670" y="-30" on="0"/>
        <pt x="580" y="-28" on="0"/>
        <pt x="462" y="-20" on="0"/>
        <pt x="377" y="-5" on="0"/>
        <pt x="278" y="23" on="0"/>
        <pt x="209" y="61" on="0"/>
        <pt x="140" y="119" on="0"/>
        <pt x="99" y="191" on="0"/>
        <pt x="74" y="289" on="0"/>
        <pt x="74" y="348" on="1"/>
        <pt x="74" y="953" on="1"/>
        <pt x="74" y="1016" on="0"/>
        <pt x="105" y="1121" on="0"/>
        <pt x="166" y="1195" on="0"/>
        <pt x="241" y="1252" on="0"/>
        <pt x="345" y="1288" on="0"/>
        <pt x="442" y="1312" on="0"/>
        <pt x="569" y="1323" on="0"/>
        <pt x="669" y="1327" on="0"/>
        <pt x="733" y="1327" on="1"/>
        <pt x="811" y="1327" on="0"/>
        <pt x="930" y="1322" on="0"/>
        <pt x="1072" y="1304" on="0"/>
        <pt x="1175" y="1272" on="0"/>
        <pt x="1278" y="1216" on="0"/>
        <pt x="1343" y="1138" on="0"/>
        <pt x="1383" y="1024" on="0"/>
        <pt x="1383" y="952" on="1"/>
        <pt x="1383" y="347" on="1"/>
        <pt x="1383" y="270" on="0"/>
        <pt x="1340" y="150" on="0"/>
        <pt x="1277" y="71" on="0"/>
        <pt x="1166" y="16" on="0"/>
        <pt x="1070" y="-12" on="0"/>
        <pt x="916" y="-27" on="0"/>
        <pt x="815" y="-30" on="0"/>
      </contour>
      <contour>
        <pt x="645" y="228" on="1"/>
        <pt x="811" y="228" on="1"/>
        <pt x="811" y="1105" on="1"/>
        <pt x="645" y="1105" on="1"/>
      </contour>
    </TTGlyph>
    <TTGlyph name="oacute" xMin="74" yMin="-30" xMax="1456" yMax="1988">
      <component glyphName=".ttfautohint" x="74" y="0" flags="0x0"/>
      <component glyphName="acute" x="624" y="58" flags="0x1004"/>
      <component glyphName="o" x="0" y="0" flags="0x1204"/>
    </TTGlyph>
    <TTGlyph name="obreve" xMin="74" yMin="-30" xMax="1383" yMax="1910">
      <component glyphName=".ttfautohint" x="74" y="0" flags="0x0"/>
      <component glyphName="breve" x="192" y="31" flags="0x1004"/>
      <component glyphName="o" x="0" y="0" flags="0x1204"/>
    </TTGlyph>
    <TTGlyph name="ocircumflex" xMin="74" yMin="-30" xMax="1383" yMax="2026">
      <component glyphName=".ttfautohint" x="74" y="0" flags="0x0"/>
      <component glyphName="circumflex" x="252" y="18" flags="0x1004"/>
      <component glyphName="o" x="0" y="0" flags="0x1204"/>
    </TTGlyph>
    <TTGlyph name="odieresis" xMin="74" yMin="-30" xMax="1383" yMax="1765">
      <component glyphName=".ttfautohint" x="74" y="0" flags="0x0"/>
      <component glyphName="dieresis" x="78" y="1347" flags="0x1004"/>
      <component glyphName="o" x="0" y="0" flags="0x1204"/>
    </TTGlyph>
    <TTGlyph name="oe" xMin="85" yMin="-30" xMax="2069" yMax="1330">
      <contour>
        <pt x="1350" y="825" on="1"/>
        <pt x="1501" y="825" on="1"/>
        <pt x="1501" y="1051" on="1"/>
        <pt x="1350" y="1051" on="1"/>
      </contour>
      <contour>
        <pt x="649" y="248" on="1"/>
        <pt x="799" y="248" on="1"/>
        <pt x="799" y="1051" on="1"/>
        <pt x="649" y="1051" on="1"/>
      </contour>
      <contour>
        <pt x="1448" y="-28" on="1"/>
        <pt x="1381" y="-28" on="0"/>
        <pt x="1273" y="-18" on="0"/>
        <pt x="1166" y="7" on="0"/>
        <pt x="1092" y="58" on="0"/>
        <pt x="1075" y="96" on="1"/>
        <pt x="1074" y="94" on="1"/>
        <pt x="989" y="-30" on="0"/>
        <pt x="711" y="-30" on="1"/>
        <pt x="610" y="-30" on="0"/>
        <pt x="452" y="-18" on="0"/>
        <pt x="283" y="21" on="0"/>
        <pt x="169" y="87" on="0"/>
        <pt x="92" y="203" on="0"/>
        <pt x="88" y="282" on="1"/>
        <pt x="85" y="327" on="0"/>
        <pt x="85" y="367" on="1"/>
        <pt x="85" y="930" on="1"/>
        <pt x="85" y="1066" on="0"/>
        <pt x="170" y="1217" on="0"/>
        <pt x="268" y="1262" on="1"/>
        <pt x="420" y="1330" on="0"/>
        <pt x="710" y="1330" on="1"/>
        <pt x="1011" y="1330" on="0"/>
        <pt x="1074" y="1211" on="1"/>
        <pt x="1151" y="1330" on="0"/>
        <pt x="1447" y="1330" on="1"/>
        <pt x="1736" y="1330" on="0"/>
        <pt x="1888" y="1262" on="1"/>
        <pt x="2059" y="1186" on="0"/>
        <pt x="2067" y="1016" on="1"/>
        <pt x="2069" y="956" on="0"/>
        <pt x="2069" y="931" on="1"/>
        <pt x="2065" y="620" on="1"/>
        <pt x="1351" y="620" on="1"/>
        <pt x="1351" y="249" on="1"/>
        <pt x="1502" y="249" on="1"/>
        <pt x="1502" y="554" on="1"/>
        <pt x="2069" y="554" on="1"/>
        <pt x="2069" y="368" on="1"/>
        <pt x="2069" y="233" on="0"/>
        <pt x="1986" y="82" on="0"/>
        <pt x="1889" y="39" on="1"/>
        <pt x="1736" y="-28" on="0"/>
      </contour>
    </TTGlyph>
    <TTGlyph name="ogonek" xMin="256" yMin="-702" xMax="787" yMax="0">
      <contour>
        <pt x="566" y="0" on="1"/>
        <pt x="637" y="-72" on="1"/>
        <pt x="586" y="-106" on="0"/>
        <pt x="527" y="-211" on="0"/>
        <pt x="527" y="-311" on="0"/>
        <pt x="590" y="-375" on="0"/>
        <pt x="652" y="-375" on="1"/>
        <pt x="709" y="-375" on="0"/>
        <pt x="787" y="-346" on="1"/>
        <pt x="787" y="-661" on="1"/>
        <pt x="679" y="-702" on="0"/>
        <pt x="586" y="-702" on="1"/>
        <pt x="436" y="-702" on="0"/>
        <pt x="256" y="-518" on="0"/>
        <pt x="256" y="-388" on="1"/>
        <pt x="256" y="-271" on="0"/>
        <pt x="412" y="-60" on="0"/>
      </contour>
    </TTGlyph>
    <TTGlyph name="ograve" xMin="1" yMin="-30" xMax="1383" yMax="1988">
      <component glyphName=".ttfautohint" x="1" y="0" flags="0x0"/>
      <component glyphName="grave" x="-40" y="58" flags="0x1004"/>
      <component glyphName="o" x="0" y="0" flags="0x1204"/>
    </TTGlyph>
    <TTGlyph name="ohungarumlaut" xMin="74" yMin="-30" xMax="1802" yMax="1988">
      <component glyphName=".ttfautohint" x="74" y="0" flags="0x0"/>
      <component glyphName="hungarumlaut" x="249" y="58" flags="0x1004"/>
      <component glyphName="o" x="0" y="0" flags="0x1204"/>
    </TTGlyph>
    <TTGlyph name="omacron" xMin="74" yMin="-30" xMax="1383" yMax="1660">
      <component glyphName=".ttfautohint" x="74" y="0" flags="0x0"/>
      <component glyphName="macron" x="225" y="763" flags="0x1004"/>
      <component glyphName="o" x="0" y="0" flags="0x1204"/>
    </TTGlyph>
    <TTGlyph name="one" xMin="41" yMin="0" xMax="866" yMax="1595">
      <contour>
        <pt x="41" y="1511" on="1"/>
        <pt x="249" y="1511" on="0"/>
        <pt x="388" y="1595" on="1"/>
        <pt x="866" y="1595" on="1"/>
        <pt x="866" y="0" on="1"/>
        <pt x="262" y="0" on="1"/>
        <pt x="262" y="1291" on="1"/>
        <pt x="41" y="1291" on="1"/>
      </contour>
    </TTGlyph>
    <TTGlyph name="onehalf" xMin="31" yMin="0" xMax="2522" yMax="1595">
      <contour>
        <pt x="766" y="0" on="1"/>
        <pt x="1118" y="1595" on="1"/>
        <pt x="1552" y="1595" on="1"/>
        <pt x="1201" y="0" on="1"/>
      </contour>
      <contour>
        <pt x="31" y="1415" on="1"/>
        <pt x="168" y="1415" on="0"/>
        <pt x="258" y="1470" on="1"/>
        <pt x="570" y="1470" on="1"/>
        <pt x="570" y="430" on="1"/>
        <pt x="175" y="430" on="1"/>
        <pt x="175" y="1271" on="1"/>
        <pt x="31" y="1271" on="1"/>
      </contour>
      <contour>
        <pt x="1685" y="836" on="1"/>
        <pt x="1685" y="843" on="0"/>
        <pt x="1684" y="871" on="0"/>
        <pt x="1684" y="878" on="1"/>
        <pt x="1684" y="957" on="0"/>
        <pt x="1726" y="1075" on="0"/>
        <pt x="1798" y="1148" on="0"/>
        <pt x="1908" y="1192" on="0"/>
        <pt x="2028" y="1209" on="0"/>
        <pt x="2106" y="1209" on="1"/>
        <pt x="2210" y="1209" on="0"/>
        <pt x="2355" y="1179" on="0"/>
        <pt x="2467" y="1106" on="0"/>
        <pt x="2522" y="974" on="0"/>
        <pt x="2522" y="876" on="1"/>
        <pt x="2522" y="806" on="0"/>
        <pt x="2484" y="690" on="0"/>
        <pt x="2430" y="613" on="0"/>
        <pt x="2336" y="542" on="0"/>
        <pt x="2258" y="501" on="0"/>
        <pt x="2199" y="474" on="1"/>
        <pt x="2166" y="459" on="0"/>
        <pt x="2124" y="437" on="0"/>
        <pt x="2074" y="401" on="0"/>
        <pt x="2049" y="358" on="0"/>
        <pt x="2049" y="332" on="1"/>
        <pt x="2482" y="332" on="1"/>
        <pt x="2482" y="134" on="1"/>
        <pt x="1685" y="134" on="1"/>
        <pt x="1685" y="313" on="1"/>
        <pt x="1685" y="409" on="0"/>
        <pt x="1731" y="557" on="0"/>
        <pt x="1823" y="663" on="0"/>
        <pt x="1935" y="737" on="0"/>
        <pt x="2013" y="768" on="1"/>
        <pt x="2045" y="781" on="0"/>
        <pt x="2079" y="797" on="0"/>
        <pt x="2127" y="825" on="0"/>
        <pt x="2149" y="858" on="0"/>
        <pt x="2149" y="877" on="1"/>
        <pt x="2149" y="1030" on="1"/>
        <pt x="2049" y="1030" on="1"/>
        <pt x="2049" y="836" on="1"/>
      </contour>
    </TTGlyph>
    <TTGlyph name="onequarter" xMin="31" yMin="0" xMax="2499" yMax="1595">
      <contour>
        <pt x="751" y="0" on="1"/>
        <pt x="1103" y="1595" on="1"/>
        <pt x="1537" y="1595" on="1"/>
        <pt x="1186" y="0" on="1"/>
      </contour>
      <contour>
        <pt x="31" y="1415" on="1"/>
        <pt x="168" y="1415" on="0"/>
        <pt x="258" y="1470" on="1"/>
        <pt x="570" y="1470" on="1"/>
        <pt x="570" y="430" on="1"/>
        <pt x="175" y="430" on="1"/>
        <pt x="175" y="1271" on="1"/>
        <pt x="31" y="1271" on="1"/>
      </contour>
      <contour>
        <pt x="2499" y="130" on="1"/>
        <pt x="2140" y="130" on="1"/>
        <pt x="2140" y="291" on="1"/>
        <pt x="1624" y="291" on="1"/>
        <pt x="1624" y="571" on="1"/>
        <pt x="1794" y="1172" on="1"/>
        <pt x="2179" y="1172" on="1"/>
        <pt x="2010" y="571" on="1"/>
        <pt x="2010" y="535" on="1"/>
        <pt x="2140" y="535" on="1"/>
        <pt x="2140" y="760" on="1"/>
        <pt x="2499" y="760" on="1"/>
      </contour>
    </TTGlyph>
    <TTGlyph name="ordfeminine" xMin="72" yMin="263" xMax="1409" yMax="1616">
      <contour>
        <pt x="644" y="942" on="1"/>
        <pt x="644" y="489" on="1"/>
        <pt x="810" y="489" on="1"/>
        <pt x="810" y="942" on="1"/>
      </contour>
      <contour>
        <pt x="135" y="1294" on="1"/>
        <pt x="135" y="1354" on="0"/>
        <pt x="172" y="1450" on="0"/>
        <pt x="234" y="1516" on="0"/>
        <pt x="328" y="1565" on="0"/>
        <pt x="427" y="1594" on="0"/>
        <pt x="556" y="1611" on="0"/>
        <pt x="670" y="1616" on="0"/>
        <pt x="739" y="1616" on="1"/>
        <pt x="1031" y="1616" on="0"/>
        <pt x="1186" y="1553" on="1"/>
        <pt x="1289" y="1511" on="0"/>
        <pt x="1380" y="1372" on="0"/>
        <pt x="1380" y="1241" on="1"/>
        <pt x="1380" y="546" on="1"/>
        <pt x="1381" y="547" on="1"/>
        <pt x="1381" y="420" on="0"/>
        <pt x="1409" y="290" on="1"/>
        <pt x="889" y="290" on="1"/>
        <pt x="833" y="428" on="1"/>
        <pt x="786" y="350" on="0"/>
        <pt x="613" y="263" on="0"/>
        <pt x="493" y="263" on="1"/>
        <pt x="279" y="263" on="0"/>
        <pt x="72" y="466" on="0"/>
        <pt x="72" y="677" on="1"/>
        <pt x="72" y="902" on="0"/>
        <pt x="308" y="1113" on="0"/>
        <pt x="544" y="1113" on="1"/>
        <pt x="685" y="1113" on="0"/>
        <pt x="810" y="1072" on="1"/>
        <pt x="810" y="1395" on="1"/>
        <pt x="671" y="1395" on="1"/>
        <pt x="671" y="1204" on="1"/>
        <pt x="146" y="1184" on="1"/>
        <pt x="135" y="1248" on="0"/>
      </contour>
    </TTGlyph>
    <TTGlyph name="ordmasculine" xMin="218" yMin="99" xMax="1265" yMax="1204">
      <contour>
        <pt x="675" y="317" on="1"/>
        <pt x="808" y="317" on="1"/>
        <pt x="808" y="1014" on="1"/>
        <pt x="675" y="1014" on="1"/>
      </contour>
      <contour>
        <pt x="744" y="99" on="1"/>
        <pt x="679" y="99" on="0"/>
        <pt x="589" y="102" on="0"/>
        <pt x="470" y="116" on="0"/>
        <pt x="389" y="141" on="0"/>
        <pt x="303" y="188" on="0"/>
        <pt x="251" y="253" on="0"/>
        <pt x="218" y="351" on="0"/>
        <pt x="218" y="413" on="1"/>
        <pt x="218" y="893" on="1"/>
        <pt x="218" y="954" on="0"/>
        <pt x="253" y="1050" on="0"/>
        <pt x="307" y="1115" on="0"/>
        <pt x="395" y="1161" on="0"/>
        <pt x="479" y="1186" on="0"/>
        <pt x="595" y="1200" on="0"/>
        <pt x="685" y="1204" on="0"/>
        <pt x="745" y="1204" on="1"/>
        <pt x="807" y="1204" on="0"/>
        <pt x="900" y="1200" on="0"/>
        <pt x="1014" y="1185" on="0"/>
        <pt x="1097" y="1159" on="0"/>
        <pt x="1180" y="1112" on="0"/>
        <pt x="1232" y="1048" on="0"/>
        <pt x="1265" y="952" on="0"/>
        <pt x="1265" y="892" on="1"/>
        <pt x="1265" y="412" on="1"/>
        <pt x="1265" y="339" on="0"/>
        <pt x="1226" y="230" on="0"/>
        <pt x="1140" y="164" on="0"/>
        <pt x="1057" y="123" on="0"/>
        <pt x="916" y="105" on="0"/>
        <pt x="824" y="100" on="0"/>
      </contour>
    </TTGlyph>
    <TTGlyph name="oslash" xMin="56" yMin="-39" xMax="1406" yMax="1344">
      <contour>
        <pt x="657" y="636" on="1"/>
        <pt x="823" y="806" on="1"/>
        <pt x="823" y="1106" on="1"/>
        <pt x="657" y="1106" on="1"/>
      </contour>
      <contour>
        <pt x="657" y="234" on="1"/>
        <pt x="823" y="234" on="1"/>
        <pt x="823" y="689" on="1"/>
        <pt x="657" y="519" on="1"/>
      </contour>
      <contour>
        <pt x="86" y="952" on="1"/>
        <pt x="86" y="1025" on="0"/>
        <pt x="123" y="1140" on="0"/>
        <pt x="185" y="1221" on="0"/>
        <pt x="283" y="1281" on="0"/>
        <pt x="389" y="1316" on="0"/>
        <pt x="531" y="1336" on="0"/>
        <pt x="662" y="1343" on="0"/>
        <pt x="745" y="1343" on="1"/>
        <pt x="744" y="1344" on="1"/>
        <pt x="917" y="1344" on="0"/>
        <pt x="1165" y="1302" on="0"/>
        <pt x="1255" y="1249" on="1"/>
        <pt x="1348" y="1344" on="1"/>
        <pt x="1406" y="1286" on="1"/>
        <pt x="1320" y="1198" on="1"/>
        <pt x="1395" y="1122" on="0"/>
        <pt x="1395" y="952" on="1"/>
        <pt x="1395" y="352" on="1"/>
        <pt x="1395" y="220" on="0"/>
        <pt x="1299" y="69" on="0"/>
        <pt x="1197" y="27" on="1"/>
        <pt x="1037" y="-39" on="0"/>
        <pt x="744" y="-39" on="1"/>
        <pt x="562" y="-39" on="0"/>
        <pt x="305" y="6" on="0"/>
        <pt x="215" y="65" on="1"/>
        <pt x="114" y="-39" on="1"/>
        <pt x="56" y="19" on="1"/>
        <pt x="153" y="118" on="1"/>
        <pt x="86" y="194" on="0"/>
        <pt x="86" y="352" on="1"/>
      </contour>
    </TTGlyph>
    <TTGlyph name="otilde" xMin="74" yMin="-30" xMax="1383" yMax="2005">
      <component glyphName=".ttfautohint" x="74" y="0" flags="0x0"/>
      <component glyphName="tilde" x="10" y="1359" flags="0x1004"/>
      <component glyphName="o" x="0" y="0" flags="0x1204"/>
    </TTGlyph>
    <TTGlyph name="p" xMin="96" yMin="-410" xMax="1406" yMax="1327">
      <contour>
        <pt x="667" y="199" on="1"/>
        <pt x="834" y="199" on="1"/>
        <pt x="834" y="1105" on="1"/>
        <pt x="667" y="1105" on="1"/>
      </contour>
      <contour>
        <pt x="986" y="-30" on="1"/>
        <pt x="879" y="-30" on="0"/>
        <pt x="712" y="29" on="0"/>
        <pt x="667" y="87" on="1"/>
        <pt x="667" y="-410" on="1"/>
        <pt x="96" y="-410" on="1"/>
        <pt x="96" y="1300" on="1"/>
        <pt x="586" y="1300" on="1"/>
        <pt x="623" y="1188" on="1"/>
        <pt x="672" y="1254" on="0"/>
        <pt x="867" y="1327" on="0"/>
        <pt x="983" y="1327" on="1"/>
        <pt x="1406" y="1327" on="0"/>
        <pt x="1406" y="926" on="1"/>
        <pt x="1406" y="365" on="1"/>
        <pt x="1406" y="-30" on="0"/>
      </contour>
    </TTGlyph>
    <TTGlyph name="paragraph" xMin="56" yMin="0" xMax="1223" yMax="1595">
      <contour>
        <pt x="591" y="659" on="1"/>
        <pt x="330" y="659" on="0"/>
        <pt x="56" y="872" on="0"/>
        <pt x="56" y="1107" on="1"/>
        <pt x="56" y="1226" on="0"/>
        <pt x="123" y="1403" on="0"/>
        <pt x="233" y="1509" on="0"/>
        <pt x="402" y="1573" on="0"/>
        <pt x="576" y="1595" on="0"/>
        <pt x="689" y="1595" on="1"/>
        <pt x="1223" y="1595" on="1"/>
        <pt x="1223" y="0" on="1"/>
        <pt x="962" y="0" on="1"/>
        <pt x="962" y="658" on="1"/>
        <pt x="853" y="658" on="1"/>
        <pt x="853" y="0" on="1"/>
        <pt x="591" y="0" on="1"/>
      </contour>
    </TTGlyph>
    <TTGlyph name="parenleft" xMin="51" yMin="-169" xMax="771" yMax="1841">
      <contour>
        <pt x="51" y="674" on="0"/>
        <pt x="51" y="980" on="0"/>
        <pt x="99" y="1270" on="0"/>
        <pt x="201" y="1531" on="0"/>
        <pt x="346" y="1726" on="0"/>
        <pt x="554" y="1841" on="0"/>
        <pt x="678" y="1841" on="1"/>
        <pt x="771" y="1841" on="1"/>
        <pt x="771" y="1562" on="1"/>
        <pt x="706" y="1562" on="1"/>
        <pt x="629" y="1562" on="0"/>
        <pt x="511" y="1343" on="0"/>
        <pt x="453" y="1012" on="0"/>
        <pt x="453" y="642" on="0"/>
        <pt x="511" y="320" on="0"/>
        <pt x="629" y="110" on="0"/>
        <pt x="706" y="110" on="1"/>
        <pt x="771" y="110" on="1"/>
        <pt x="771" y="-169" on="1"/>
        <pt x="678" y="-169" on="1"/>
        <pt x="554" y="-169" on="0"/>
        <pt x="346" y="-58" on="0"/>
        <pt x="201" y="132" on="0"/>
        <pt x="99" y="388" on="0"/>
      </contour>
    </TTGlyph>
    <TTGlyph name="parenright" xMin="90" yMin="-169" xMax="810" yMax="1841">
      <contour>
        <pt x="810" y="980" on="0"/>
        <pt x="810" y="674" on="0"/>
        <pt x="762" y="388" on="0"/>
        <pt x="660" y="132" on="0"/>
        <pt x="515" y="-58" on="0"/>
        <pt x="307" y="-169" on="0"/>
        <pt x="183" y="-169" on="1"/>
        <pt x="90" y="-169" on="1"/>
        <pt x="90" y="110" on="1"/>
        <pt x="155" y="110" on="1"/>
        <pt x="232" y="110" on="0"/>
        <pt x="350" y="320" on="0"/>
        <pt x="408" y="642" on="0"/>
        <pt x="408" y="1012" on="0"/>
        <pt x="350" y="1343" on="0"/>
        <pt x="232" y="1562" on="0"/>
        <pt x="155" y="1562" on="1"/>
        <pt x="90" y="1562" on="1"/>
        <pt x="90" y="1841" on="1"/>
        <pt x="183" y="1841" on="1"/>
        <pt x="307" y="1841" on="0"/>
        <pt x="515" y="1726" on="0"/>
        <pt x="660" y="1531" on="0"/>
        <pt x="762" y="1270" on="0"/>
      </contour>
    </TTGlyph>
    <TTGlyph name="percent" xMin="125" yMin="-39" xMax="2665" yMax="1632">
      <contour>
        <pt x="1779" y="1632" on="1"/>
        <pt x="1403" y="-39" on="1"/>
        <pt x="1015" y="-39" on="1"/>
        <pt x="1395" y="1632" on="1"/>
      </contour>
      <contour>
        <pt x="2215" y="129" on="1"/>
        <pt x="2158" y="129" on="0"/>
        <pt x="2079" y="132" on="0"/>
        <pt x="1977" y="146" on="0"/>
        <pt x="1908" y="171" on="0"/>
        <pt x="1836" y="218" on="0"/>
        <pt x="1793" y="282" on="0"/>
        <pt x="1765" y="379" on="0"/>
        <pt x="1765" y="441" on="1"/>
        <pt x="1765" y="798" on="1"/>
        <pt x="1765" y="859" on="0"/>
        <pt x="1793" y="956" on="0"/>
        <pt x="1836" y="1020" on="0"/>
        <pt x="1908" y="1066" on="0"/>
        <pt x="1977" y="1091" on="0"/>
        <pt x="2078" y="1105" on="0"/>
        <pt x="2158" y="1109" on="0"/>
        <pt x="2270" y="1109" on="0"/>
        <pt x="2349" y="1106" on="0"/>
        <pt x="2451" y="1092" on="0"/>
        <pt x="2521" y="1067" on="0"/>
        <pt x="2593" y="1021" on="0"/>
        <pt x="2637" y="956" on="0"/>
        <pt x="2665" y="860" on="0"/>
        <pt x="2665" y="799" on="1"/>
        <pt x="2665" y="442" on="1"/>
        <pt x="2665" y="382" on="0"/>
        <pt x="2637" y="286" on="0"/>
        <pt x="2593" y="221" on="0"/>
        <pt x="2521" y="174" on="0"/>
        <pt x="2450" y="148" on="0"/>
        <pt x="2351" y="133" on="0"/>
        <pt x="2269" y="129" on="0"/>
      </contour>
      <contour>
        <pt x="2262" y="892" on="1"/>
        <pt x="2172" y="892" on="1"/>
        <pt x="2172" y="347" on="1"/>
        <pt x="2262" y="347" on="1"/>
      </contour>
      <contour>
        <pt x="575" y="618" on="1"/>
        <pt x="528" y="618" on="0"/>
        <pt x="471" y="619" on="0"/>
        <pt x="384" y="625" on="0"/>
        <pt x="330" y="636" on="0"/>
        <pt x="259" y="658" on="0"/>
        <pt x="216" y="688" on="0"/>
        <pt x="168" y="735" on="0"/>
        <pt x="142" y="795" on="0"/>
        <pt x="125" y="877" on="0"/>
        <pt x="125" y="927" on="1"/>
        <pt x="125" y="1286" on="1"/>
        <pt x="125" y="1339" on="0"/>
        <pt x="144" y="1426" on="0"/>
        <pt x="184" y="1488" on="0"/>
        <pt x="232" y="1535" on="0"/>
        <pt x="302" y="1564" on="0"/>
        <pt x="366" y="1583" on="0"/>
        <pt x="455" y="1592" on="0"/>
        <pt x="526" y="1595" on="0"/>
        <pt x="622" y="1595" on="0"/>
        <pt x="692" y="1592" on="0"/>
        <pt x="782" y="1584" on="0"/>
        <pt x="847" y="1565" on="0"/>
        <pt x="917" y="1536" on="0"/>
        <pt x="965" y="1489" on="0"/>
        <pt x="1005" y="1428" on="0"/>
        <pt x="1025" y="1341" on="0"/>
        <pt x="1025" y="1288" on="1"/>
        <pt x="1025" y="929" on="1"/>
        <pt x="1025" y="867" on="0"/>
        <pt x="997" y="769" on="0"/>
        <pt x="954" y="704" on="0"/>
        <pt x="880" y="658" on="0"/>
        <pt x="813" y="634" on="0"/>
        <pt x="709" y="621" on="0"/>
        <pt x="633" y="618" on="0"/>
      </contour>
      <contour>
        <pt x="623" y="1378" on="1"/>
        <pt x="532" y="1378" on="1"/>
        <pt x="532" y="833" on="1"/>
        <pt x="623" y="833" on="1"/>
      </contour>
    </TTGlyph>
    <TTGlyph name="period" xMin="136" yMin="-39" xMax="544" yMax="381">
      <contour>
        <pt x="136" y="72" on="0"/>
        <pt x="136" y="270" on="0"/>
        <pt x="257" y="381" on="0"/>
        <pt x="423" y="381" on="0"/>
        <pt x="544" y="270" on="0"/>
        <pt x="544" y="72" on="0"/>
        <pt x="423" y="-39" on="0"/>
        <pt x="257" y="-39" on="0"/>
      </contour>
    </TTGlyph>
    <TTGlyph name="periodcentered" xMin="136" yMin="906" xMax="544" yMax="1326">
      <contour>
        <pt x="136" y="1017" on="0"/>
        <pt x="136" y="1215" on="0"/>
        <pt x="257" y="1326" on="0"/>
        <pt x="423" y="1326" on="0"/>
        <pt x="544" y="1215" on="0"/>
        <pt x="544" y="1017" on="0"/>
        <pt x="423" y="906" on="0"/>
        <pt x="257" y="906" on="0"/>
      </contour>
    </TTGlyph>
    <TTGlyph name="plus" xMin="104" yMin="100" xMax="1225" yMax="1192">
      <contour>
        <pt x="469" y="811" on="1"/>
        <pt x="469" y="1192" on="1"/>
        <pt x="861" y="1192" on="1"/>
        <pt x="861" y="811" on="1"/>
        <pt x="1225" y="811" on="1"/>
        <pt x="1225" y="478" on="1"/>
        <pt x="861" y="478" on="1"/>
        <pt x="861" y="100" on="1"/>
        <pt x="469" y="100" on="1"/>
        <pt x="469" y="478" on="1"/>
        <pt x="104" y="478" on="1"/>
        <pt x="104" y="811" on="1"/>
      </contour>
    </TTGlyph>
    <TTGlyph name="plusminus" xMin="92" yMin="-1" xMax="1213" yMax="1595">
      <contour>
        <pt x="1064" y="300" on="1"/>
        <pt x="1064" y="-1" on="1"/>
        <pt x="230" y="-1" on="1"/>
        <pt x="230" y="300" on="1"/>
      </contour>
      <contour>
        <pt x="457" y="1214" on="1"/>
        <pt x="457" y="1595" on="1"/>
        <pt x="849" y="1595" on="1"/>
        <pt x="849" y="1214" on="1"/>
        <pt x="1213" y="1214" on="1"/>
        <pt x="1213" y="881" on="1"/>
        <pt x="849" y="881" on="1"/>
        <pt x="849" y="503" on="1"/>
        <pt x="457" y="503" on="1"/>
        <pt x="457" y="881" on="1"/>
        <pt x="92" y="881" on="1"/>
        <pt x="92" y="1214" on="1"/>
      </contour>
    </TTGlyph>
    <TTGlyph name="q" xMin="85" yMin="-410" xMax="1381" yMax="1327">
      <contour>
        <pt x="817" y="1105" on="1"/>
        <pt x="652" y="1105" on="1"/>
        <pt x="652" y="199" on="1"/>
        <pt x="817" y="199" on="1"/>
      </contour>
      <contour>
        <pt x="502" y="1327" on="1"/>
        <pt x="606" y="1327" on="0"/>
        <pt x="787" y="1250" on="0"/>
        <pt x="831" y="1188" on="1"/>
        <pt x="869" y="1300" on="1"/>
        <pt x="1381" y="1300" on="1"/>
        <pt x="1381" y="-410" on="1"/>
        <pt x="832" y="-410" on="1"/>
        <pt x="832" y="87" on="1"/>
        <pt x="730" y="-30" on="0"/>
        <pt x="501" y="-30" on="1"/>
        <pt x="86" y="-30" on="0"/>
        <pt x="86" y="365" on="1"/>
        <pt x="86" y="926" on="1"/>
        <pt x="85" y="926" on="1"/>
        <pt x="85" y="1327" on="0"/>
      </contour>
    </TTGlyph>
    <TTGlyph name="question" xMin="69" yMin="-39" xMax="873" yMax="1632">
      <contour>
        <pt x="153" y="72" on="0"/>
        <pt x="153" y="270" on="0"/>
        <pt x="274" y="381" on="0"/>
        <pt x="440" y="381" on="0"/>
        <pt x="561" y="270" on="0"/>
        <pt x="561" y="72" on="0"/>
        <pt x="440" y="-39" on="0"/>
        <pt x="274" y="-39" on="0"/>
      </contour>
      <contour>
        <pt x="417" y="567" on="1"/>
        <pt x="410" y="510" on="0"/>
        <pt x="355" y="510" on="1"/>
        <pt x="294" y="510" on="0"/>
        <pt x="294" y="582" on="1"/>
        <pt x="294" y="661" on="0"/>
        <pt x="332" y="827" on="0"/>
        <pt x="380" y="943" on="0"/>
        <pt x="431" y="1078" on="0"/>
        <pt x="439" y="1123" on="1"/>
        <pt x="441" y="1141" on="0"/>
        <pt x="441" y="1150" on="1"/>
        <pt x="441" y="1201" on="0"/>
        <pt x="372" y="1264" on="0"/>
        <pt x="299" y="1264" on="1"/>
        <pt x="221" y="1264" on="0"/>
        <pt x="105" y="1215" on="1"/>
        <pt x="69" y="1562" on="1"/>
        <pt x="288" y="1632" on="0"/>
        <pt x="440" y="1632" on="1"/>
        <pt x="537" y="1632" on="0"/>
        <pt x="689" y="1596" on="0"/>
        <pt x="786" y="1536" on="0"/>
        <pt x="848" y="1452" on="0"/>
        <pt x="873" y="1364" on="0"/>
        <pt x="873" y="1313" on="1"/>
        <pt x="873" y="1251" on="0"/>
        <pt x="827" y="1138" on="0"/>
        <pt x="752" y="1046" on="0"/>
        <pt x="661" y="956" on="0"/>
        <pt x="566" y="862" on="0"/>
        <pt x="484" y="764" on="0"/>
        <pt x="425" y="637" on="0"/>
      </contour>
    </TTGlyph>
    <TTGlyph name="questiondown" xMin="37" yMin="-34" xMax="841" yMax="1637">
      <contour>
        <pt x="757" y="1526" on="0"/>
        <pt x="757" y="1328" on="0"/>
        <pt x="636" y="1217" on="0"/>
        <pt x="470" y="1217" on="0"/>
        <pt x="349" y="1328" on="0"/>
        <pt x="349" y="1526" on="0"/>
        <pt x="470" y="1637" on="0"/>
        <pt x="636" y="1637" on="0"/>
      </contour>
      <contour>
        <pt x="493" y="1031" on="1"/>
        <pt x="500" y="1088" on="0"/>
        <pt x="555" y="1088" on="1"/>
        <pt x="616" y="1088" on="0"/>
        <pt x="616" y="1016" on="1"/>
        <pt x="616" y="937" on="0"/>
        <pt x="578" y="771" on="0"/>
        <pt x="530" y="655" on="0"/>
        <pt x="479" y="520" on="0"/>
        <pt x="471" y="475" on="1"/>
        <pt x="469" y="457" on="0"/>
        <pt x="469" y="448" on="1"/>
        <pt x="469" y="397" on="0"/>
        <pt x="538" y="334" on="0"/>
        <pt x="611" y="334" on="1"/>
        <pt x="689" y="334" on="0"/>
        <pt x="805" y="383" on="1"/>
        <pt x="841" y="36" on="1"/>
        <pt x="622" y="-34" on="0"/>
        <pt x="470" y="-34" on="1"/>
        <pt x="373" y="-34" on="0"/>
        <pt x="221" y="2" on="0"/>
        <pt x="124" y="62" on="0"/>
        <pt x="62" y="146" on="0"/>
        <pt x="37" y="234" on="0"/>
        <pt x="37" y="285" on="1"/>
        <pt x="37" y="347" on="0"/>
        <pt x="83" y="460" on="0"/>
        <pt x="158" y="552" on="0"/>
        <pt x="249" y="642" on="0"/>
        <pt x="344" y="736" on="0"/>
        <pt x="426" y="834" on="0"/>
        <pt x="485" y="961" on="0"/>
      </contour>
    </TTGlyph>
    <TTGlyph name="quotedbl" xMin="147" yMin="837" xMax="1025" yMax="1629">
      <contour>
        <pt x="777" y="896" on="1"/>
        <pt x="761" y="964" on="0"/>
        <pt x="688" y="1223" on="0"/>
        <pt x="644" y="1408" on="0"/>
        <pt x="644" y="1454" on="1"/>
        <pt x="644" y="1538" on="0"/>
        <pt x="754" y="1629" on="0"/>
        <pt x="830" y="1629" on="1"/>
        <pt x="908" y="1629" on="0"/>
        <pt x="1025" y="1534" on="0"/>
        <pt x="1025" y="1452" on="1"/>
        <pt x="1025" y="1404" on="0"/>
        <pt x="978" y="1218" on="0"/>
        <pt x="903" y="964" on="0"/>
        <pt x="887" y="896" on="1"/>
        <pt x="881" y="868" on="0"/>
        <pt x="850" y="837" on="0"/>
        <pt x="832" y="837" on="1"/>
        <pt x="815" y="837" on="0"/>
        <pt x="785" y="867" on="0"/>
      </contour>
      <contour>
        <pt x="280" y="896" on="1"/>
        <pt x="264" y="964" on="0"/>
        <pt x="191" y="1223" on="0"/>
        <pt x="147" y="1408" on="0"/>
        <pt x="147" y="1454" on="1"/>
        <pt x="147" y="1538" on="0"/>
        <pt x="257" y="1629" on="0"/>
        <pt x="333" y="1629" on="1"/>
        <pt x="411" y="1629" on="0"/>
        <pt x="528" y="1534" on="0"/>
        <pt x="528" y="1452" on="1"/>
        <pt x="528" y="1404" on="0"/>
        <pt x="481" y="1218" on="0"/>
        <pt x="406" y="964" on="0"/>
        <pt x="390" y="896" on="1"/>
        <pt x="384" y="868" on="0"/>
        <pt x="352" y="837" on="0"/>
        <pt x="318" y="837" on="0"/>
        <pt x="288" y="867" on="0"/>
      </contour>
    </TTGlyph>
    <TTGlyph name="quotedblbase" xMin="156" yMin="-409" xMax="1034" yMax="383">
      <contour>
        <pt x="786" y="-350" on="1"/>
        <pt x="770" y="-282" on="0"/>
        <pt x="697" y="-23" on="0"/>
        <pt x="653" y="162" on="0"/>
        <pt x="653" y="208" on="1"/>
        <pt x="653" y="292" on="0"/>
        <pt x="763" y="383" on="0"/>
        <pt x="839" y="383" on="1"/>
        <pt x="917" y="383" on="0"/>
        <pt x="1034" y="288" on="0"/>
        <pt x="1034" y="206" on="1"/>
        <pt x="1034" y="158" on="0"/>
        <pt x="987" y="-28" on="0"/>
        <pt x="912" y="-282" on="0"/>
        <pt x="896" y="-350" on="1"/>
        <pt x="890" y="-378" on="0"/>
        <pt x="858" y="-409" on="0"/>
        <pt x="824" y="-409" on="0"/>
        <pt x="794" y="-379" on="0"/>
      </contour>
      <contour>
        <pt x="289" y="-350" on="1"/>
        <pt x="273" y="-282" on="0"/>
        <pt x="200" y="-23" on="0"/>
        <pt x="156" y="162" on="0"/>
        <pt x="156" y="208" on="1"/>
        <pt x="156" y="292" on="0"/>
        <pt x="266" y="383" on="0"/>
        <pt x="342" y="383" on="1"/>
        <pt x="420" y="383" on="0"/>
        <pt x="537" y="288" on="0"/>
        <pt x="537" y="206" on="1"/>
        <pt x="537" y="158" on="0"/>
        <pt x="490" y="-28" on="0"/>
        <pt x="415" y="-282" on="0"/>
        <pt x="399" y="-350" on="1"/>
        <pt x="393" y="-378" on="0"/>
        <pt x="362" y="-409" on="0"/>
        <pt x="344" y="-409" on="1"/>
        <pt x="327" y="-409" on="0"/>
        <pt x="297" y="-379" on="0"/>
      </contour>
    </TTGlyph>
    <TTGlyph name="quotedblleft" xMin="254" yMin="987" xMax="1171" yMax="1630">
      <contour>
        <pt x="668" y="1187" on="1"/>
        <pt x="668" y="1093" on="0"/>
        <pt x="547" y="987" on="0"/>
        <pt x="464" y="987" on="1"/>
        <pt x="361" y="987" on="0"/>
        <pt x="254" y="1123" on="0"/>
        <pt x="254" y="1227" on="1"/>
        <pt x="254" y="1297" on="0"/>
        <pt x="301" y="1438" on="0"/>
        <pt x="387" y="1556" on="0"/>
        <pt x="522" y="1630" on="0"/>
        <pt x="601" y="1630" on="1"/>
        <pt x="622" y="1630" on="0"/>
        <pt x="645" y="1627" on="1"/>
        <pt x="645" y="1518" on="1"/>
        <pt x="582" y="1517" on="0"/>
        <pt x="493" y="1452" on="0"/>
        <pt x="489" y="1396" on="1"/>
        <pt x="564" y="1388" on="0"/>
        <pt x="668" y="1279" on="0"/>
      </contour>
      <contour>
        <pt x="1171" y="1187" on="1"/>
        <pt x="1171" y="1093" on="0"/>
        <pt x="1050" y="987" on="0"/>
        <pt x="967" y="987" on="1"/>
        <pt x="864" y="987" on="0"/>
        <pt x="757" y="1123" on="0"/>
        <pt x="757" y="1227" on="1"/>
        <pt x="757" y="1297" on="0"/>
        <pt x="804" y="1438" on="0"/>
        <pt x="890" y="1556" on="0"/>
        <pt x="1025" y="1630" on="0"/>
        <pt x="1104" y="1630" on="1"/>
        <pt x="1126" y="1630" on="0"/>
        <pt x="1148" y="1627" on="1"/>
        <pt x="1148" y="1518" on="1"/>
        <pt x="1085" y="1517" on="0"/>
        <pt x="996" y="1452" on="0"/>
        <pt x="992" y="1396" on="1"/>
        <pt x="1067" y="1388" on="0"/>
        <pt x="1171" y="1279" on="0"/>
      </contour>
    </TTGlyph>
    <TTGlyph name="quotedblright" xMin="254" yMin="987" xMax="1171" yMax="1630">
      <contour>
        <pt x="757" y="1430" on="1"/>
        <pt x="757" y="1524" on="0"/>
        <pt x="878" y="1630" on="0"/>
        <pt x="961" y="1630" on="1"/>
        <pt x="1064" y="1630" on="0"/>
        <pt x="1171" y="1494" on="0"/>
        <pt x="1171" y="1390" on="1"/>
        <pt x="1171" y="1320" on="0"/>
        <pt x="1124" y="1179" on="0"/>
        <pt x="1038" y="1061" on="0"/>
        <pt x="903" y="987" on="0"/>
        <pt x="824" y="987" on="1"/>
        <pt x="802" y="987" on="0"/>
        <pt x="780" y="990" on="1"/>
        <pt x="780" y="1099" on="1"/>
        <pt x="843" y="1100" on="0"/>
        <pt x="932" y="1165" on="0"/>
        <pt x="936" y="1221" on="1"/>
        <pt x="861" y="1229" on="0"/>
        <pt x="757" y="1338" on="0"/>
      </contour>
      <contour>
        <pt x="254" y="1430" on="1"/>
        <pt x="254" y="1524" on="0"/>
        <pt x="375" y="1630" on="0"/>
        <pt x="458" y="1630" on="1"/>
        <pt x="561" y="1630" on="0"/>
        <pt x="668" y="1494" on="0"/>
        <pt x="668" y="1390" on="1"/>
        <pt x="668" y="1320" on="0"/>
        <pt x="621" y="1179" on="0"/>
        <pt x="535" y="1061" on="0"/>
        <pt x="400" y="987" on="0"/>
        <pt x="321" y="987" on="1"/>
        <pt x="300" y="987" on="0"/>
        <pt x="277" y="990" on="1"/>
        <pt x="277" y="1099" on="1"/>
        <pt x="340" y="1100" on="0"/>
        <pt x="429" y="1165" on="0"/>
        <pt x="433" y="1221" on="1"/>
        <pt x="358" y="1229" on="0"/>
        <pt x="254" y="1338" on="0"/>
      </contour>
    </TTGlyph>
</ttFont>
